<?xml version="1.0" encoding="UTF-8" standalone="no"?>
<svg version="1.1" x="0" y="0" width="200" height="200" style="background-color: white" xmlns="http://www.w3.org/2000/svg"><polygon stroke="Black" stroke-width="1.5" fill="None" points="60.4,119.8 80.2,119.8 80.2,82.675 119.8,82.675 119.8,67.82499999999999 80.2,67.82499999999999 80.2,45.55000000000001 139.6,45.55000000000001 139.6,30.69999999999999 60.4,30.69999999999999"></polygon><polygon stroke="Black" stroke-width="1.5" fill="None" points="139.6,189.1 119.8,189.1 119.8,176.725 80.2,176.725 80.2,171.775 119.8,171.775 119.8,164.35 60.400000000000006,164.35 60.400000000000006,159.4 139.6,159.4"></polygon><polyline stroke="Grey" stroke-width="1" stroke-dasharray="2,2" fill="None" points="1,149.5 199,149.5 199,1 1,1 1,149.5"></polyline><polyline stroke="Grey" stroke-width="1" stroke-dasharray="2,2" fill="None" points="1,199 199,199 199,149.5 1,149.5 1,199"></polyline></svg>