<?xml version="1.0" encoding="UTF-8" standalone="no"?>
<svg version="1.1" x="0" y="0" width="200" height="200" style="background-color: white" xmlns="http://www.w3.org/2000/svg"><polygon stroke="Black" stroke-width="1.1124297730643495" fill="None" points="60.4,80.2 80.2,80.2 80.2,55.44999999999999 119.8,55.44999999999999 119.8,45.55000000000001 80.2,45.55000000000001 80.2,30.69999999999999 139.6,30.69999999999999 139.6,20.80000000000001 60.4,20.80000000000001"></polygon><polygon stroke="Black" stroke-width="1.1124297730643495" fill="None" points="139.6,179.2 119.8,179.2 119.8,154.45 80.2,154.45 80.2,144.55 119.8,144.55 119.8,129.7 60.400000000000006,129.7 60.400000000000006,119.8 139.6,119.8"></polygon><polyline stroke="Grey" stroke-width="1" stroke-dasharray="2,2" fill="None" points="1,100 199,100 199,1 1,1 1,100"></polyline><polyline stroke="Grey" stroke-width="1" stroke-dasharray="2,2" fill="None" points="1,199 199,199 199,100 1,100 1,199"></polyline></svg>