<?xml version="1.0" encoding="UTF-8" standalone="no"?>
<svg version="1.1" x="0" y="0" width="200" height="200" xmlns="http://www.w3.org/2000/svg"><polygon stroke="Black" stroke-width="1.118033988749895" fill="None" points="60,80 80,80 80,55 120,55 120,45 80,45 80,30 140,30 140,20 60,20"></polygon><polygon stroke="Black" stroke-width="1.118033988749895" fill="None" points="140,180 120,180 120,155 80,155 80,145 120,145 120,130 60,130 60,120 140,120"></polygon><polyline stroke="Grey" stroke-width="1" stroke-dasharray="2,2" fill="None" points="0,100 200,100 200,0 0,0 0,100"></polyline><polyline stroke="Grey" stroke-width="1" stroke-dasharray="2,2" fill="None" points="0,200 200,200 200,100 0,100 0,200"></polyline></svg>