<?xml version="1.0" encoding="UTF-8" standalone="no"?>
<svg version="1.1" x="0" y="0" width="200" height="200" style="background-color: white" xmlns="http://www.w3.org/2000/svg"><defs><marker id="a-arrow" markerWidth="10" markerHeight="10" refX="9" refY="3" orient="auto" markerUnits="strokeWidth"><path d="M0,0 L0,6 L9,3 z" fill="#f00"></path></marker><marker id="b-arrow" markerWidth="10" markerHeight="10" refX="9" refY="3" orient="auto" markerUnits="strokeWidth"><path d="M0,0 L0,6 L9,3 z" fill="#FF8C00"></path></marker><marker id="c-arrow" markerWidth="10" markerHeight="10" refX="9" refY="3" orient="auto" markerUnits="strokeWidth"><path d="M0,0 L0,6 L9,3 z" fill="#9932CC"></path></marker></defs><polygon stroke="Black" stroke-width="1.5811388300841898" fill="None" points="22.5,160 30,160 30,110 45,110 45,89.99999999999999 30,89.99999999999999 30,60 52.5,60 52.5,40 22.5,40"></polygon><polygon stroke="Black" stroke-width="1.5811388300841898" fill="None" points="162.5,160 150,160 150,110 125,110 125,89.99999999999999 150,89.99999999999999 150,60 112.5,60 112.5,40 162.5,40"></polygon><polyline stroke="Grey" stroke-width="1" stroke-dasharray="2,2" fill="None" points="0,200 75,200 75,0 0,0 0,200"></polyline><polyline stroke="Grey" stroke-width="1" stroke-dasharray="2,2" fill="None" points="75,200 200,200 200,0 75,0 75,200"></polyline></svg>