<?xml version="1.0" encoding="UTF-8" standalone="no"?>
<svg version="1.1" x="0" y="0" width="226" height="232" style="background-color: white" xmlns="http://www.w3.org/2000/svg"><defs><marker id="a-arrow" markerWidth="10" markerHeight="10" refX="9" refY="3" orient="auto" markerUnits="strokeWidth"><path d="M0,0 L0,6 L9,3 z" fill="#f00"></path></marker><marker id="b-arrow" markerWidth="10" markerHeight="10" refX="9" refY="3" orient="auto" markerUnits="strokeWidth"><path d="M0,0 L0,6 L9,3 z" fill="#FF8C00"></path></marker><marker id="c-arrow" markerWidth="10" markerHeight="10" refX="9" refY="3" orient="auto" markerUnits="strokeWidth"><path d="M0,0 L0,6 L9,3 z" fill="#9932CC"></path></marker></defs><path stroke="Black" stroke-width="0.9377974509992915" fill="None" d="M191.4035 109.5545 C 163.99125 122.63875, 158.668 120.997, 125.58425 105.82325"></path><path stroke="Black" stroke-width="0.9377974509992915" fill="None" d="M135.78300000000002 120.599 C 128.7185 111.1465, 122.84800000000001 106.66900000000001, 112.5 100.5"></path><path stroke="Black" stroke-width="0.9377974509992915" fill="None" d="M162.25 125.375 C 153.3945 122.0915, 146.32999999999998 121.196, 135.78300000000002 120.599"></path><path stroke="Black" stroke-width="0.9377974509992915" fill="None" d="M162.25 150.25 C 162.25 139.305, 162.25 132.8375, 162.25 125.375"></path><path stroke="Black" stroke-width="0.9377974509992915" fill="None" d="M187.125 150.25 C 177.175 150.25, 171.205 150.25, 162.25 150.25"></path><path stroke="Black" stroke-width="0.9377974509992915" fill="None" d="M187.125 150.25 C 190.4085 141.3945, 191.304 134.32999999999998, 191.901 123.783"></path><path stroke="Black" stroke-width="0.9377974509992915" fill="None" d="M191.901 123.783 C 177.175 129.8525, 174.6875 129.8525, 162.25 125.375"></path><path stroke="Black" stroke-width="0.9377974509992915" fill="None" d="M191.901 123.783 C 201.3535 116.7185, 205.831 110.84800000000001, 212 100.5"></path><path stroke="Black" stroke-width="0.9377974509992915" fill="None" d="M212 100.5 C 203.7415 98.41050000000001, 198.5675 97.714, 190.309 98.90799999999999"></path><path stroke="Black" stroke-width="0.9377974509992915" fill="None" d="M190.309 98.90799999999999 C 176.27949999999998 99.6045, 177.573 111.84299999999999, 162.25 112.7385"></path><path stroke="Black" stroke-width="0.9377974509992915" fill="None" d="M162.25 112.7385 C 159.7625 112.9375, 154.7875 112.9375, 149.8125 112.9375"></path><path stroke="Black" stroke-width="0.9377974509992915" fill="None" d="M149.8125 112.9375 C 143.743 110.1515, 139.763 107.06700000000001, 134.191 102.09199999999998"></path><path stroke="Black" stroke-width="0.9377974509992915" fill="None" d="M134.191 102.09199999999998 C 125.9325 103.286, 120.7585 102.58949999999999, 112.5 100.5"></path><path stroke="Black" stroke-width="0.9377974509992915" fill="None" d="M190.309 98.90799999999999 C 184.737 93.93299999999999, 180.757 90.8485, 174.6875 88.0625"></path><path stroke="Black" stroke-width="0.9377974509992915" fill="None" d="M174.6875 88.0625 C 168.46875 94.28125, 165.98125 96.76875000000001, 162.25 100.5"></path><path stroke="Black" stroke-width="0.9377974509992915" fill="None" d="M162.25 100.5 C 162.25 104.47999999999999, 162.25 109.45500000000001, 162.25 112.7385"></path><path stroke="Black" stroke-width="0.9377974509992915" fill="None" d="M181.90125 99.25625 C 179.8615 95.0275, 177.175 92.93799999999999, 172.44875 91.59475"></path><path stroke="Black" stroke-width="0.9377974509992915" fill="None" d="M175.43375 103.23624999999998 C 174.2895 98.41050000000001, 172.797 96.4205, 169.06575 94.77875"></path><path stroke="Black" stroke-width="0.9377974509992915" fill="None" d="M169.9115 107.9625 C 170.409 102.291, 169.5135 100.9975, 165.9315 97.91300000000001"></path><path stroke="Black" stroke-width="0.9377974509992915" fill="None" d="M160.60825 107.01724999999999 C 159.01625 107.21625, 157.52375 107.21625, 156.82725 106.91775"></path><path stroke="Black" stroke-width="0.9377974509992915" fill="None" d="M160.60825 110.00225 C 157.7725 110.9475, 156.28 110.94749999999999, 153.94175 109.60425000000001"></path><path stroke="Black" stroke-width="0.9377974509992915" fill="None" d="M182.49824999999998 146.91675 C 186.13 138.8075, 185.6325 133.335, 183.8415 128.4595"></path><path stroke="Black" stroke-width="0.9377974509992915" fill="None" d="M177.62275 146.91675 C 180.16 138.31, 180.16 135.325, 178.91625 129.60375"></path><path stroke="Black" stroke-width="0.9377974509992915" fill="None" d="M171.35425 146.91674999999998 C 174.6875 138.8075, 174.6875 134.8275, 173.24475 129.30525"></path><path stroke="Black" stroke-width="0.9377974509992915" fill="None" d="M166.47875 148.21025 C 169.215 137.315, 169.215 133.335, 168.3195 128.2605"></path><path stroke="Black" stroke-width="0.9377974509992915" fill="None" d="M192.34875 114.87774999999999 C 192.1995 112.838, 192.1995 111.84299999999999, 192.1995 110.5495"></path><path stroke="Black" stroke-width="0.9377974509992915" fill="None" d="M192.34875 114.87774999999999 C 195.483 112.838, 197.97050000000002 110.3505, 200.3585 106.868"></path><path stroke="Black" stroke-width="0.9377974509992915" fill="None" d="M200.3585 106.868 C 198.41825 105.62424999999999, 195.085 108.261, 192.1995 110.5495"></path><path stroke="Black" stroke-width="0.9377974509992915" fill="None" d="M191.503 108.062 C 191.10500000000002 106.47, 190.60750000000002 104.48, 190.35875 103.53475"></path><path stroke="Black" stroke-width="0.9377974509992915" fill="None" d="M191.503 108.062 C 196.32875 105.22625, 197.075 104.48, 198.71675 102.63925"></path><path stroke="Black" stroke-width="0.9377974509992915" fill="None" d="M198.71675 102.63925 C 194.83625 102.73874999999998, 192.498 102.888, 190.35875 103.53475"></path><path stroke="Black" stroke-width="0.9377974509992915" fill="None" d="M133.0965 190.94549999999998 C 160.50875 177.86124999999998, 165.832 179.503, 198.91575 194.67675"></path><path stroke="Black" stroke-width="0.9377974509992915" fill="None" d="M188.71699999999998 179.901 C 195.7815 189.3535, 201.652 193.831, 212 200"></path><path stroke="Black" stroke-width="0.9377974509992915" fill="None" d="M162.25 175.125 C 171.1055 178.4085, 178.17000000000002 179.304, 188.71699999999998 179.901"></path><path stroke="Black" stroke-width="0.9377974509992915" fill="None" d="M162.25 150.25 C 162.25 161.195, 162.25 167.6625, 162.25 175.125"></path><path stroke="Black" stroke-width="0.9377974509992915" fill="None" d="M137.375 150.25 C 147.325 150.25, 153.295 150.25, 162.25 150.25"></path><path stroke="Black" stroke-width="0.9377974509992915" fill="None" d="M137.375 150.25 C 134.0915 159.1055, 133.196 166.17000000000002, 132.599 176.71699999999998"></path><path stroke="Black" stroke-width="0.9377974509992915" fill="None" d="M132.599 176.71699999999998 C 147.325 170.6475, 149.8125 170.6475, 162.25 175.125"></path><path stroke="Black" stroke-width="0.9377974509992915" fill="None" d="M132.599 176.71699999999998 C 123.1465 183.7815, 118.66900000000001 189.652, 112.5 200"></path><path stroke="Black" stroke-width="0.9377974509992915" fill="None" d="M112.5 200 C 120.7585 202.0895, 125.9325 202.786, 134.191 201.592"></path><path stroke="Black" stroke-width="0.9377974509992915" fill="None" d="M134.191 201.592 C 148.22050000000002 200.8955, 146.927 188.657, 162.25 187.7615"></path><path stroke="Black" stroke-width="0.9377974509992915" fill="None" d="M162.25 187.7615 C 164.7375 187.5625, 169.7125 187.5625, 174.6875 187.5625"></path><path stroke="Black" stroke-width="0.9377974509992915" fill="None" d="M174.6875 187.5625 C 180.757 190.3485, 184.737 193.433, 190.309 198.40800000000002"></path><path stroke="Black" stroke-width="0.9377974509992915" fill="None" d="M190.309 198.40800000000002 C 198.5675 197.214, 203.7415 197.9105, 212 200"></path><path stroke="Black" stroke-width="0.9377974509992915" fill="None" d="M134.191 201.592 C 139.763 206.567, 143.743 209.6515, 149.8125 212.4375"></path><path stroke="Black" stroke-width="0.9377974509992915" fill="None" d="M149.8125 212.4375 C 156.03125 206.21875, 158.51875 203.73125, 162.25 200"></path><path stroke="Black" stroke-width="0.9377974509992915" fill="None" d="M162.25 200 C 162.25 196.02, 162.25 191.045, 162.25 187.7615"></path><path stroke="Black" stroke-width="0.9377974509992915" fill="None" d="M142.59875 201.24375 C 144.6385 205.4725, 147.325 207.562, 152.05125 208.90525"></path><path stroke="Black" stroke-width="0.9377974509992915" fill="None" d="M149.06625 197.26375000000002 C 150.2105 202.0895, 151.703 204.0795, 155.43425 205.72125"></path><path stroke="Black" stroke-width="0.9377974509992915" fill="None" d="M154.5885 192.5375 C 154.091 198.209, 154.9865 199.5025, 158.5685 202.587"></path><path stroke="Black" stroke-width="0.9377974509992915" fill="None" d="M163.89175 193.48275 C 165.48375 193.28375, 166.97625 193.28375, 167.67275 193.58225"></path><path stroke="Black" stroke-width="0.9377974509992915" fill="None" d="M163.89175 190.49775 C 166.7275 189.5525, 168.22 189.5525, 170.55825 190.89575"></path><path stroke="Black" stroke-width="0.9377974509992915" fill="None" d="M142.00175000000002 153.58325 C 138.37 161.6925, 138.8675 167.165, 140.6585 172.0405"></path><path stroke="Black" stroke-width="0.9377974509992915" fill="None" d="M146.87725 153.58325 C 144.34 162.19, 144.34 165.175, 145.58375 170.89625"></path><path stroke="Black" stroke-width="0.9377974509992915" fill="None" d="M153.14575 153.58325000000002 C 149.8125 161.6925, 149.8125 165.6725, 151.25525 171.19475"></path><path stroke="Black" stroke-width="0.9377974509992915" fill="None" d="M158.02125 152.28975 C 155.285 163.185, 155.285 167.165, 156.1805 172.2395"></path><path stroke="Black" stroke-width="0.9377974509992915" fill="None" d="M132.15125 185.62225 C 132.3005 187.662, 132.3005 188.657, 132.3005 189.9505"></path><path stroke="Black" stroke-width="0.9377974509992915" fill="None" d="M132.15125 185.62225 C 129.017 187.662, 126.5295 190.1495, 124.14150000000001 193.632"></path><path stroke="Black" stroke-width="0.9377974509992915" fill="None" d="M124.14150000000001 193.632 C 126.08175 194.87575, 129.415 192.239, 132.3005 189.9505"></path><path stroke="Black" stroke-width="0.9377974509992915" fill="None" d="M132.997 192.438 C 133.39499999999998 194.03, 133.89249999999998 196.01999999999998, 134.14125 196.96525"></path><path stroke="Black" stroke-width="0.9377974509992915" fill="None" d="M132.997 192.438 C 128.17125 195.27375, 127.425 196.01999999999998, 125.78325000000001 197.86075"></path><path stroke="Black" stroke-width="0.9377974509992915" fill="None" d="M125.78325000000001 197.86075 C 129.66375 197.76125000000002, 132.002 197.612, 134.14125 196.96525"></path><path stroke="Black" stroke-width="0.9377974509992915" fill="None" d="M121.5545 121.0965 C 134.63875000000002 148.50875000000002, 132.997 153.832, 117.82325 186.91575"></path><path stroke="Black" stroke-width="0.9377974509992915" fill="None" d="M132.599 176.71699999999998 C 123.1465 183.7815, 118.66900000000001 189.652, 112.5 200"></path><path stroke="Black" stroke-width="0.9377974509992915" fill="None" d="M137.375 150.25 C 134.0915 159.1055, 133.196 166.17000000000002, 132.599 176.71699999999998"></path><path stroke="Black" stroke-width="0.9377974509992915" fill="None" d="M162.25 150.25 C 151.305 150.25, 144.8375 150.25, 137.375 150.25"></path><path stroke="Black" stroke-width="0.9377974509992915" fill="None" d="M162.25 125.375 C 162.25 135.325, 162.25 141.29500000000002, 162.25 150.25"></path><path stroke="Black" stroke-width="0.9377974509992915" fill="None" d="M162.25 125.375 C 153.3945 122.0915, 146.32999999999998 121.196, 135.78300000000002 120.599"></path><path stroke="Black" stroke-width="0.9377974509992915" fill="None" d="M135.78300000000002 120.599 C 141.8525 135.325, 141.8525 137.8125, 137.375 150.25"></path><path stroke="Black" stroke-width="0.9377974509992915" fill="None" d="M135.78300000000002 120.599 C 128.7185 111.1465, 122.84800000000001 106.66900000000001, 112.5 100.5"></path><path stroke="Black" stroke-width="0.9377974509992915" fill="None" d="M112.5 100.5 C 110.41050000000001 108.7585, 109.714 113.9325, 110.90799999999999 122.191"></path><path stroke="Black" stroke-width="0.9377974509992915" fill="None" d="M110.90799999999999 122.191 C 111.6045 136.22050000000002, 123.84299999999999 134.927, 124.7385 150.25"></path><path stroke="Black" stroke-width="0.9377974509992915" fill="None" d="M124.7385 150.25 C 124.9375 152.7375, 124.9375 157.7125, 124.9375 162.6875"></path><path stroke="Black" stroke-width="0.9377974509992915" fill="None" d="M124.9375 162.6875 C 122.1515 168.757, 119.06700000000001 172.737, 114.092 178.309"></path><path stroke="Black" stroke-width="0.9377974509992915" fill="None" d="M114.092 178.309 C 115.286 186.5675, 114.5895 191.7415, 112.5 200"></path><path stroke="Black" stroke-width="0.9377974509992915" fill="None" d="M110.90799999999999 122.191 C 105.93299999999999 127.763, 102.8485 131.743, 100.0625 137.8125"></path><path stroke="Black" stroke-width="0.9377974509992915" fill="None" d="M100.0625 137.8125 C 106.28125 144.03125, 108.76875 146.51875, 112.5 150.25"></path><path stroke="Black" stroke-width="0.9377974509992915" fill="None" d="M112.5 150.25 C 116.47999999999999 150.25, 121.45500000000001 150.25, 124.7385 150.25"></path><path stroke="Black" stroke-width="0.9377974509992915" fill="None" d="M111.25625 130.59875 C 107.0275 132.6385, 104.938 135.325, 103.59475 140.05124999999998"></path><path stroke="Black" stroke-width="0.9377974509992915" fill="None" d="M115.23625 137.06625 C 110.4105 138.2105, 108.4205 139.703, 106.77875 143.43425"></path><path stroke="Black" stroke-width="0.9377974509992915" fill="None" d="M119.9625 142.5885 C 114.291 142.091, 112.9975 142.9865, 109.91300000000001 146.5685"></path><path stroke="Black" stroke-width="0.9377974509992915" fill="None" d="M119.01724999999999 151.89175 C 119.21625 153.48375, 119.21625 154.97625, 118.91775 155.67275"></path><path stroke="Black" stroke-width="0.9377974509992915" fill="None" d="M122.00225 151.89175 C 122.9475 154.72750000000002, 122.94749999999999 156.22, 121.60425000000001 158.55825"></path><path stroke="Black" stroke-width="0.9377974509992915" fill="None" d="M158.91675 130.00175000000002 C 150.8075 126.37, 145.335 126.8675, 140.4595 128.6585"></path><path stroke="Black" stroke-width="0.9377974509992915" fill="None" d="M158.91675 134.87725 C 150.31 132.34, 147.325 132.34, 141.60375 133.58375"></path><path stroke="Black" stroke-width="0.9377974509992915" fill="None" d="M158.91675 141.14575 C 150.8075 137.8125, 146.8275 137.8125, 141.30525 139.25525"></path><path stroke="Black" stroke-width="0.9377974509992915" fill="None" d="M160.21025 146.02125 C 149.315 143.285, 145.335 143.285, 140.2605 144.1805"></path><path stroke="Black" stroke-width="0.9377974509992915" fill="None" d="M126.87774999999999 120.15125 C 124.838 120.3005, 123.84299999999999 120.3005, 122.5495 120.3005"></path><path stroke="Black" stroke-width="0.9377974509992915" fill="None" d="M126.87774999999999 120.15125 C 124.838 117.017, 122.3505 114.5295, 118.868 112.14150000000001"></path><path stroke="Black" stroke-width="0.9377974509992915" fill="None" d="M118.868 112.14150000000001 C 117.62424999999999 114.08175, 120.261 117.41499999999999, 122.5495 120.3005"></path><path stroke="Black" stroke-width="0.9377974509992915" fill="None" d="M120.062 120.997 C 118.47 121.395, 116.48 121.8925, 115.53475 122.14125"></path><path stroke="Black" stroke-width="0.9377974509992915" fill="None" d="M120.062 120.997 C 117.22625 116.17125, 116.48 115.425, 114.63925 113.78325000000001"></path><path stroke="Black" stroke-width="0.9377974509992915" fill="None" d="M114.63925 113.78325000000001 C 114.73875 117.66375, 114.888 120.002, 115.53475 122.14125"></path><path stroke="Black" stroke-width="0.9377974509992915" fill="None" d="M202.94549999999998 179.4035 C 189.86124999999998 151.99124999999998, 191.503 146.668, 206.67675 113.58425"></path><path stroke="Black" stroke-width="0.9377974509992915" fill="None" d="M191.901 123.783 C 201.3535 116.7185, 205.831 110.84800000000001, 212 100.5"></path><path stroke="Black" stroke-width="0.9377974509992915" fill="None" d="M187.125 150.25 C 190.4085 141.3945, 191.304 134.32999999999998, 191.901 123.783"></path><path stroke="Black" stroke-width="0.9377974509992915" fill="None" d="M162.25 150.25 C 173.195 150.25, 179.6625 150.25, 187.125 150.25"></path><path stroke="Black" stroke-width="0.9377974509992915" fill="None" d="M162.25 175.125 C 162.25 165.175, 162.25 159.20499999999998, 162.25 150.25"></path><path stroke="Black" stroke-width="0.9377974509992915" fill="None" d="M162.25 175.125 C 171.1055 178.4085, 178.17000000000002 179.304, 188.71699999999998 179.901"></path><path stroke="Black" stroke-width="0.9377974509992915" fill="None" d="M188.71699999999998 179.901 C 182.6475 165.175, 182.6475 162.6875, 187.125 150.25"></path><path stroke="Black" stroke-width="0.9377974509992915" fill="None" d="M188.71699999999998 179.901 C 195.7815 189.3535, 201.652 193.831, 212 200"></path><path stroke="Black" stroke-width="0.9377974509992915" fill="None" d="M212 200 C 214.0895 191.7415, 214.786 186.5675, 213.592 178.309"></path><path stroke="Black" stroke-width="0.9377974509992915" fill="None" d="M213.592 178.309 C 212.8955 164.27949999999998, 200.657 165.573, 199.7615 150.25"></path><path stroke="Black" stroke-width="0.9377974509992915" fill="None" d="M199.7615 150.25 C 199.5625 147.7625, 199.5625 142.7875, 199.5625 137.8125"></path><path stroke="Black" stroke-width="0.9377974509992915" fill="None" d="M199.5625 137.8125 C 202.3485 131.743, 205.433 127.763, 210.40800000000002 122.191"></path><path stroke="Black" stroke-width="0.9377974509992915" fill="None" d="M210.40800000000002 122.191 C 209.214 113.9325, 209.9105 108.7585, 212 100.5"></path><path stroke="Black" stroke-width="0.9377974509992915" fill="None" d="M213.592 178.309 C 218.567 172.737, 221.6515 168.757, 224.4375 162.6875"></path><path stroke="Black" stroke-width="0.9377974509992915" fill="None" d="M224.4375 162.6875 C 218.21875 156.46875, 215.73125 153.98125, 212 150.25"></path><path stroke="Black" stroke-width="0.9377974509992915" fill="None" d="M212 150.25 C 208.02 150.25, 203.045 150.25, 199.7615 150.25"></path><path stroke="Black" stroke-width="0.9377974509992915" fill="None" d="M213.24375 169.90125 C 217.4725 167.8615, 219.562 165.175, 220.90525 160.44875000000002"></path><path stroke="Black" stroke-width="0.9377974509992915" fill="None" d="M209.26375000000002 163.43375 C 214.0895 162.2895, 216.0795 160.797, 217.72125 157.06575"></path><path stroke="Black" stroke-width="0.9377974509992915" fill="None" d="M204.5375 157.9115 C 210.209 158.409, 211.5025 157.5135, 214.587 153.9315"></path><path stroke="Black" stroke-width="0.9377974509992915" fill="None" d="M205.48275 148.60825 C 205.28375 147.01625, 205.28375 145.52375, 205.58225 144.82725"></path><path stroke="Black" stroke-width="0.9377974509992915" fill="None" d="M202.49775 148.60825 C 201.5525 145.77249999999998, 201.5525 144.28, 202.89575 141.94175"></path><path stroke="Black" stroke-width="0.9377974509992915" fill="None" d="M165.58325 170.49824999999998 C 173.6925 174.13, 179.165 173.6325, 184.0405 171.8415"></path><path stroke="Black" stroke-width="0.9377974509992915" fill="None" d="M165.58325 165.62275 C 174.19 168.16, 177.175 168.16, 182.89625 166.91625"></path><path stroke="Black" stroke-width="0.9377974509992915" fill="None" d="M165.58325 159.35425 C 173.6925 162.6875, 177.6725 162.6875, 183.19475 161.24475"></path><path stroke="Black" stroke-width="0.9377974509992915" fill="None" d="M164.28975 154.47875 C 175.185 157.215, 179.165 157.215, 184.2395 156.3195"></path><path stroke="Black" stroke-width="0.9377974509992915" fill="None" d="M197.62225 180.34875 C 199.662 180.1995, 200.657 180.1995, 201.9505 180.1995"></path><path stroke="Black" stroke-width="0.9377974509992915" fill="None" d="M197.62225 180.34875 C 199.662 183.483, 202.1495 185.97050000000002, 205.632 188.3585"></path><path stroke="Black" stroke-width="0.9377974509992915" fill="None" d="M205.632 188.3585 C 206.87575 186.41825, 204.239 183.085, 201.9505 180.1995"></path><path stroke="Black" stroke-width="0.9377974509992915" fill="None" d="M204.438 179.503 C 206.03 179.10500000000002, 208.01999999999998 178.60750000000002, 208.96525 178.35875"></path><path stroke="Black" stroke-width="0.9377974509992915" fill="None" d="M204.438 179.503 C 207.27375 184.32875, 208.01999999999998 185.075, 209.86075 186.71675"></path><path stroke="Black" stroke-width="0.9377974509992915" fill="None" d="M209.86075 186.71675 C 209.76125000000002 182.83625, 209.612 180.498, 208.96525 178.35875"></path><polyline stroke="Grey" stroke-width="1" stroke-dasharray="2,2" fill="None" points="13,100.5 112.5,100.5 112.5,1 13,1 13,100.5"></polyline><polyline stroke="Grey" stroke-width="1" stroke-dasharray="2,2" fill="None" points="112.5,100.5 212,100.5 212,1 112.5,1 112.5,100.5"></polyline><polyline stroke="Grey" stroke-width="1" stroke-dasharray="2,2" fill="None" points="13,200 112.5,200 112.5,100.5 13,100.5 13,200"></polyline><polyline stroke="Grey" stroke-width="1" stroke-dasharray="2,2" fill="None" points="112.5,200 212,200 212,100.5 112.5,100.5 112.5,200"></polyline></svg>