<?xml version="1.0" encoding="UTF-8" standalone="no"?>
<svg version="1.1" x="0" y="0" width="302" height="200" style="background-color: white" xmlns="http://www.w3.org/2000/svg"><defs><marker id="a-arrow" markerWidth="10" markerHeight="10" refX="9" refY="3" orient="auto" markerUnits="strokeWidth"><path d="M0,0 L0,6 L9,3 z" fill="#f00"></path></marker><marker id="b-arrow" markerWidth="10" markerHeight="10" refX="9" refY="3" orient="auto" markerUnits="strokeWidth"><path d="M0,0 L0,6 L9,3 z" fill="#FF8C00"></path></marker><marker id="c-arrow" markerWidth="10" markerHeight="10" refX="9" refY="3" orient="auto" markerUnits="strokeWidth"><path d="M0,0 L0,6 L9,3 z" fill="#9932CC"></path></marker></defs><path stroke="Black" stroke-width="1.5811388300841898" fill="None" d="M74.2 59.60000000000002 C 103 141, 117 148.4, 214 184.4"></path><path stroke="Black" stroke-width="1.5811388300841898" fill="None" d="M163.79999999999998 193.6 C 197 188.8, 217.79999999999998 191.6, 251 200"></path><path stroke="Black" stroke-width="1.5811388300841898" fill="None" d="M101 150 C 125.4 161.2, 141.4 173.6, 163.79999999999998 193.6"></path><path stroke="Black" stroke-width="1.5811388300841898" fill="None" d="M51 200 C 73 178, 86 165, 101 150"></path><path stroke="Black" stroke-width="1.5811388300841898" fill="None" d="M1 150 C 21 170, 33 182, 51 200"></path><path stroke="Black" stroke-width="1.5811388300841898" fill="None" d="M1 150 C 12.199999999999996 125.6, 24.599999999999998 109.6, 44.6 87.20000000000002"></path><path stroke="Black" stroke-width="1.5811388300841898" fill="None" d="M44.6 87.20000000000002 C 62 129, 67 134, 101 150"></path><path stroke="Black" stroke-width="1.5811388300841898" fill="None" d="M44.6 87.20000000000002 C 39.8 54, 42.6 33.20000000000002, 51 0"></path><path stroke="Black" stroke-width="1.5811388300841898" fill="None" d="M51 0 C 71.8 12.400000000000006, 83.6 21.400000000000006, 97.80000000000001 40.39999999999998"></path><path stroke="Black" stroke-width="1.5811388300841898" fill="None" d="M97.80000000000001 40.39999999999998 C 124.6 70, 97.4 92, 126.4 124.6"></path><path stroke="Black" stroke-width="1.5811388300841898" fill="None" d="M126.4 124.6 C 131 130, 141 140, 151 150"></path><path stroke="Black" stroke-width="1.5811388300841898" fill="None" d="M151 150 C 168.8 156.6, 183 158.4, 204.2 159.6"></path><path stroke="Black" stroke-width="1.5811388300841898" fill="None" d="M204.2 159.6 C 218.4 178.6, 230.20000000000002 187.6, 251 200"></path><path stroke="Black" stroke-width="1.5811388300841898" fill="None" d="M97.80000000000001 40.39999999999998 C 119 41.599999999999994, 133.2 43.400000000000006, 151 50"></path><path stroke="Black" stroke-width="1.5811388300841898" fill="None" d="M151 50 C 151 75, 151 85.00000000000001, 151 100"></path><path stroke="Black" stroke-width="1.5811388300841898" fill="None" d="M151 100 C 143 108, 133 118, 126.4 124.6"></path><path stroke="Black" stroke-width="1.5811388300841898" fill="None" d="M114 58 C 126.6 53.599999999999994, 136.2 54.80000000000001, 148.39999999999998 61.60000000000002"></path><path stroke="Black" stroke-width="1.5811388300841898" fill="None" d="M119 79 C 131 71.6, 138 70.6, 148.8 74.8"></path><path stroke="Black" stroke-width="1.5811388300841898" fill="None" d="M120.6 99.6 C 131 87.20000000000002, 135.39999999999998 86.4, 148.8 87.4"></path><path stroke="Black" stroke-width="1.5811388300841898" fill="None" d="M141.2 116.4 C 144 120, 147 123, 149 123.8"></path><path stroke="Black" stroke-width="1.5811388300841898" fill="None" d="M135.2 122.39999999999999 C 139 130, 142 133, 149.4 135"></path><path stroke="Black" stroke-width="1.5811388300841898" fill="None" d="M17 152.6 C 26 129, 38 119, 51.4 112.8"></path><path stroke="Black" stroke-width="1.5811388300841898" fill="None" d="M26.8 162.4 C 39 140, 45 134, 59 125"></path><path stroke="Black" stroke-width="1.5811388300841898" fill="None" d="M39.4 175 C 49 152, 57 144, 71 135.8"></path><path stroke="Black" stroke-width="1.5811388300841898" fill="None" d="M46.6 187.4 C 63 160, 71 152, 83 143.60000000000002"></path><path stroke="Black" stroke-width="1.5811388300841898" fill="None" d="M61.6 68.4 C 66 64.6, 68 62.599999999999994, 70.6 60"></path><path stroke="Black" stroke-width="1.5811388300841898" fill="None" d="M61.6 68.4 C 59.4 58, 59.4 48, 61.6 36.20000000000002"></path><path stroke="Black" stroke-width="1.5811388300841898" fill="None" d="M61.6 36.20000000000002 C 68 37.599999999999994, 69.4 49.599999999999994, 70.6 60"></path><path stroke="Black" stroke-width="1.5811388300841898" fill="None" d="M77 56.400000000000006 C 81 54, 86 51, 88.4 49.599999999999994"></path><path stroke="Black" stroke-width="1.5811388300841898" fill="None" d="M77 56.400000000000006 C 73 41, 73 38, 73.4 31"></path><path stroke="Black" stroke-width="1.5811388300841898" fill="None" d="M73.4 31 C 81 39, 85.4 44, 88.4 49.599999999999994"></path><polyline stroke="Grey" stroke-width="1" stroke-dasharray="2,2" fill="None" points="51,200 251,200 251,0 51,0 51,200"></polyline></svg>