<svg version="1.1" x="0" y="0" width="300" height="300"><defs><marker id="a-arrow" markerWidth="10" markerHeight="10" refX="9" refY="3" orient="auto" markerUnits="strokeWidth"><path d="M0,0 L0,6 L9,3 z" fill="#88499c"></path></marker><marker id="b-arrow" markerWidth="10" markerHeight="10" refX="9" refY="3" orient="auto" markerUnits="strokeWidth"><path d="M0,0 L0,6 L9,3 z" fill="#2381bf"></path></marker><marker id="c-arrow" markerWidth="10" markerHeight="10" refX="9" refY="3" orient="auto" markerUnits="strokeWidth"><path d="M0,0 L0,6 L9,3 z" fill="#27b15b"></path></marker></defs><polygon stroke="Black" stroke-width="1.3693063937629153" fill="None" points="180,195 165,195 165,157.5 135,157.5 135,142.5 165,142.5 165,120 120,120 120,105 180,105"></polygon><polyline stroke="Grey" stroke-width="1" stroke-dasharray="2,2" fill="None" points="225,225 75,225 75,75 225,75 225,225"></polyline><line x1="0" y1="300" x2="225" y2="225" stroke="#88499c" stroke-width="1.5" marker-end="url(#a-arrow)"></line><line x1="225" y1="225" x2="75" y2="225" stroke="#2381bf" stroke-width="1.5" marker-end="url(#b-arrow)"></line><line x1="225" y1="225" x2="225" y2="75" stroke="#27b15b" stroke-width="1.5" marker-end="url(#c-arrow)"></line><line x1="0" y1="300" x2="300" y2="300" stroke="black" stroke-width="1.5"></line><line x1="0" y1="0" x2="0" y2="300" stroke="black" stroke-width="1.5"></line><line x1="0" y1="300" x2="0" y2="297" stroke="black" stroke-width="1.0"></line><line x1="20" y1="300" x2="20" y2="297" stroke="black" stroke-width="1.0"></line><line x1="40" y1="300" x2="40" y2="297" stroke="black" stroke-width="1.0"></line><line x1="60" y1="300" x2="60" y2="297" stroke="black" stroke-width="1.0"></line><line x1="80" y1="300" x2="80" y2="297" stroke="black" stroke-width="1.0"></line><line x1="100" y1="300" x2="100" y2="297" stroke="black" stroke-width="1.0"></line><line x1="120" y1="300" x2="120" y2="297" stroke="black" stroke-width="1.0"></line><line x1="140" y1="300" x2="140" y2="297" stroke="black" stroke-width="1.0"></line><line x1="160" y1="300" x2="160" y2="297" stroke="black" stroke-width="1.0"></line><line x1="180" y1="300" x2="180" y2="297" stroke="black" stroke-width="1.0"></line><line x1="200" y1="300" x2="200" y2="297" stroke="black" stroke-width="1.0"></line><line x1="220" y1="300" x2="220" y2="297" stroke="black" stroke-width="1.0"></line><line x1="240" y1="300" x2="240" y2="297" stroke="black" stroke-width="1.0"></line><line x1="260" y1="300" x2="260" y2="297" stroke="black" stroke-width="1.0"></line><line x1="280" y1="300" x2="280" y2="297" stroke="black" stroke-width="1.0"></line><line x1="300" y1="300" x2="300" y2="297" stroke="black" stroke-width="1.0"></line><line x1="0" y1="300" x2="3" y2="300" stroke="black" stroke-width="1.0"></line><line x1="0" y1="280" x2="3" y2="280" stroke="black" stroke-width="1.0"></line><line x1="0" y1="260" x2="3" y2="260" stroke="black" stroke-width="1.0"></line><line x1="0" y1="240" x2="3" y2="240" stroke="black" stroke-width="1.0"></line><line x1="0" y1="220" x2="3" y2="220" stroke="black" stroke-width="1.0"></line><line x1="0" y1="200" x2="3" y2="200" stroke="black" stroke-width="1.0"></line><line x1="0" y1="180" x2="3" y2="180" stroke="black" stroke-width="1.0"></line><line x1="0" y1="160" x2="3" y2="160" stroke="black" stroke-width="1.0"></line><line x1="0" y1="140" x2="3" y2="140" stroke="black" stroke-width="1.0"></line><line x1="0" y1="120" x2="3" y2="120" stroke="black" stroke-width="1.0"></line><line x1="0" y1="100" x2="3" y2="100" stroke="black" stroke-width="1.0"></line><line x1="0" y1="80" x2="3" y2="80" stroke="black" stroke-width="1.0"></line><line x1="0" y1="60" x2="3" y2="60" stroke="black" stroke-width="1.0"></line><line x1="0" y1="40" x2="3" y2="40" stroke="black" stroke-width="1.0"></line><line x1="0" y1="20" x2="3" y2="20" stroke="black" stroke-width="1.0"></line><line x1="0" y1="0" x2="3" y2="0" stroke="black" stroke-width="1.0"></line></svg>