<svg version="1.1" x="0" y="0" width="300" height="300"><polyline stroke="Black" stroke-width="1.3693063937629153" fill="None" points="150,142.5 138.75,157.5 127.5,142.5 120,150 135,225"></polyline><polyline stroke="Black" stroke-width="1.3693063937629153" fill="None" points="150,105 138.75,135 127.5,127.5 120,127.5 123.75,105 120,75"></polyline><polyline stroke="Black" stroke-width="1.3693063937629153" fill="None" points="105,75 101.25,105 105,127.5 90,127.5 75,157.5"></polyline><polyline stroke="Black" stroke-width="1.3693063937629153" fill="None" points="75,195 105,150 90,225"></polyline><polyline stroke="Black" stroke-width="1.3693063937629153" fill="None" points="120,225 112.5,180 105,225"></polyline><polyline stroke="Black" stroke-width="1.3693063937629153" fill="None" points="150,142.5 161.25,157.5 172.5,142.5 180,150 165,225"></polyline><polyline stroke="Black" stroke-width="1.3693063937629153" fill="None" points="150,105 161.25,135 172.5,127.5 180,127.5 176.25,105 180,75"></polyline><polyline stroke="Black" stroke-width="1.3693063937629153" fill="None" points="195,75 198.75,105 195,127.5 210,127.5 225,157.5"></polyline><polyline stroke="Black" stroke-width="1.3693063937629153" fill="None" points="225,195 195,150 210,225"></polyline><polyline stroke="Black" stroke-width="1.3693063937629153" fill="None" points="180,225 187.5,180 195,225"></polyline></svg>