<svg version="1.1" x="0" y="0" width="300" height="300"><polyline stroke="Black" stroke-width="1.3693063937629153" fill="None" points="75,108.75 97.5,116.25 120,108.75 135,112.5 105,150"></polyline><polyline stroke="Black" stroke-width="1.3693063937629153" fill="None" points="75,90 97.5,105 120,101.25 135,101.25 127.5,90 135,75"></polyline><polyline stroke="Black" stroke-width="1.3693063937629153" fill="None" points="165,75 172.5,90 165,101.25 195,101.25 225,116.25"></polyline><polyline stroke="Black" stroke-width="1.3693063937629153" fill="None" points="225,135 165,112.5 195,150"></polyline><polyline stroke="Black" stroke-width="1.3693063937629153" fill="None" points="135,150 150,127.5 165,150"></polyline><polyline stroke="Black" stroke-width="1.3693063937629153" fill="None" points="225,191.25 202.5,183.75 180,191.25 165,187.5 195,150"></polyline><polyline stroke="Black" stroke-width="1.3693063937629153" fill="None" points="225,210 202.5,195 180,198.75 165,198.75 172.5,210 165,225"></polyline><polyline stroke="Black" stroke-width="1.3693063937629153" fill="None" points="135,225 127.5,210 135,198.75 105,198.75 75,183.75"></polyline><polyline stroke="Black" stroke-width="1.3693063937629153" fill="None" points="75,165 135,187.5 105,150"></polyline><polyline stroke="Black" stroke-width="1.3693063937629153" fill="None" points="165,150 150,172.5 135,150"></polyline></svg>