<?xml version="1.0" encoding="UTF-8" standalone="no"?>
<svg version="1.1" xmlns="http://www.w3.org/2000/svg" x="0" y="0" width="199" height="199"><defs><marker id="a-arrow" markerWidth="10" markerHeight="10" refX="9" refY="3" orient="auto" markerUnits="strokeWidth"><path d="M0,0 L0,6 L9,3 z" fill="#f00"></path></marker><marker id="b-arrow" markerWidth="10" markerHeight="10" refX="9" refY="3" orient="auto" markerUnits="strokeWidth"><path d="M0,0 L0,6 L9,3 z" fill="#FF8C00"></path></marker><marker id="c-arrow" markerWidth="10" markerHeight="10" refX="9" refY="3" orient="auto" markerUnits="strokeWidth"><path d="M0,0 L0,6 L9,3 z" fill="#9932CC"></path></marker></defs><line x1="0" y1="199" x2="199" y2="199" stroke="black" stroke-width="1"></line><line x1="0" y1="0" x2="0" y2="199" stroke="black" stroke-width="1"></line><line x1="0" y1="199" x2="0" y2="196" stroke="black" stroke-width="0.5"></line><line x1="20" y1="199" x2="20" y2="196" stroke="black" stroke-width="0.5"></line><line x1="40" y1="199" x2="40" y2="196" stroke="black" stroke-width="0.5"></line><line x1="60" y1="199" x2="60" y2="196" stroke="black" stroke-width="0.5"></line><line x1="80" y1="199" x2="80" y2="196" stroke="black" stroke-width="0.5"></line><line x1="100" y1="199" x2="100" y2="196" stroke="black" stroke-width="0.5"></line><line x1="120" y1="199" x2="120" y2="196" stroke="black" stroke-width="0.5"></line><line x1="140" y1="199" x2="140" y2="196" stroke="black" stroke-width="0.5"></line><line x1="160" y1="199" x2="160" y2="196" stroke="black" stroke-width="0.5"></line><line x1="180" y1="199" x2="180" y2="196" stroke="black" stroke-width="0.5"></line><line x1="0" y1="199" x2="3" y2="199" stroke="black" stroke-width="0.5"></line><line x1="0" y1="179" x2="3" y2="179" stroke="black" stroke-width="0.5"></line><line x1="0" y1="159" x2="3" y2="159" stroke="black" stroke-width="0.5"></line><line x1="0" y1="139" x2="3" y2="139" stroke="black" stroke-width="0.5"></line><line x1="0" y1="119" x2="3" y2="119" stroke="black" stroke-width="0.5"></line><line x1="0" y1="99" x2="3" y2="99" stroke="black" stroke-width="0.5"></line><line x1="0" y1="79" x2="3" y2="79" stroke="black" stroke-width="0.5"></line><line x1="0" y1="59" x2="3" y2="59" stroke="black" stroke-width="0.5"></line><line x1="0" y1="39" x2="3" y2="39" stroke="black" stroke-width="0.5"></line><line x1="0" y1="19" x2="3" y2="19" stroke="black" stroke-width="0.5"></line><line x1="0" y1="199" x2="50" y2="169" stroke="#f00" stroke-width="1" marker-end="url(#a-arrow)"></line><line x1="50" y1="169" x2="180" y2="169" stroke="#FF8C00" stroke-width="1" marker-end="url(#b-arrow)"></line><line x1="50" y1="169" x2="50" y2="39" stroke="#9932CC" stroke-width="1" marker-end="url(#c-arrow)"></line><polygon stroke="Black" stroke-width="1.2747548783981961" fill="None" points="89,143 102,143 102,110.5 128,110.5 128,97.5 102,97.5 102,78 141,78 141,65 89,65"></polygon><polyline stroke="Grey" stroke-width="1" stroke-dasharray="2,2" fill="None" points="50,169 180,169 180,39 50,39 50,169"></polyline></svg>