<?xml version="1.0" encoding="UTF-8" standalone="no"?>
<svg version="1.1" x="0" y="0" width="235" height="235" style="background-color: white" xmlns="http://www.w3.org/2000/svg"><defs><marker id="a-arrow" markerWidth="10" markerHeight="10" refX="9" refY="3" orient="auto" markerUnits="strokeWidth"><path d="M0,0 L0,6 L9,3 z" fill="#f00"></path></marker><marker id="b-arrow" markerWidth="10" markerHeight="10" refX="9" refY="3" orient="auto" markerUnits="strokeWidth"><path d="M0,0 L0,6 L9,3 z" fill="#FF8C00"></path></marker><marker id="c-arrow" markerWidth="10" markerHeight="10" refX="9" refY="3" orient="auto" markerUnits="strokeWidth"><path d="M0,0 L0,6 L9,3 z" fill="#9932CC"></path></marker></defs><line x1="0" y1="235" x2="235" y2="235" stroke="black" stroke-width="1"></line><line x1="0" y1="0" x2="0" y2="235" stroke="black" stroke-width="1"></line><line x1="0" y1="235" x2="0" y2="232" stroke="black" stroke-width="0.5"></line><line x1="20" y1="235" x2="20" y2="232" stroke="black" stroke-width="0.5"></line><line x1="40" y1="235" x2="40" y2="232" stroke="black" stroke-width="0.5"></line><line x1="60" y1="235" x2="60" y2="232" stroke="black" stroke-width="0.5"></line><line x1="80" y1="235" x2="80" y2="232" stroke="black" stroke-width="0.5"></line><line x1="100" y1="235" x2="100" y2="232" stroke="black" stroke-width="0.5"></line><line x1="120" y1="235" x2="120" y2="232" stroke="black" stroke-width="0.5"></line><line x1="140" y1="235" x2="140" y2="232" stroke="black" stroke-width="0.5"></line><line x1="160" y1="235" x2="160" y2="232" stroke="black" stroke-width="0.5"></line><line x1="180" y1="235" x2="180" y2="232" stroke="black" stroke-width="0.5"></line><line x1="200" y1="235" x2="200" y2="232" stroke="black" stroke-width="0.5"></line><line x1="220" y1="235" x2="220" y2="232" stroke="black" stroke-width="0.5"></line><line x1="0" y1="235" x2="3" y2="235" stroke="black" stroke-width="0.5"></line><line x1="0" y1="215" x2="3" y2="215" stroke="black" stroke-width="0.5"></line><line x1="0" y1="195" x2="3" y2="195" stroke="black" stroke-width="0.5"></line><line x1="0" y1="175" x2="3" y2="175" stroke="black" stroke-width="0.5"></line><line x1="0" y1="155" x2="3" y2="155" stroke="black" stroke-width="0.5"></line><line x1="0" y1="135" x2="3" y2="135" stroke="black" stroke-width="0.5"></line><line x1="0" y1="115" x2="3" y2="115" stroke="black" stroke-width="0.5"></line><line x1="0" y1="95" x2="3" y2="95" stroke="black" stroke-width="0.5"></line><line x1="0" y1="75" x2="3" y2="75" stroke="black" stroke-width="0.5"></line><line x1="0" y1="55" x2="3" y2="55" stroke="black" stroke-width="0.5"></line><line x1="0" y1="35" x2="3" y2="35" stroke="black" stroke-width="0.5"></line><line x1="0" y1="15" x2="3" y2="15" stroke="black" stroke-width="0.5"></line><line x1="0" y1="235" x2="115" y2="140" stroke="#f00" stroke-width="1" marker-end="url(#a-arrow)"></line><line x1="115" y1="140" x2="180" y2="75" stroke="#FF8C00" stroke-width="1" marker-end="url(#b-arrow)"></line><line x1="115" y1="140" x2="50" y2="75" stroke="#9932CC" stroke-width="1" marker-end="url(#c-arrow)"></line><line x1="0" y1="235" x2="50" y2="205" stroke="#f00" stroke-width="1" marker-end="url(#a-arrow)"></line><line x1="50" y1="205" x2="180" y2="205" stroke="#FF8C00" stroke-width="1" marker-end="url(#b-arrow)"></line><line x1="50" y1="205" x2="50" y2="75" stroke="#9932CC" stroke-width="1" marker-end="url(#c-arrow)"></line><polygon stroke="Black" stroke-width="1.071936807572228" fill="None" points="121.5,107.5 128,101 111.75,84.75 124.75,71.75 118.25,65.25 105.25,78.25 95.5,68.5 115,49 108.5,42.5 82.5,68.5"></polygon><polyline stroke="Grey" stroke-width="1" stroke-dasharray="2,2" fill="None" points="115,140 180,75 115,10 50,75 115,140"></polyline><polyline stroke="Grey" stroke-width="1" stroke-dasharray="2,2" fill="None" points="50,205 180,205 180,75 50,75 50,205"></polyline></svg>