<?xml version="1.0" encoding="UTF-8" standalone="no"?>
<svg version="1.1" x="0" y="0" width="200" height="200" style="background-color: white" xmlns="http://www.w3.org/2000/svg"><polygon stroke="Black" stroke-width="0.9128709291752768" fill="None" points="19.999999999999996,53.333333333333314 26.666666666666664,53.333333333333314 26.666666666666664,36.66666666666666 39.99999999999999,36.66666666666666 39.99999999999999,53.333333333333314 46.66666666666666,53.333333333333314 46.66666666666666,13.333333333333314 39.99999999999999,13.333333333333314 39.99999999999999,30 26.666666666666664,30 26.666666666666664,13.333333333333314 19.999999999999996,13.333333333333314"></polygon><polygon stroke="Black" stroke-width="0.9128709291752768" fill="None" points="86.66666666666666,53.333333333333314 113.33333333333331,53.333333333333314 113.33333333333331,46.66666666666666 93.33333333333333,46.66666666666666 93.33333333333333,36.66666666666666 106.66666666666666,36.66666666666666 106.66666666666666,30 93.33333333333333,30 93.33333333333333,20 113.33333333333331,20 113.33333333333331,13.333333333333314 86.66666666666666,13.333333333333314"></polygon><polygon stroke="Black" stroke-width="0.9128709291752768" fill="None" points="153.33333333333331,53.333333333333314 160,53.333333333333314 160,26.666666666666657 173.33333333333331,53.333333333333314 179.99999999999997,53.333333333333314 179.99999999999997,13.333333333333314 173.33333333333331,13.333333333333314 173.33333333333331,40 160,13.333333333333314 153.33333333333331,13.333333333333314"></polygon><polygon stroke="Black" stroke-width="0.9128709291752768" fill="None" points="19.999999999999996,120 36.666666666666664,120 46.66666666666666,110 46.66666666666666,90 36.666666666666664,79.99999999999999 19.999999999999996,79.99999999999999"></polygon><polygon stroke="Black" stroke-width="0.9128709291752768" fill="None" points="26.666666666666664,113.33333333333333 34.666666666666664,113.33333333333333 39.99999999999999,108 39.99999999999999,92 34.666666666666664,86.66666666666666 26.666666666666664,86.66666666666666"></polygon><polygon stroke="Black" stroke-width="0.5270462766947299" fill="None" points="73.33333333333333,84.44444444444444 75.55555555555554,84.44444444444444 75.55555555555554,78.88888888888889 79.99999999999999,78.88888888888889 79.99999999999999,84.44444444444444 82.22222222222221,84.44444444444444 82.22222222222221,71.11111111111111 79.99999999999999,71.11111111111111 79.99999999999999,76.66666666666666 75.55555555555554,76.66666666666666 75.55555555555554,71.11111111111111 73.33333333333333,71.11111111111111"></polygon><polygon stroke="Black" stroke-width="0.5270462766947299" fill="None" points="95.55555555555556,84.44444444444444 104.44444444444444,84.44444444444444 104.44444444444444,82.22222222222221 97.77777777777777,82.22222222222221 97.77777777777777,78.88888888888889 102.22222222222221,78.88888888888889 102.22222222222221,76.66666666666666 97.77777777777777,76.66666666666666 97.77777777777777,73.33333333333333 104.44444444444444,73.33333333333333 104.44444444444444,71.11111111111111 95.55555555555556,71.11111111111111"></polygon><polygon stroke="Black" stroke-width="0.5270462766947299" fill="None" points="117.77777777777779,84.44444444444444 120,84.44444444444444 120,75.55555555555556 124.44444444444444,84.44444444444444 126.66666666666667,84.44444444444444 126.66666666666667,71.11111111111111 124.44444444444444,71.11111111111111 124.44444444444444,80 120,71.11111111111111 117.77777777777779,71.11111111111111"></polygon><polygon stroke="Black" stroke-width="0.5270462766947299" fill="None" points="73.33333333333333,106.66666666666666 78.88888888888889,106.66666666666666 82.22222222222221,103.33333333333331 82.22222222222221,96.66666666666666 78.88888888888889,93.33333333333331 73.33333333333333,93.33333333333331"></polygon><polygon stroke="Black" stroke-width="0.5270462766947299" fill="None" points="75.55555555555554,104.44444444444443 78.22222222222221,104.44444444444443 79.99999999999999,102.66666666666666 79.99999999999999,97.33333333333331 78.22222222222221,95.55555555555554 75.55555555555554,95.55555555555554"></polygon><polygon stroke="Black" stroke-width="0.3042903097250923" fill="None" points="91.11111111111111,94.8148148148148 91.85185185185185,94.8148148148148 91.85185185185185,92.96296296296295 93.33333333333333,92.96296296296295 93.33333333333333,94.8148148148148 94.07407407407408,94.8148148148148 94.07407407407408,90.37037037037035 93.33333333333333,90.37037037037035 93.33333333333333,92.2222222222222 91.85185185185185,92.2222222222222 91.85185185185185,90.37037037037035 91.11111111111111,90.37037037037035"></polygon><polygon stroke="Black" stroke-width="0.3042903097250923" fill="None" points="98.51851851851852,94.8148148148148 101.48148148148148,94.8148148148148 101.48148148148148,94.07407407407405 99.25925925925925,94.07407407407405 99.25925925925925,92.96296296296295 100.74074074074073,92.96296296296295 100.74074074074073,92.2222222222222 99.25925925925925,92.2222222222222 99.25925925925925,91.11111111111109 101.48148148148148,91.11111111111109 101.48148148148148,90.37037037037035 98.51851851851852,90.37037037037035"></polygon><polygon stroke="Black" stroke-width="0.3042903097250923" fill="None" points="105.92592592592592,94.8148148148148 106.66666666666666,94.8148148148148 106.66666666666666,91.85185185185183 108.14814814814814,94.8148148148148 108.88888888888889,94.8148148148148 108.88888888888889,90.37037037037035 108.14814814814814,90.37037037037035 108.14814814814814,93.33333333333331 106.66666666666666,90.37037037037035 105.92592592592592,90.37037037037035"></polygon><polygon stroke="Black" stroke-width="0.3042903097250923" fill="None" points="91.11111111111111,102.22222222222221 92.96296296296296,102.22222222222221 94.07407407407408,101.1111111111111 94.07407407407408,98.88888888888889 92.96296296296296,97.77777777777777 91.11111111111111,97.77777777777777"></polygon><polygon stroke="Black" stroke-width="0.3042903097250923" fill="None" points="91.85185185185185,101.48148148148147 92.74074074074073,101.48148148148147 93.33333333333333,100.88888888888889 93.33333333333333,99.1111111111111 92.74074074074073,98.5185185185185 91.85185185185185,98.5185185185185"></polygon><polygon stroke="Black" stroke-width="0.3042903097250923" fill="None" points="98.51851851851852,102.22222222222221 101.48148148148148,102.22222222222221 101.48148148148148,101.48148148148147 99.25925925925925,101.48148148148147 99.25925925925925,100.37037037037037 100.74074074074073,100.37037037037037 100.74074074074073,99.62962962962962 99.25925925925925,99.62962962962962 99.25925925925925,98.5185185185185 101.48148148148148,98.5185185185185 101.48148148148148,97.77777777777777 98.51851851851852,97.77777777777777"></polygon><polygon stroke="Black" stroke-width="0.3042903097250923" fill="None" points="105.92592592592592,102.22222222222221 106.66666666666666,102.22222222222221 106.66666666666666,100.37037037037037 107.03703703703702,100.37037037037037 108.14814814814814,102.22222222222221 108.88888888888889,102.22222222222221 107.77777777777777,100.37037037037037 108.88888888888889,100.37037037037037 108.88888888888889,97.77777777777777 105.92592592592592,97.77777777777777"></polygon><polygon stroke="Black" stroke-width="0.3042903097250923" fill="None" points="106.66666666666666,99.62962962962962 108.14814814814814,99.62962962962962 108.14814814814814,98.5185185185185 106.66666666666666,98.5185185185185"></polygon><polygon stroke="Black" stroke-width="0.3042903097250923" fill="None" points="91.11111111111111,109.62962962962962 94.07407407407408,109.62962962962962 94.07407407407408,107.03703703703702 91.85185185185185,107.03703703703702 91.85185185185185,105.92592592592591 94.07407407407408,105.92592592592591 94.07407407407408,105.18518518518518 91.11111111111111,105.18518518518518 91.11111111111111,107.77777777777777 93.33333333333333,107.77777777777777 93.33333333333333,108.88888888888887 91.11111111111111,108.88888888888887"></polygon><polygon stroke="Black" stroke-width="0.3042903097250923" fill="None" points="98.51851851851852,109.62962962962962 101.48148148148148,109.62962962962962 101.48148148148148,105.18518518518518 98.51851851851852,105.18518518518518"></polygon><polygon stroke="Black" stroke-width="0.3042903097250923" fill="None" points="99.25925925925925,108.88888888888887 100.74074074074073,108.88888888888887 100.74074074074073,105.92592592592591 99.25925925925925,105.92592592592591"></polygon><polygon stroke="Black" stroke-width="0.3042903097250923" fill="None" points="105.92592592592592,109.62962962962962 106.66666666666666,109.62962962962962 106.66666666666666,106.66666666666666 108.14814814814814,109.62962962962962 108.88888888888889,109.62962962962962 108.88888888888889,105.18518518518518 108.14814814814814,105.18518518518518 108.14814814814814,108.14814814814814 106.66666666666666,105.18518518518518 105.92592592592592,105.18518518518518"></polygon><polygon stroke="Black" stroke-width="0.5270462766947299" fill="None" points="117.77777777777779,106.66666666666666 120,106.66666666666666 120,101.1111111111111 121.11111111111111,101.1111111111111 124.44444444444444,106.66666666666666 126.66666666666667,106.66666666666666 123.33333333333334,101.1111111111111 126.66666666666667,101.1111111111111 126.66666666666667,93.33333333333331 117.77777777777779,93.33333333333331"></polygon><polygon stroke="Black" stroke-width="0.5270462766947299" fill="None" points="120,98.88888888888887 124.44444444444444,98.88888888888887 124.44444444444444,95.55555555555554 120,95.55555555555554"></polygon><polygon stroke="Black" stroke-width="0.5270462766947299" fill="None" points="73.33333333333333,128.88888888888889 82.22222222222221,128.88888888888889 82.22222222222221,121.1111111111111 75.55555555555554,121.1111111111111 75.55555555555554,117.77777777777777 82.22222222222221,117.77777777777777 82.22222222222221,115.55555555555554 73.33333333333333,115.55555555555554 73.33333333333333,123.33333333333333 79.99999999999999,123.33333333333333 79.99999999999999,126.66666666666666 73.33333333333333,126.66666666666666"></polygon><polygon stroke="Black" stroke-width="0.5270462766947299" fill="None" points="95.55555555555556,128.88888888888889 104.44444444444444,128.88888888888889 104.44444444444444,115.55555555555554 95.55555555555556,115.55555555555554"></polygon><polygon stroke="Black" stroke-width="0.5270462766947299" fill="None" points="97.77777777777777,126.66666666666666 102.22222222222221,126.66666666666666 102.22222222222221,117.77777777777777 97.77777777777777,117.77777777777777"></polygon><polygon stroke="Black" stroke-width="0.5270462766947299" fill="None" points="117.77777777777779,128.88888888888889 120,128.88888888888889 120,120 124.44444444444444,128.88888888888889 126.66666666666667,128.88888888888889 126.66666666666667,115.55555555555554 124.44444444444444,115.55555555555554 124.44444444444444,124.44444444444444 120,115.55555555555554 117.77777777777779,115.55555555555554"></polygon><polygon stroke="Black" stroke-width="0.9128709291752769" fill="None" points="153.33333333333331,120 160,120 160,103.33333333333333 163.33333333333331,103.33333333333333 173.33333333333331,120 179.99999999999997,120 170,103.33333333333333 179.99999999999997,103.33333333333333 179.99999999999997,79.99999999999999 153.33333333333331,79.99999999999999"></polygon><polygon stroke="Black" stroke-width="0.9128709291752769" fill="None" points="160,96.66666666666666 173.33333333333331,96.66666666666666 173.33333333333331,86.66666666666666 160,86.66666666666666"></polygon><polygon stroke="Black" stroke-width="0.9128709291752768" fill="None" points="19.999999999999996,186.66666666666666 46.66666666666666,186.66666666666666 46.66666666666666,163.33333333333331 26.666666666666664,163.33333333333331 26.666666666666664,153.33333333333334 46.66666666666666,153.33333333333334 46.66666666666666,146.66666666666666 19.999999999999996,146.66666666666666 19.999999999999996,170 39.99999999999999,170 39.99999999999999,180 19.999999999999996,180"></polygon><polygon stroke="Black" stroke-width="0.9128709291752769" fill="None" points="86.66666666666666,186.66666666666666 113.33333333333331,186.66666666666666 113.33333333333331,146.66666666666666 86.66666666666666,146.66666666666666"></polygon><polygon stroke="Black" stroke-width="0.9128709291752769" fill="None" points="93.33333333333333,180 106.66666666666666,180 106.66666666666666,153.33333333333334 93.33333333333333,153.33333333333334"></polygon><polygon stroke="Black" stroke-width="0.9128709291752769" fill="None" points="153.33333333333331,186.66666666666666 160,186.66666666666666 160,160 173.33333333333331,186.66666666666666 179.99999999999997,186.66666666666666 179.99999999999997,146.66666666666666 173.33333333333331,146.66666666666666 173.33333333333331,173.33333333333331 160,146.66666666666666 153.33333333333331,146.66666666666666"></polygon></svg>