<?xml version="1.0" encoding="UTF-8" standalone="no"?>
<svg version="1.1" x="0" y="0" width="200" height="200" style="background-color: white" xmlns="http://www.w3.org/2000/svg"><polygon stroke="Black" stroke-width="0.9128709291752768" fill="None" points="19.999999999999996,53.333333333333314 26.666666666666664,53.333333333333314 26.666666666666664,36.66666666666666 39.99999999999999,36.66666666666666 39.99999999999999,53.333333333333314 46.66666666666666,53.333333333333314 46.66666666666666,13.333333333333314 39.99999999999999,13.333333333333314 39.99999999999999,30 26.666666666666664,30 26.666666666666664,13.333333333333314 19.999999999999996,13.333333333333314"></polygon><polygon stroke="Black" stroke-width="0.9128709291752768" fill="None" points="86.66666666666666,53.333333333333314 113.33333333333331,53.333333333333314 113.33333333333331,46.66666666666666 93.33333333333333,46.66666666666666 93.33333333333333,36.66666666666666 106.66666666666666,36.66666666666666 106.66666666666666,30 93.33333333333333,30 93.33333333333333,20 113.33333333333331,20 113.33333333333331,13.333333333333314 86.66666666666666,13.333333333333314"></polygon><polygon stroke="Black" stroke-width="0.9128709291752768" fill="None" points="153.33333333333331,53.333333333333314 160,53.333333333333314 160,26.666666666666657 173.33333333333331,53.333333333333314 179.99999999999997,53.333333333333314 179.99999999999997,13.333333333333314 173.33333333333331,13.333333333333314 173.33333333333331,40 160,13.333333333333314 153.33333333333331,13.333333333333314"></polygon><polygon stroke="Black" stroke-width="0.9128709291752768" fill="None" points="19.999999999999996,120 36.666666666666664,120 46.66666666666666,110 46.66666666666666,90 36.666666666666664,79.99999999999999 19.999999999999996,79.99999999999999"></polygon><polygon stroke="Black" stroke-width="0.9128709291752768" fill="None" points="26.666666666666664,113.33333333333333 34.666666666666664,113.33333333333333 39.99999999999999,108 39.99999999999999,92 34.666666666666664,86.66666666666666 26.666666666666664,86.66666666666666"></polygon><polygon stroke="Black" stroke-width="0.9128709291752769" fill="None" points="86.66666666666666,120 113.33333333333331,120 113.33333333333331,113.33333333333333 93.33333333333333,113.33333333333333 93.33333333333333,103.33333333333333 106.66666666666666,103.33333333333333 106.66666666666666,96.66666666666666 93.33333333333333,96.66666666666666 93.33333333333333,86.66666666666666 113.33333333333331,86.66666666666666 113.33333333333331,79.99999999999999 86.66666666666666,79.99999999999999"></polygon><polygon stroke="Black" stroke-width="0.9128709291752769" fill="None" points="153.33333333333331,120 160,120 160,103.33333333333333 163.33333333333331,103.33333333333333 173.33333333333331,120 179.99999999999997,120 170,103.33333333333333 179.99999999999997,103.33333333333333 179.99999999999997,79.99999999999999 153.33333333333331,79.99999999999999"></polygon><polygon stroke="Black" stroke-width="0.9128709291752769" fill="None" points="160,96.66666666666666 173.33333333333331,96.66666666666666 173.33333333333331,86.66666666666666 160,86.66666666666666"></polygon><polygon stroke="Black" stroke-width="0.9128709291752768" fill="None" points="19.999999999999996,186.66666666666666 46.66666666666666,186.66666666666666 46.66666666666666,163.33333333333331 26.666666666666664,163.33333333333331 26.666666666666664,153.33333333333334 46.66666666666666,153.33333333333334 46.66666666666666,146.66666666666666 19.999999999999996,146.66666666666666 19.999999999999996,170 39.99999999999999,170 39.99999999999999,180 19.999999999999996,180"></polygon><polygon stroke="Black" stroke-width="0.9128709291752769" fill="None" points="86.66666666666666,186.66666666666666 113.33333333333331,186.66666666666666 113.33333333333331,146.66666666666666 86.66666666666666,146.66666666666666"></polygon><polygon stroke="Black" stroke-width="0.9128709291752769" fill="None" points="93.33333333333333,180 106.66666666666666,180 106.66666666666666,153.33333333333334 93.33333333333333,153.33333333333334"></polygon><polygon stroke="Black" stroke-width="0.9128709291752769" fill="None" points="153.33333333333331,186.66666666666666 160,186.66666666666666 160,160 173.33333333333331,186.66666666666666 179.99999999999997,186.66666666666666 179.99999999999997,146.66666666666666 173.33333333333331,146.66666666666666 173.33333333333331,173.33333333333331 160,146.66666666666666 153.33333333333331,146.66666666666666"></polygon></svg>