<?xml version="1.0" encoding="UTF-8" standalone="no"?>
<svg version="1.1" x="0" y="0" width="200" height="200" style="background-color: white" xmlns="http://www.w3.org/2000/svg"><polyline stroke="Black" stroke-width="0.5590169943749475" fill="None" points="0,11.25 3.75,13.75 7.5,11.25 10,12.5 5,25"></polyline><polyline stroke="Black" stroke-width="0.5590169943749475" fill="None" points="0,5 3.75,10 7.5,8.75 10,8.75 8.75,5 10,0"></polyline><polyline stroke="Black" stroke-width="0.5590169943749475" fill="None" points="15,0 16.25,5 15,8.75 20,8.75 25,13.75"></polyline><polyline stroke="Black" stroke-width="0.5590169943749475" fill="None" points="25,20 15,12.5 20,25"></polyline><polyline stroke="Black" stroke-width="0.5590169943749475" fill="None" points="10,25 12.5,17.5 15,25"></polyline><polyline stroke="Black" stroke-width="0.5590169943749475" fill="None" points="25,13.75 28.75,11.25 32.5,13.75 35,12.5 30,0"></polyline><polyline stroke="Black" stroke-width="0.5590169943749475" fill="None" points="25,20 28.75,15 32.5,16.25 35,16.25 33.75,20 35,25"></polyline><polyline stroke="Black" stroke-width="0.5590169943749475" fill="None" points="40,25 41.25,20 40,16.25 45,16.25 50,11.25"></polyline><polyline stroke="Black" stroke-width="0.5590169943749475" fill="None" points="50,5 40,12.5 45,0"></polyline><polyline stroke="Black" stroke-width="0.5590169943749475" fill="None" points="35,0 37.5,7.5 40,0"></polyline><polyline stroke="Black" stroke-width="0.5590169943749475" fill="None" points="25,38.75 21.25,36.25 17.5,38.75 15,37.5 20,25"></polyline><polyline stroke="Black" stroke-width="0.5590169943749475" fill="None" points="25,45 21.25,40 17.5,41.25 15,41.25 16.25,45 15,50"></polyline><polyline stroke="Black" stroke-width="0.5590169943749475" fill="None" points="10,50 8.75,45 10,41.25 5,41.25 0,36.25"></polyline><polyline stroke="Black" stroke-width="0.5590169943749475" fill="None" points="0,30 10,37.5 5,25"></polyline><polyline stroke="Black" stroke-width="0.5590169943749475" fill="None" points="15,25 12.5,32.5 10,25"></polyline><polyline stroke="Black" stroke-width="0.5590169943749475" fill="None" points="50,36.25 46.25,38.75 42.5,36.25 40,37.5 45,50"></polyline><polyline stroke="Black" stroke-width="0.5590169943749475" fill="None" points="50,30 46.25,35 42.5,33.75 40,33.75 41.25,30 40,25"></polyline><polyline stroke="Black" stroke-width="0.5590169943749475" fill="None" points="35,25 33.75,30 35,33.75 30,33.75 25,38.75"></polyline><polyline stroke="Black" stroke-width="0.5590169943749475" fill="None" points="25,45 35,37.5 30,50"></polyline><polyline stroke="Black" stroke-width="0.5590169943749475" fill="None" points="40,50 37.5,42.5 35,50"></polyline><polyline stroke="Black" stroke-width="0.5590169943749475" fill="None" points="50,61.25 53.75,63.75 57.5,61.25 60,62.5 55,75"></polyline><polyline stroke="Black" stroke-width="0.5590169943749475" fill="None" points="50,55 53.75,60 57.5,58.75 60,58.75 58.75,55 60,50"></polyline><polyline stroke="Black" stroke-width="0.5590169943749475" fill="None" points="65,50 66.25,55 65,58.75 70,58.75 75,63.75"></polyline><polyline stroke="Black" stroke-width="0.5590169943749475" fill="None" points="75,70 65,62.5 70,75"></polyline><polyline stroke="Black" stroke-width="0.5590169943749475" fill="None" points="60,75 62.5,67.5 65,75"></polyline><polyline stroke="Black" stroke-width="0.5590169943749475" fill="None" points="75,63.75 78.75,61.25 82.5,63.75 85,62.5 80,50"></polyline><polyline stroke="Black" stroke-width="0.5590169943749475" fill="None" points="75,70 78.75,65 82.5,66.25 85,66.25 83.75,70 85,75"></polyline><polyline stroke="Black" stroke-width="0.5590169943749475" fill="None" points="90,75 91.25,70 90,66.25 95,66.25 100,61.25"></polyline><polyline stroke="Black" stroke-width="0.5590169943749475" fill="None" points="100,55 90,62.5 95,50"></polyline><polyline stroke="Black" stroke-width="0.5590169943749475" fill="None" points="85,50 87.5,57.5 90,50"></polyline><polyline stroke="Black" stroke-width="0.5590169943749475" fill="None" points="75,88.75 71.25,86.25 67.5,88.75 65,87.5 70,75"></polyline><polyline stroke="Black" stroke-width="0.5590169943749475" fill="None" points="75,95 71.25,90 67.5,91.25 65,91.25 66.25,95 65,100"></polyline><polyline stroke="Black" stroke-width="0.5590169943749475" fill="None" points="60,100 58.75,95 60,91.25 55,91.25 50,86.25"></polyline><polyline stroke="Black" stroke-width="0.5590169943749475" fill="None" points="50,80 60,87.5 55,75"></polyline><polyline stroke="Black" stroke-width="0.5590169943749475" fill="None" points="65,75 62.5,82.5 60,75"></polyline><polyline stroke="Black" stroke-width="0.5590169943749475" fill="None" points="100,86.25 96.25,88.75 92.5,86.25 90,87.5 95,100"></polyline><polyline stroke="Black" stroke-width="0.5590169943749475" fill="None" points="100,80 96.25,85 92.5,83.75 90,83.75 91.25,80 90,75"></polyline><polyline stroke="Black" stroke-width="0.5590169943749475" fill="None" points="85,75 83.75,80 85,83.75 80,83.75 75,88.75"></polyline><polyline stroke="Black" stroke-width="0.5590169943749475" fill="None" points="75,95 85,87.5 80,100"></polyline><polyline stroke="Black" stroke-width="0.5590169943749475" fill="None" points="90,100 87.5,92.5 85,100"></polyline><polyline stroke="Black" stroke-width="0.5590169943749475" fill="None" points="100,11.25 103.75,13.75 107.5,11.25 110,12.5 105,25"></polyline><polyline stroke="Black" stroke-width="0.5590169943749475" fill="None" points="100,5 103.75,10 107.5,8.75 110,8.75 108.75,5 110,0"></polyline><polyline stroke="Black" stroke-width="0.5590169943749475" fill="None" points="115,0 116.25,5 115,8.75 120,8.75 125,13.75"></polyline><polyline stroke="Black" stroke-width="0.5590169943749475" fill="None" points="125,20 115,12.5 120,25"></polyline><polyline stroke="Black" stroke-width="0.5590169943749475" fill="None" points="110,25 112.5,17.5 115,25"></polyline><polyline stroke="Black" stroke-width="0.5590169943749475" fill="None" points="125,13.75 128.75,11.25 132.5,13.75 135,12.5 130,0"></polyline><polyline stroke="Black" stroke-width="0.5590169943749475" fill="None" points="125,20 128.75,15 132.5,16.25 135,16.25 133.75,20 135,25"></polyline><polyline stroke="Black" stroke-width="0.5590169943749475" fill="None" points="140,25 141.25,20 140,16.25 145,16.25 150,11.25"></polyline><polyline stroke="Black" stroke-width="0.5590169943749475" fill="None" points="150,5 140,12.5 145,0"></polyline><polyline stroke="Black" stroke-width="0.5590169943749475" fill="None" points="135,0 137.5,7.5 140,0"></polyline><polyline stroke="Black" stroke-width="0.5590169943749475" fill="None" points="125,38.75 121.25,36.25 117.5,38.75 115,37.5 120,25"></polyline><polyline stroke="Black" stroke-width="0.5590169943749475" fill="None" points="125,45 121.25,40 117.5,41.25 115,41.25 116.25,45 115,50"></polyline><polyline stroke="Black" stroke-width="0.5590169943749475" fill="None" points="110,50 108.75,45 110,41.25 105,41.25 100,36.25"></polyline><polyline stroke="Black" stroke-width="0.5590169943749475" fill="None" points="100,30 110,37.5 105,25"></polyline><polyline stroke="Black" stroke-width="0.5590169943749475" fill="None" points="115,25 112.5,32.5 110,25"></polyline><polyline stroke="Black" stroke-width="0.5590169943749475" fill="None" points="150,36.25 146.25,38.75 142.5,36.25 140,37.5 145,50"></polyline><polyline stroke="Black" stroke-width="0.5590169943749475" fill="None" points="150,30 146.25,35 142.5,33.75 140,33.75 141.25,30 140,25"></polyline><polyline stroke="Black" stroke-width="0.5590169943749475" fill="None" points="135,25 133.75,30 135,33.75 130,33.75 125,38.75"></polyline><polyline stroke="Black" stroke-width="0.5590169943749475" fill="None" points="125,45 135,37.5 130,50"></polyline><polyline stroke="Black" stroke-width="0.5590169943749475" fill="None" points="140,50 137.5,42.5 135,50"></polyline><polyline stroke="Black" stroke-width="0.5590169943749475" fill="None" points="150,61.25 153.75,63.75 157.5,61.25 160,62.5 155,75"></polyline><polyline stroke="Black" stroke-width="0.5590169943749475" fill="None" points="150,55 153.75,60 157.5,58.75 160,58.75 158.75,55 160,50"></polyline><polyline stroke="Black" stroke-width="0.5590169943749475" fill="None" points="165,50 166.25,55 165,58.75 170,58.75 175,63.75"></polyline><polyline stroke="Black" stroke-width="0.5590169943749475" fill="None" points="175,70 165,62.5 170,75"></polyline><polyline stroke="Black" stroke-width="0.5590169943749475" fill="None" points="160,75 162.5,67.5 165,75"></polyline><polyline stroke="Black" stroke-width="0.5590169943749475" fill="None" points="175,63.75 178.75,61.25 182.5,63.75 185,62.5 180,50"></polyline><polyline stroke="Black" stroke-width="0.5590169943749475" fill="None" points="175,70 178.75,65 182.5,66.25 185,66.25 183.75,70 185,75"></polyline><polyline stroke="Black" stroke-width="0.5590169943749475" fill="None" points="190,75 191.25,70 190,66.25 195,66.25 200,61.25"></polyline><polyline stroke="Black" stroke-width="0.5590169943749475" fill="None" points="200,55 190,62.5 195,50"></polyline><polyline stroke="Black" stroke-width="0.5590169943749475" fill="None" points="185,50 187.5,57.5 190,50"></polyline><polyline stroke="Black" stroke-width="0.5590169943749475" fill="None" points="175,88.75 171.25,86.25 167.5,88.75 165,87.5 170,75"></polyline><polyline stroke="Black" stroke-width="0.5590169943749475" fill="None" points="175,95 171.25,90 167.5,91.25 165,91.25 166.25,95 165,100"></polyline><polyline stroke="Black" stroke-width="0.5590169943749475" fill="None" points="160,100 158.75,95 160,91.25 155,91.25 150,86.25"></polyline><polyline stroke="Black" stroke-width="0.5590169943749475" fill="None" points="150,80 160,87.5 155,75"></polyline><polyline stroke="Black" stroke-width="0.5590169943749475" fill="None" points="165,75 162.5,82.5 160,75"></polyline><polyline stroke="Black" stroke-width="0.5590169943749475" fill="None" points="200,86.25 196.25,88.75 192.5,86.25 190,87.5 195,100"></polyline><polyline stroke="Black" stroke-width="0.5590169943749475" fill="None" points="200,80 196.25,85 192.5,83.75 190,83.75 191.25,80 190,75"></polyline><polyline stroke="Black" stroke-width="0.5590169943749475" fill="None" points="185,75 183.75,80 185,83.75 180,83.75 175,88.75"></polyline><polyline stroke="Black" stroke-width="0.5590169943749475" fill="None" points="175,95 185,87.5 180,100"></polyline><polyline stroke="Black" stroke-width="0.5590169943749475" fill="None" points="190,100 187.5,92.5 185,100"></polyline><polyline stroke="Black" stroke-width="0.5590169943749475" fill="None" points="0,111.25 3.75,113.75 7.5,111.25 10,112.5 5,125"></polyline><polyline stroke="Black" stroke-width="0.5590169943749475" fill="None" points="0,105 3.75,110 7.5,108.75 10,108.75 8.75,105 10,100"></polyline><polyline stroke="Black" stroke-width="0.5590169943749475" fill="None" points="15,100 16.25,105 15,108.75 20,108.75 25,113.75"></polyline><polyline stroke="Black" stroke-width="0.5590169943749475" fill="None" points="25,120 15,112.5 20,125"></polyline><polyline stroke="Black" stroke-width="0.5590169943749475" fill="None" points="10,125 12.5,117.5 15,125"></polyline><polyline stroke="Black" stroke-width="0.5590169943749475" fill="None" points="25,113.75 28.75,111.25 32.5,113.75 35,112.5 30,100"></polyline><polyline stroke="Black" stroke-width="0.5590169943749475" fill="None" points="25,120 28.75,115 32.5,116.25 35,116.25 33.75,120 35,125"></polyline><polyline stroke="Black" stroke-width="0.5590169943749475" fill="None" points="40,125 41.25,120 40,116.25 45,116.25 50,111.25"></polyline><polyline stroke="Black" stroke-width="0.5590169943749475" fill="None" points="50,105 40,112.5 45,100"></polyline><polyline stroke="Black" stroke-width="0.5590169943749475" fill="None" points="35,100 37.5,107.5 40,100"></polyline><polyline stroke="Black" stroke-width="0.5590169943749475" fill="None" points="25,138.75 21.25,136.25 17.5,138.75 15,137.5 20,125"></polyline><polyline stroke="Black" stroke-width="0.5590169943749475" fill="None" points="25,145 21.25,140 17.5,141.25 15,141.25 16.25,145 15,150"></polyline><polyline stroke="Black" stroke-width="0.5590169943749475" fill="None" points="10,150 8.75,145 10,141.25 5,141.25 0,136.25"></polyline><polyline stroke="Black" stroke-width="0.5590169943749475" fill="None" points="0,130 10,137.5 5,125"></polyline><polyline stroke="Black" stroke-width="0.5590169943749475" fill="None" points="15,125 12.5,132.5 10,125"></polyline><polyline stroke="Black" stroke-width="0.5590169943749475" fill="None" points="50,136.25 46.25,138.75 42.5,136.25 40,137.5 45,150"></polyline><polyline stroke="Black" stroke-width="0.5590169943749475" fill="None" points="50,130 46.25,135 42.5,133.75 40,133.75 41.25,130 40,125"></polyline><polyline stroke="Black" stroke-width="0.5590169943749475" fill="None" points="35,125 33.75,130 35,133.75 30,133.75 25,138.75"></polyline><polyline stroke="Black" stroke-width="0.5590169943749475" fill="None" points="25,145 35,137.5 30,150"></polyline><polyline stroke="Black" stroke-width="0.5590169943749475" fill="None" points="40,150 37.5,142.5 35,150"></polyline><polyline stroke="Black" stroke-width="0.5590169943749475" fill="None" points="50,161.25 53.75,163.75 57.5,161.25 60,162.5 55,175"></polyline><polyline stroke="Black" stroke-width="0.5590169943749475" fill="None" points="50,155 53.75,160 57.5,158.75 60,158.75 58.75,155 60,150"></polyline><polyline stroke="Black" stroke-width="0.5590169943749475" fill="None" points="65,150 66.25,155 65,158.75 70,158.75 75,163.75"></polyline><polyline stroke="Black" stroke-width="0.5590169943749475" fill="None" points="75,170 65,162.5 70,175"></polyline><polyline stroke="Black" stroke-width="0.5590169943749475" fill="None" points="60,175 62.5,167.5 65,175"></polyline><polyline stroke="Black" stroke-width="0.5590169943749475" fill="None" points="75,163.75 78.75,161.25 82.5,163.75 85,162.5 80,150"></polyline><polyline stroke="Black" stroke-width="0.5590169943749475" fill="None" points="75,170 78.75,165 82.5,166.25 85,166.25 83.75,170 85,175"></polyline><polyline stroke="Black" stroke-width="0.5590169943749475" fill="None" points="90,175 91.25,170 90,166.25 95,166.25 100,161.25"></polyline><polyline stroke="Black" stroke-width="0.5590169943749475" fill="None" points="100,155 90,162.5 95,150"></polyline><polyline stroke="Black" stroke-width="0.5590169943749475" fill="None" points="85,150 87.5,157.5 90,150"></polyline><polyline stroke="Black" stroke-width="0.5590169943749475" fill="None" points="75,188.75 71.25,186.25 67.5,188.75 65,187.5 70,175"></polyline><polyline stroke="Black" stroke-width="0.5590169943749475" fill="None" points="75,195 71.25,190 67.5,191.25 65,191.25 66.25,195 65,200"></polyline><polyline stroke="Black" stroke-width="0.5590169943749475" fill="None" points="60,200 58.75,195 60,191.25 55,191.25 50,186.25"></polyline><polyline stroke="Black" stroke-width="0.5590169943749475" fill="None" points="50,180 60,187.5 55,175"></polyline><polyline stroke="Black" stroke-width="0.5590169943749475" fill="None" points="65,175 62.5,182.5 60,175"></polyline><polyline stroke="Black" stroke-width="0.5590169943749475" fill="None" points="100,186.25 96.25,188.75 92.5,186.25 90,187.5 95,200"></polyline><polyline stroke="Black" stroke-width="0.5590169943749475" fill="None" points="100,180 96.25,185 92.5,183.75 90,183.75 91.25,180 90,175"></polyline><polyline stroke="Black" stroke-width="0.5590169943749475" fill="None" points="85,175 83.75,180 85,183.75 80,183.75 75,188.75"></polyline><polyline stroke="Black" stroke-width="0.5590169943749475" fill="None" points="75,195 85,187.5 80,200"></polyline><polyline stroke="Black" stroke-width="0.5590169943749475" fill="None" points="90,200 87.5,192.5 85,200"></polyline><polyline stroke="Black" stroke-width="0.5590169943749475" fill="None" points="100,111.25 103.75,113.75 107.5,111.25 110,112.5 105,125"></polyline><polyline stroke="Black" stroke-width="0.5590169943749475" fill="None" points="100,105 103.75,110 107.5,108.75 110,108.75 108.75,105 110,100"></polyline><polyline stroke="Black" stroke-width="0.5590169943749475" fill="None" points="115,100 116.25,105 115,108.75 120,108.75 125,113.75"></polyline><polyline stroke="Black" stroke-width="0.5590169943749475" fill="None" points="125,120 115,112.5 120,125"></polyline><polyline stroke="Black" stroke-width="0.5590169943749475" fill="None" points="110,125 112.5,117.5 115,125"></polyline><polyline stroke="Black" stroke-width="0.5590169943749475" fill="None" points="125,113.75 128.75,111.25 132.5,113.75 135,112.5 130,100"></polyline><polyline stroke="Black" stroke-width="0.5590169943749475" fill="None" points="125,120 128.75,115 132.5,116.25 135,116.25 133.75,120 135,125"></polyline><polyline stroke="Black" stroke-width="0.5590169943749475" fill="None" points="140,125 141.25,120 140,116.25 145,116.25 150,111.25"></polyline><polyline stroke="Black" stroke-width="0.5590169943749475" fill="None" points="150,105 140,112.5 145,100"></polyline><polyline stroke="Black" stroke-width="0.5590169943749475" fill="None" points="135,100 137.5,107.5 140,100"></polyline><polyline stroke="Black" stroke-width="0.5590169943749475" fill="None" points="125,138.75 121.25,136.25 117.5,138.75 115,137.5 120,125"></polyline><polyline stroke="Black" stroke-width="0.5590169943749475" fill="None" points="125,145 121.25,140 117.5,141.25 115,141.25 116.25,145 115,150"></polyline><polyline stroke="Black" stroke-width="0.5590169943749475" fill="None" points="110,150 108.75,145 110,141.25 105,141.25 100,136.25"></polyline><polyline stroke="Black" stroke-width="0.5590169943749475" fill="None" points="100,130 110,137.5 105,125"></polyline><polyline stroke="Black" stroke-width="0.5590169943749475" fill="None" points="115,125 112.5,132.5 110,125"></polyline><polyline stroke="Black" stroke-width="0.5590169943749475" fill="None" points="150,136.25 146.25,138.75 142.5,136.25 140,137.5 145,150"></polyline><polyline stroke="Black" stroke-width="0.5590169943749475" fill="None" points="150,130 146.25,135 142.5,133.75 140,133.75 141.25,130 140,125"></polyline><polyline stroke="Black" stroke-width="0.5590169943749475" fill="None" points="135,125 133.75,130 135,133.75 130,133.75 125,138.75"></polyline><polyline stroke="Black" stroke-width="0.5590169943749475" fill="None" points="125,145 135,137.5 130,150"></polyline><polyline stroke="Black" stroke-width="0.5590169943749475" fill="None" points="140,150 137.5,142.5 135,150"></polyline><polyline stroke="Black" stroke-width="0.5590169943749475" fill="None" points="150,161.25 153.75,163.75 157.5,161.25 160,162.5 155,175"></polyline><polyline stroke="Black" stroke-width="0.5590169943749475" fill="None" points="150,155 153.75,160 157.5,158.75 160,158.75 158.75,155 160,150"></polyline><polyline stroke="Black" stroke-width="0.5590169943749475" fill="None" points="165,150 166.25,155 165,158.75 170,158.75 175,163.75"></polyline><polyline stroke="Black" stroke-width="0.5590169943749475" fill="None" points="175,170 165,162.5 170,175"></polyline><polyline stroke="Black" stroke-width="0.5590169943749475" fill="None" points="160,175 162.5,167.5 165,175"></polyline><polyline stroke="Black" stroke-width="0.5590169943749475" fill="None" points="175,163.75 178.75,161.25 182.5,163.75 185,162.5 180,150"></polyline><polyline stroke="Black" stroke-width="0.5590169943749475" fill="None" points="175,170 178.75,165 182.5,166.25 185,166.25 183.75,170 185,175"></polyline><polyline stroke="Black" stroke-width="0.5590169943749475" fill="None" points="190,175 191.25,170 190,166.25 195,166.25 200,161.25"></polyline><polyline stroke="Black" stroke-width="0.5590169943749475" fill="None" points="200,155 190,162.5 195,150"></polyline><polyline stroke="Black" stroke-width="0.5590169943749475" fill="None" points="185,150 187.5,157.5 190,150"></polyline><polyline stroke="Black" stroke-width="0.5590169943749475" fill="None" points="175,188.75 171.25,186.25 167.5,188.75 165,187.5 170,175"></polyline><polyline stroke="Black" stroke-width="0.5590169943749475" fill="None" points="175,195 171.25,190 167.5,191.25 165,191.25 166.25,195 165,200"></polyline><polyline stroke="Black" stroke-width="0.5590169943749475" fill="None" points="160,200 158.75,195 160,191.25 155,191.25 150,186.25"></polyline><polyline stroke="Black" stroke-width="0.5590169943749475" fill="None" points="150,180 160,187.5 155,175"></polyline><polyline stroke="Black" stroke-width="0.5590169943749475" fill="None" points="165,175 162.5,182.5 160,175"></polyline><polyline stroke="Black" stroke-width="0.5590169943749475" fill="None" points="200,186.25 196.25,188.75 192.5,186.25 190,187.5 195,200"></polyline><polyline stroke="Black" stroke-width="0.5590169943749475" fill="None" points="200,180 196.25,185 192.5,183.75 190,183.75 191.25,180 190,175"></polyline><polyline stroke="Black" stroke-width="0.5590169943749475" fill="None" points="185,175 183.75,180 185,183.75 180,183.75 175,188.75"></polyline><polyline stroke="Black" stroke-width="0.5590169943749475" fill="None" points="175,195 185,187.5 180,200"></polyline><polyline stroke="Black" stroke-width="0.5590169943749475" fill="None" points="190,200 187.5,192.5 185,200"></polyline></svg>