<?xml version="1.0" encoding="UTF-8" standalone="no"?>
<svg version="1.1" x="0" y="0" width="200" height="200" style="background-color: white" xmlns="http://www.w3.org/2000/svg"><polyline stroke="Black" stroke-width="1.118033988749895" fill="None" points="0,45 15,55 30,45 40,50 20,100"></polyline><polyline stroke="Black" stroke-width="1.118033988749895" fill="None" points="0,20 15,40 30,35 40,35 35,20 40,0"></polyline><polyline stroke="Black" stroke-width="1.118033988749895" fill="None" points="60,0 65,20 60,35 80,35 100,55"></polyline><polyline stroke="Black" stroke-width="1.118033988749895" fill="None" points="100,80 60,50 80,100"></polyline><polyline stroke="Black" stroke-width="1.118033988749895" fill="None" points="40,100 50,70 60,100"></polyline><polyline stroke="Black" stroke-width="1.118033988749895" fill="None" points="100,55 115,45 130,55 140,50 120,0"></polyline><polyline stroke="Black" stroke-width="1.118033988749895" fill="None" points="100,80 115,60 130,65 140,65 135,80 140,100"></polyline><polyline stroke="Black" stroke-width="1.118033988749895" fill="None" points="160,100 165,80 160,65 180,65 200,45"></polyline><polyline stroke="Black" stroke-width="1.118033988749895" fill="None" points="200,20 160,50 180,0"></polyline><polyline stroke="Black" stroke-width="1.118033988749895" fill="None" points="140,0 150,30 160,0"></polyline><polyline stroke="Black" stroke-width="1.118033988749895" fill="None" points="100,155 85,145 70,155 60,150 80,100"></polyline><polyline stroke="Black" stroke-width="1.118033988749895" fill="None" points="100,180 85,160 70,165 60,165 65,180 60,200"></polyline><polyline stroke="Black" stroke-width="1.118033988749895" fill="None" points="40,200 35,180 40,165 20,165 0,145"></polyline><polyline stroke="Black" stroke-width="1.118033988749895" fill="None" points="0,120 40,150 20,100"></polyline><polyline stroke="Black" stroke-width="1.118033988749895" fill="None" points="60,100 50,130 40,100"></polyline><polyline stroke="Black" stroke-width="1.118033988749895" fill="None" points="200,145 185,155 170,145 160,150 180,200"></polyline><polyline stroke="Black" stroke-width="1.118033988749895" fill="None" points="200,120 185,140 170,135 160,135 165,120 160,100"></polyline><polyline stroke="Black" stroke-width="1.118033988749895" fill="None" points="140,100 135,120 140,135 120,135 100,155"></polyline><polyline stroke="Black" stroke-width="1.118033988749895" fill="None" points="100,180 140,150 120,200"></polyline><polyline stroke="Black" stroke-width="1.118033988749895" fill="None" points="160,200 150,170 140,200"></polyline></svg>