<?xml version="1.0" encoding="UTF-8" standalone="no"?>
<svg version="1.1" x="0" y="0" width="226" height="232" style="background-color: white" xmlns="http://www.w3.org/2000/svg"><defs><marker id="a-arrow" markerWidth="10" markerHeight="10" refX="9" refY="3" orient="auto" markerUnits="strokeWidth"><path d="M0,0 L0,6 L9,3 z" fill="#f00"></path></marker><marker id="b-arrow" markerWidth="10" markerHeight="10" refX="9" refY="3" orient="auto" markerUnits="strokeWidth"><path d="M0,0 L0,6 L9,3 z" fill="#FF8C00"></path></marker><marker id="c-arrow" markerWidth="10" markerHeight="10" refX="9" refY="3" orient="auto" markerUnits="strokeWidth"><path d="M0,0 L0,6 L9,3 z" fill="#9932CC"></path></marker></defs><path stroke="Black" stroke-width="1.1152354011597732" fill="None" d="M42.65100000000001 188.458 C 83.14750000000001 174.13, 86.82900000000001 167.165, 104.739 118.9075"></path><path stroke="Black" stroke-width="1.1152354011597732" fill="None" d="M109.316 143.882 C 106.928 127.365, 108.321 117.01700000000001, 112.5 100.5"></path><path stroke="Black" stroke-width="1.1152354011597732" fill="None" d="M87.625 175.125 C 93.197 162.986, 99.366 155.026, 109.316 143.882"></path><path stroke="Black" stroke-width="1.1152354011597732" fill="None" d="M112.5 200 C 101.555 189.055, 95.0875 182.5875, 87.625 175.125"></path><path stroke="Black" stroke-width="1.1152354011597732" fill="None" d="M87.625 224.875 C 97.575 214.925, 103.545 208.95499999999998, 112.5 200"></path><path stroke="Black" stroke-width="1.1152354011597732" fill="None" d="M87.625 224.875 C 75.48599999999999 219.303, 67.526 213.13400000000001, 56.382000000000005 203.184"></path><path stroke="Black" stroke-width="1.1152354011597732" fill="None" d="M56.382000000000005 203.184 C 77.17750000000001 194.5275, 79.66499999999999 192.04, 87.625 175.125"></path><path stroke="Black" stroke-width="1.1152354011597732" fill="None" d="M56.382000000000005 203.184 C 39.864999999999995 205.572, 29.51700000000001 204.179, 13 200"></path><path stroke="Black" stroke-width="1.1152354011597732" fill="None" d="M13 200 C 19.16900000000001 189.652, 23.646500000000003 183.7815, 33.09899999999999 176.71699999999998"></path><path stroke="Black" stroke-width="1.1152354011597732" fill="None" d="M33.09899999999999 176.71699999999998 C 47.825 163.38400000000001, 58.769999999999996 176.916, 74.9885 162.4885"></path><path stroke="Black" stroke-width="1.1152354011597732" fill="None" d="M74.9885 162.4885 C 77.67500000000001 160.2, 82.65 155.225, 87.625 150.25"></path><path stroke="Black" stroke-width="1.1152354011597732" fill="None" d="M87.625 150.25 C 90.9085 141.3945, 91.804 134.32999999999998, 92.401 123.783"></path><path stroke="Black" stroke-width="1.1152354011597732" fill="None" d="M92.401 123.783 C 101.8535 116.7185, 106.331 110.848, 112.5 100.5"></path><path stroke="Black" stroke-width="1.1152354011597732" fill="None" d="M33.09899999999999 176.71699999999998 C 33.696 166.17, 34.591499999999996 159.1055, 37.875 150.25"></path><path stroke="Black" stroke-width="1.1152354011597732" fill="None" d="M37.875 150.25 C 50.3125 150.25, 55.2875 150.25, 62.75 150.25"></path><path stroke="Black" stroke-width="1.1152354011597732" fill="None" d="M62.75 150.25 C 66.72999999999999 154.23, 71.70500000000001 159.205, 74.9885 162.4885"></path><path stroke="Black" stroke-width="1.1152354011597732" fill="None" d="M41.855000000000004 168.6575 C 39.666 162.389, 40.263000000000005 157.613, 43.646 151.5435"></path><path stroke="Black" stroke-width="1.1152354011597732" fill="None" d="M52.3025 166.17 C 48.620999999999995 160.2, 48.12349999999999 156.7175, 50.213 151.3445"></path><path stroke="Black" stroke-width="1.1152354011597732" fill="None" d="M62.551 165.374 C 56.382000000000005 160.2, 55.984 158.011, 56.481500000000004 151.3445"></path><path stroke="Black" stroke-width="1.1152354011597732" fill="None" d="M70.90899999999999 155.1255 C 72.69999999999999 153.7325, 74.1925 152.24, 74.59049999999999 151.245"></path><path stroke="Black" stroke-width="1.1152354011597732" fill="None" d="M73.894 158.1105 C 77.67500000000001 156.22, 79.16749999999999 154.7275, 80.1625 151.046"></path><path stroke="Black" stroke-width="1.1152354011597732" fill="None" d="M88.9185 216.915 C 77.17750000000001 212.4375, 72.2025 206.4675, 69.118 199.801"></path><path stroke="Black" stroke-width="1.1152354011597732" fill="None" d="M93.794 212.0395 C 82.65 205.97, 79.66499999999999 202.985, 75.1875 196.02"></path><path stroke="Black" stroke-width="1.1152354011597732" fill="None" d="M100.0625 205.77100000000002 C 88.62 200.995, 84.64 197.015, 80.56049999999999 190.05"></path><path stroke="Black" stroke-width="1.1152354011597732" fill="None" d="M106.2315 202.189 C 92.6 194.03, 88.62 190.05, 84.441 184.07999999999998"></path><path stroke="Black" stroke-width="1.1152354011597732" fill="None" d="M47.028999999999996 194.7265 C 45.13849999999999 192.5375, 44.14349999999999 191.5425, 42.85000000000001 190.249"></path><path stroke="Black" stroke-width="1.1152354011597732" fill="None" d="M47.028999999999996 194.7265 C 41.855000000000004 195.821, 36.879999999999995 195.821, 31.009500000000003 194.7265"></path><path stroke="Black" stroke-width="1.1152354011597732" fill="None" d="M31.009500000000003 194.7265 C 31.70599999999999 191.5425, 37.676 190.846, 42.85000000000001 190.249"></path><path stroke="Black" stroke-width="1.1152354011597732" fill="None" d="M41.059 187.065 C 39.864999999999995 185.075, 38.3725 182.5875, 37.676 181.39350000000002"></path><path stroke="Black" stroke-width="1.1152354011597732" fill="None" d="M41.059 187.065 C 33.397499999999994 189.055, 31.905 189.055, 28.4225 188.856"></path><path stroke="Black" stroke-width="1.1152354011597732" fill="None" d="M28.4225 188.856 C 32.40249999999999 185.075, 34.89 182.886, 37.676 181.39350000000002"></path><path stroke="Black" stroke-width="0.9377974509992915" fill="None" d="M22.054500000000004 121.0965 C 35.13875 148.50875000000002, 33.497 153.832, 18.32325 186.91575"></path><path stroke="Black" stroke-width="0.9377974509992915" fill="None" d="M33.099000000000004 176.71699999999998 C 23.646499999999996 183.7815, 19.169000000000004 189.652, 13 200"></path><path stroke="Black" stroke-width="0.9377974509992915" fill="None" d="M37.875 150.25 C 34.591499999999996 159.1055, 33.696 166.17000000000002, 33.099000000000004 176.71699999999998"></path><path stroke="Black" stroke-width="0.9377974509992915" fill="None" d="M62.75 150.25 C 51.805 150.25, 45.337500000000006 150.25, 37.875 150.25"></path><path stroke="Black" stroke-width="0.9377974509992915" fill="None" d="M62.75 125.375 C 62.75 135.325, 62.75 141.29500000000002, 62.75 150.25"></path><path stroke="Black" stroke-width="0.9377974509992915" fill="None" d="M62.75 125.375 C 53.8945 122.0915, 46.83 121.196, 36.283 120.599"></path><path stroke="Black" stroke-width="0.9377974509992915" fill="None" d="M36.283 120.599 C 42.3525 135.325, 42.3525 137.8125, 37.875 150.25"></path><path stroke="Black" stroke-width="0.9377974509992915" fill="None" d="M36.283 120.599 C 29.2185 111.1465, 23.348000000000006 106.66900000000001, 13 100.5"></path><path stroke="Black" stroke-width="0.9377974509992915" fill="None" d="M13 100.5 C 10.910500000000006 108.7585, 10.213999999999999 113.9325, 11.407999999999994 122.191"></path><path stroke="Black" stroke-width="0.9377974509992915" fill="None" d="M11.407999999999994 122.191 C 12.104500000000002 136.22050000000002, 24.342999999999996 134.927, 25.238500000000002 150.25"></path><path stroke="Black" stroke-width="0.9377974509992915" fill="None" d="M25.238500000000002 150.25 C 25.4375 152.7375, 25.4375 157.7125, 25.4375 162.6875"></path><path stroke="Black" stroke-width="0.9377974509992915" fill="None" d="M25.4375 162.6875 C 22.6515 168.757, 19.567 172.737, 14.591999999999999 178.309"></path><path stroke="Black" stroke-width="0.9377974509992915" fill="None" d="M14.591999999999999 178.309 C 15.786000000000001 186.5675, 15.089500000000001 191.7415, 13 200"></path><path stroke="Black" stroke-width="0.9377974509992915" fill="None" d="M11.407999999999994 122.191 C 6.432999999999993 127.763, 3.3485000000000014 131.743, 0.5625 137.8125"></path><path stroke="Black" stroke-width="0.9377974509992915" fill="None" d="M0.5625 137.8125 C 6.78125 144.03125, 9.268749999999997 146.51875, 13 150.25"></path><path stroke="Black" stroke-width="0.9377974509992915" fill="None" d="M13 150.25 C 16.979999999999997 150.25, 21.955000000000005 150.25, 25.238500000000002 150.25"></path><path stroke="Black" stroke-width="0.9377974509992915" fill="None" d="M11.756250000000001 130.59875 C 7.527500000000003 132.6385, 5.438000000000002 135.325, 4.094750000000005 140.05124999999998"></path><path stroke="Black" stroke-width="0.9377974509992915" fill="None" d="M15.736249999999998 137.06625 C 10.910499999999999 138.2105, 8.920499999999997 139.703, 7.278750000000002 143.43425"></path><path stroke="Black" stroke-width="0.9377974509992915" fill="None" d="M20.462500000000006 142.5885 C 14.790999999999997 142.091, 13.497500000000002 142.9865, 10.413000000000004 146.5685"></path><path stroke="Black" stroke-width="0.9377974509992915" fill="None" d="M19.517249999999997 151.89175 C 19.716249999999995 153.48375, 19.716250000000002 154.97625, 19.417749999999998 155.67275"></path><path stroke="Black" stroke-width="0.9377974509992915" fill="None" d="M22.502250000000004 151.89175 C 23.447500000000005 154.72750000000002, 23.447499999999998 156.22, 22.10425 158.55825"></path><path stroke="Black" stroke-width="0.9377974509992915" fill="None" d="M59.41675 130.00175000000002 C 51.307500000000005 126.37, 45.835 126.8675, 40.959500000000006 128.6585"></path><path stroke="Black" stroke-width="0.9377974509992915" fill="None" d="M59.41675 134.87725 C 50.81 132.34, 47.825 132.34, 42.103750000000005 133.58375"></path><path stroke="Black" stroke-width="0.9377974509992915" fill="None" d="M59.41675 141.14575 C 51.307500000000005 137.8125, 47.3275 137.8125, 41.80525 139.25525"></path><path stroke="Black" stroke-width="0.9377974509992915" fill="None" d="M60.71025 146.02125 C 49.815 143.285, 45.835 143.285, 40.7605 144.1805"></path><path stroke="Black" stroke-width="0.9377974509992915" fill="None" d="M27.37775 120.15125 C 25.337999999999994 120.3005, 24.342999999999996 120.3005, 23.049500000000002 120.3005"></path><path stroke="Black" stroke-width="0.9377974509992915" fill="None" d="M27.37775 120.15125 C 25.338 117.017, 22.850499999999997 114.5295, 19.368000000000002 112.14150000000001"></path><path stroke="Black" stroke-width="0.9377974509992915" fill="None" d="M19.368000000000002 112.14150000000001 C 18.124249999999996 114.08175, 20.761000000000003 117.41499999999999, 23.049500000000002 120.3005"></path><path stroke="Black" stroke-width="0.9377974509992915" fill="None" d="M20.561999999999998 120.997 C 18.97 121.395, 16.980000000000004 121.8925, 16.034750000000003 122.14125"></path><path stroke="Black" stroke-width="0.9377974509992915" fill="None" d="M20.561999999999998 120.997 C 17.726249999999993 116.17125, 16.980000000000004 115.425, 15.139249999999997 113.78325000000001"></path><path stroke="Black" stroke-width="0.9377974509992915" fill="None" d="M15.139249999999997 113.78325000000001 C 15.238749999999996 117.66375, 15.388000000000005 120.002, 16.034750000000003 122.14125"></path><path stroke="Black" stroke-width="0.9377974509992915" fill="None" d="M91.9035 109.5545 C 64.49125 122.63875, 59.168 120.997, 26.084249999999997 105.82325"></path><path stroke="Black" stroke-width="0.9377974509992915" fill="None" d="M36.283 120.599 C 29.2185 111.1465, 23.348000000000006 106.66900000000001, 13 100.5"></path><path stroke="Black" stroke-width="0.9377974509992915" fill="None" d="M62.75 125.375 C 53.8945 122.0915, 46.83 121.196, 36.283 120.599"></path><path stroke="Black" stroke-width="0.9377974509992915" fill="None" d="M62.75 150.25 C 62.75 139.305, 62.75 132.8375, 62.75 125.375"></path><path stroke="Black" stroke-width="0.9377974509992915" fill="None" d="M87.625 150.25 C 77.675 150.25, 71.705 150.25, 62.75 150.25"></path><path stroke="Black" stroke-width="0.9377974509992915" fill="None" d="M87.625 150.25 C 90.9085 141.3945, 91.804 134.32999999999998, 92.401 123.783"></path><path stroke="Black" stroke-width="0.9377974509992915" fill="None" d="M92.401 123.783 C 77.675 129.8525, 75.1875 129.8525, 62.75 125.375"></path><path stroke="Black" stroke-width="0.9377974509992915" fill="None" d="M92.401 123.783 C 101.8535 116.7185, 106.33099999999999 110.84800000000001, 112.5 100.5"></path><path stroke="Black" stroke-width="0.9377974509992915" fill="None" d="M112.5 100.5 C 104.2415 98.41050000000001, 99.0675 97.714, 90.809 98.90799999999999"></path><path stroke="Black" stroke-width="0.9377974509992915" fill="None" d="M90.809 98.90799999999999 C 76.7795 99.6045, 78.07300000000001 111.84299999999999, 62.75 112.7385"></path><path stroke="Black" stroke-width="0.9377974509992915" fill="None" d="M62.75 112.7385 C 60.262499999999996 112.9375, 55.2875 112.9375, 50.3125 112.9375"></path><path stroke="Black" stroke-width="0.9377974509992915" fill="None" d="M50.3125 112.9375 C 44.243 110.1515, 40.263 107.06700000000001, 34.691 102.09199999999998"></path><path stroke="Black" stroke-width="0.9377974509992915" fill="None" d="M34.691 102.09199999999998 C 26.432500000000005 103.286, 21.258499999999998 102.58949999999999, 13 100.5"></path><path stroke="Black" stroke-width="0.9377974509992915" fill="None" d="M90.809 98.90799999999999 C 85.237 93.93299999999999, 81.257 90.8485, 75.1875 88.0625"></path><path stroke="Black" stroke-width="0.9377974509992915" fill="None" d="M75.1875 88.0625 C 68.96875 94.28125, 66.48125 96.76875000000001, 62.75 100.5"></path><path stroke="Black" stroke-width="0.9377974509992915" fill="None" d="M62.75 100.5 C 62.75 104.47999999999999, 62.75 109.45500000000001, 62.75 112.7385"></path><path stroke="Black" stroke-width="0.9377974509992915" fill="None" d="M82.40125 99.25625 C 80.3615 95.0275, 77.675 92.93799999999999, 72.94875 91.59475"></path><path stroke="Black" stroke-width="0.9377974509992915" fill="None" d="M75.93375 103.23624999999998 C 74.7895 98.41050000000001, 73.297 96.4205, 69.56575000000001 94.77875"></path><path stroke="Black" stroke-width="0.9377974509992915" fill="None" d="M70.4115 107.9625 C 70.90899999999999 102.291, 70.0135 100.9975, 66.4315 97.91300000000001"></path><path stroke="Black" stroke-width="0.9377974509992915" fill="None" d="M61.10825 107.01724999999999 C 59.51625 107.21625, 58.02375 107.21625, 57.32725 106.91775"></path><path stroke="Black" stroke-width="0.9377974509992915" fill="None" d="M61.10825 110.00225 C 58.272499999999994 110.9475, 56.78 110.94749999999999, 54.44175 109.60425000000001"></path><path stroke="Black" stroke-width="0.9377974509992915" fill="None" d="M82.99825 146.91675 C 86.63 138.8075, 86.1325 133.335, 84.3415 128.4595"></path><path stroke="Black" stroke-width="0.9377974509992915" fill="None" d="M78.12275 146.91675 C 80.66 138.31, 80.66 135.325, 79.41625 129.60375"></path><path stroke="Black" stroke-width="0.9377974509992915" fill="None" d="M71.85425000000001 146.91674999999998 C 75.1875 138.8075, 75.1875 134.8275, 73.74475 129.30525"></path><path stroke="Black" stroke-width="0.9377974509992915" fill="None" d="M66.97875 148.21025 C 69.715 137.315, 69.715 133.335, 68.8195 128.2605"></path><path stroke="Black" stroke-width="0.9377974509992915" fill="None" d="M92.84875 114.87774999999999 C 92.6995 112.838, 92.6995 111.84299999999999, 92.6995 110.5495"></path><path stroke="Black" stroke-width="0.9377974509992915" fill="None" d="M92.84875 114.87774999999999 C 95.983 112.838, 98.4705 110.3505, 100.85849999999999 106.868"></path><path stroke="Black" stroke-width="0.9377974509992915" fill="None" d="M100.85849999999999 106.868 C 98.91825 105.62424999999999, 95.58500000000001 108.261, 92.6995 110.5495"></path><path stroke="Black" stroke-width="0.9377974509992915" fill="None" d="M92.003 108.062 C 91.605 106.47, 91.1075 104.48, 90.85875 103.53475"></path><path stroke="Black" stroke-width="0.9377974509992915" fill="None" d="M92.003 108.062 C 96.82875 105.22625, 97.575 104.48, 99.21674999999999 102.63925"></path><path stroke="Black" stroke-width="0.9377974509992915" fill="None" d="M99.21674999999999 102.63925 C 95.33625 102.73874999999998, 92.998 102.888, 90.85875 103.53475"></path><path stroke="Black" stroke-width="1.1152354011597732" fill="None" d="M124.042 130.151 C 138.37 170.6475, 145.335 174.329, 193.5925 192.239"></path><path stroke="Black" stroke-width="1.1152354011597732" fill="None" d="M168.618 196.816 C 185.135 194.428, 195.483 195.821, 212 200"></path><path stroke="Black" stroke-width="1.1152354011597732" fill="None" d="M137.375 175.125 C 149.514 180.697, 157.474 186.86599999999999, 168.618 196.816"></path><path stroke="Black" stroke-width="1.1152354011597732" fill="None" d="M112.5 200 C 123.445 189.055, 129.9125 182.5875, 137.375 175.125"></path><path stroke="Black" stroke-width="1.1152354011597732" fill="None" d="M87.625 175.125 C 97.575 185.075, 103.545 191.04500000000002, 112.5 200"></path><path stroke="Black" stroke-width="1.1152354011597732" fill="None" d="M87.625 175.125 C 93.197 162.986, 99.366 155.026, 109.316 143.882"></path><path stroke="Black" stroke-width="1.1152354011597732" fill="None" d="M109.316 143.882 C 117.9725 164.6775, 120.46 167.165, 137.375 175.125"></path><path stroke="Black" stroke-width="1.1152354011597732" fill="None" d="M109.316 143.882 C 106.928 127.365, 108.321 117.01700000000001, 112.5 100.5"></path><path stroke="Black" stroke-width="1.1152354011597732" fill="None" d="M112.5 100.5 C 122.848 106.66900000000001, 128.7185 111.1465, 135.78300000000002 120.59899999999999"></path><path stroke="Black" stroke-width="1.1152354011597732" fill="None" d="M135.78300000000002 120.59899999999999 C 149.11599999999999 135.325, 135.584 146.26999999999998, 150.0115 162.4885"></path><path stroke="Black" stroke-width="1.1152354011597732" fill="None" d="M150.0115 162.4885 C 152.3 165.175, 157.275 170.15, 162.25 175.125"></path><path stroke="Black" stroke-width="1.1152354011597732" fill="None" d="M162.25 175.125 C 171.1055 178.4085, 178.17000000000002 179.304, 188.71699999999998 179.901"></path><path stroke="Black" stroke-width="1.1152354011597732" fill="None" d="M188.71699999999998 179.901 C 195.7815 189.3535, 201.652 193.83100000000002, 212 200"></path><path stroke="Black" stroke-width="1.1152354011597732" fill="None" d="M135.78300000000002 120.59899999999999 C 146.33 121.196, 153.3945 122.0915, 162.25 125.375"></path><path stroke="Black" stroke-width="1.1152354011597732" fill="None" d="M162.25 125.375 C 162.25 137.8125, 162.25 142.7875, 162.25 150.25"></path><path stroke="Black" stroke-width="1.1152354011597732" fill="None" d="M162.25 150.25 C 158.27 154.23, 153.295 159.205, 150.0115 162.4885"></path><path stroke="Black" stroke-width="1.1152354011597732" fill="None" d="M143.8425 129.35500000000002 C 150.111 127.166, 154.887 127.763, 160.9565 131.14600000000002"></path><path stroke="Black" stroke-width="1.1152354011597732" fill="None" d="M146.33 139.8025 C 152.3 136.12099999999998, 155.7825 135.62349999999998, 161.1555 137.713"></path><path stroke="Black" stroke-width="1.1152354011597732" fill="None" d="M147.126 150.051 C 152.3 143.882, 154.489 143.484, 161.1555 143.9815"></path><path stroke="Black" stroke-width="1.1152354011597732" fill="None" d="M157.3745 158.409 C 158.7675 160.2, 160.26 161.6925, 161.255 162.0905"></path><path stroke="Black" stroke-width="1.1152354011597732" fill="None" d="M154.3895 161.394 C 156.28 165.175, 157.7725 166.6675, 161.454 167.6625"></path><path stroke="Black" stroke-width="1.1152354011597732" fill="None" d="M95.585 176.4185 C 100.0625 164.6775, 106.0325 159.7025, 112.699 156.618"></path><path stroke="Black" stroke-width="1.1152354011597732" fill="None" d="M100.4605 181.29399999999998 C 106.53 170.15, 109.515 167.165, 116.48 162.6875"></path><path stroke="Black" stroke-width="1.1152354011597732" fill="None" d="M106.729 187.5625 C 111.505 176.12, 115.485 172.14, 122.45 168.0605"></path><path stroke="Black" stroke-width="1.1152354011597732" fill="None" d="M110.311 193.73149999999998 C 118.47 180.1, 122.45 176.12, 128.42 171.941"></path><path stroke="Black" stroke-width="1.1152354011597732" fill="None" d="M117.7735 134.529 C 119.9625 132.6385, 120.9575 131.6435, 122.251 130.35000000000002"></path><path stroke="Black" stroke-width="1.1152354011597732" fill="None" d="M117.7735 134.529 C 116.679 129.35500000000002, 116.679 124.38, 117.7735 118.5095"></path><path stroke="Black" stroke-width="1.1152354011597732" fill="None" d="M117.7735 118.5095 C 120.9575 119.20599999999999, 121.654 125.176, 122.251 130.35000000000002"></path><path stroke="Black" stroke-width="1.1152354011597732" fill="None" d="M125.435 128.559 C 127.425 127.365, 129.9125 125.8725, 131.1065 125.176"></path><path stroke="Black" stroke-width="1.1152354011597732" fill="None" d="M125.435 128.559 C 123.445 120.8975, 123.445 119.405, 123.644 115.9225"></path><path stroke="Black" stroke-width="1.1152354011597732" fill="None" d="M123.644 115.9225 C 127.425 119.90249999999999, 129.614 122.39, 131.1065 125.176"></path><path stroke="Black" stroke-width="0.9377974509992915" fill="None" d="M191.4035 109.5545 C 163.99125 122.63875, 158.668 120.997, 125.58425 105.82325"></path><path stroke="Black" stroke-width="0.9377974509992915" fill="None" d="M135.78300000000002 120.599 C 128.7185 111.1465, 122.84800000000001 106.66900000000001, 112.5 100.5"></path><path stroke="Black" stroke-width="0.9377974509992915" fill="None" d="M162.25 125.375 C 153.3945 122.0915, 146.32999999999998 121.196, 135.78300000000002 120.599"></path><path stroke="Black" stroke-width="0.9377974509992915" fill="None" d="M162.25 150.25 C 162.25 139.305, 162.25 132.8375, 162.25 125.375"></path><path stroke="Black" stroke-width="0.9377974509992915" fill="None" d="M187.125 150.25 C 177.175 150.25, 171.205 150.25, 162.25 150.25"></path><path stroke="Black" stroke-width="0.9377974509992915" fill="None" d="M187.125 150.25 C 190.4085 141.3945, 191.304 134.32999999999998, 191.901 123.783"></path><path stroke="Black" stroke-width="0.9377974509992915" fill="None" d="M191.901 123.783 C 177.175 129.8525, 174.6875 129.8525, 162.25 125.375"></path><path stroke="Black" stroke-width="0.9377974509992915" fill="None" d="M191.901 123.783 C 201.3535 116.7185, 205.831 110.84800000000001, 212 100.5"></path><path stroke="Black" stroke-width="0.9377974509992915" fill="None" d="M212 100.5 C 203.7415 98.41050000000001, 198.5675 97.714, 190.309 98.90799999999999"></path><path stroke="Black" stroke-width="0.9377974509992915" fill="None" d="M190.309 98.90799999999999 C 176.27949999999998 99.6045, 177.573 111.84299999999999, 162.25 112.7385"></path><path stroke="Black" stroke-width="0.9377974509992915" fill="None" d="M162.25 112.7385 C 159.7625 112.9375, 154.7875 112.9375, 149.8125 112.9375"></path><path stroke="Black" stroke-width="0.9377974509992915" fill="None" d="M149.8125 112.9375 C 143.743 110.1515, 139.763 107.06700000000001, 134.191 102.09199999999998"></path><path stroke="Black" stroke-width="0.9377974509992915" fill="None" d="M134.191 102.09199999999998 C 125.9325 103.286, 120.7585 102.58949999999999, 112.5 100.5"></path><path stroke="Black" stroke-width="0.9377974509992915" fill="None" d="M190.309 98.90799999999999 C 184.737 93.93299999999999, 180.757 90.8485, 174.6875 88.0625"></path><path stroke="Black" stroke-width="0.9377974509992915" fill="None" d="M174.6875 88.0625 C 168.46875 94.28125, 165.98125 96.76875000000001, 162.25 100.5"></path><path stroke="Black" stroke-width="0.9377974509992915" fill="None" d="M162.25 100.5 C 162.25 104.47999999999999, 162.25 109.45500000000001, 162.25 112.7385"></path><path stroke="Black" stroke-width="0.9377974509992915" fill="None" d="M181.90125 99.25625 C 179.8615 95.0275, 177.175 92.93799999999999, 172.44875 91.59475"></path><path stroke="Black" stroke-width="0.9377974509992915" fill="None" d="M175.43375 103.23624999999998 C 174.2895 98.41050000000001, 172.797 96.4205, 169.06575 94.77875"></path><path stroke="Black" stroke-width="0.9377974509992915" fill="None" d="M169.9115 107.9625 C 170.409 102.291, 169.5135 100.9975, 165.9315 97.91300000000001"></path><path stroke="Black" stroke-width="0.9377974509992915" fill="None" d="M160.60825 107.01724999999999 C 159.01625 107.21625, 157.52375 107.21625, 156.82725 106.91775"></path><path stroke="Black" stroke-width="0.9377974509992915" fill="None" d="M160.60825 110.00225 C 157.7725 110.9475, 156.28 110.94749999999999, 153.94175 109.60425000000001"></path><path stroke="Black" stroke-width="0.9377974509992915" fill="None" d="M182.49824999999998 146.91675 C 186.13 138.8075, 185.6325 133.335, 183.8415 128.4595"></path><path stroke="Black" stroke-width="0.9377974509992915" fill="None" d="M177.62275 146.91675 C 180.16 138.31, 180.16 135.325, 178.91625 129.60375"></path><path stroke="Black" stroke-width="0.9377974509992915" fill="None" d="M171.35425 146.91674999999998 C 174.6875 138.8075, 174.6875 134.8275, 173.24475 129.30525"></path><path stroke="Black" stroke-width="0.9377974509992915" fill="None" d="M166.47875 148.21025 C 169.215 137.315, 169.215 133.335, 168.3195 128.2605"></path><path stroke="Black" stroke-width="0.9377974509992915" fill="None" d="M192.34875 114.87774999999999 C 192.1995 112.838, 192.1995 111.84299999999999, 192.1995 110.5495"></path><path stroke="Black" stroke-width="0.9377974509992915" fill="None" d="M192.34875 114.87774999999999 C 195.483 112.838, 197.97050000000002 110.3505, 200.3585 106.868"></path><path stroke="Black" stroke-width="0.9377974509992915" fill="None" d="M200.3585 106.868 C 198.41825 105.62424999999999, 195.085 108.261, 192.1995 110.5495"></path><path stroke="Black" stroke-width="0.9377974509992915" fill="None" d="M191.503 108.062 C 191.10500000000002 106.47, 190.60750000000002 104.48, 190.35875 103.53475"></path><path stroke="Black" stroke-width="0.9377974509992915" fill="None" d="M191.503 108.062 C 196.32875 105.22625, 197.075 104.48, 198.71675 102.63925"></path><path stroke="Black" stroke-width="0.9377974509992915" fill="None" d="M198.71675 102.63925 C 194.83625 102.73874999999998, 192.498 102.888, 190.35875 103.53475"></path><path stroke="Black" stroke-width="0.9377974509992915" fill="None" d="M202.94549999999998 179.4035 C 189.86124999999998 151.99124999999998, 191.503 146.668, 206.67675 113.58425"></path><path stroke="Black" stroke-width="0.9377974509992915" fill="None" d="M191.901 123.783 C 201.3535 116.7185, 205.831 110.84800000000001, 212 100.5"></path><path stroke="Black" stroke-width="0.9377974509992915" fill="None" d="M187.125 150.25 C 190.4085 141.3945, 191.304 134.32999999999998, 191.901 123.783"></path><path stroke="Black" stroke-width="0.9377974509992915" fill="None" d="M162.25 150.25 C 173.195 150.25, 179.6625 150.25, 187.125 150.25"></path><path stroke="Black" stroke-width="0.9377974509992915" fill="None" d="M162.25 175.125 C 162.25 165.175, 162.25 159.20499999999998, 162.25 150.25"></path><path stroke="Black" stroke-width="0.9377974509992915" fill="None" d="M162.25 175.125 C 171.1055 178.4085, 178.17000000000002 179.304, 188.71699999999998 179.901"></path><path stroke="Black" stroke-width="0.9377974509992915" fill="None" d="M188.71699999999998 179.901 C 182.6475 165.175, 182.6475 162.6875, 187.125 150.25"></path><path stroke="Black" stroke-width="0.9377974509992915" fill="None" d="M188.71699999999998 179.901 C 195.7815 189.3535, 201.652 193.831, 212 200"></path><path stroke="Black" stroke-width="0.9377974509992915" fill="None" d="M212 200 C 214.0895 191.7415, 214.786 186.5675, 213.592 178.309"></path><path stroke="Black" stroke-width="0.9377974509992915" fill="None" d="M213.592 178.309 C 212.8955 164.27949999999998, 200.657 165.573, 199.7615 150.25"></path><path stroke="Black" stroke-width="0.9377974509992915" fill="None" d="M199.7615 150.25 C 199.5625 147.7625, 199.5625 142.7875, 199.5625 137.8125"></path><path stroke="Black" stroke-width="0.9377974509992915" fill="None" d="M199.5625 137.8125 C 202.3485 131.743, 205.433 127.763, 210.40800000000002 122.191"></path><path stroke="Black" stroke-width="0.9377974509992915" fill="None" d="M210.40800000000002 122.191 C 209.214 113.9325, 209.9105 108.7585, 212 100.5"></path><path stroke="Black" stroke-width="0.9377974509992915" fill="None" d="M213.592 178.309 C 218.567 172.737, 221.6515 168.757, 224.4375 162.6875"></path><path stroke="Black" stroke-width="0.9377974509992915" fill="None" d="M224.4375 162.6875 C 218.21875 156.46875, 215.73125 153.98125, 212 150.25"></path><path stroke="Black" stroke-width="0.9377974509992915" fill="None" d="M212 150.25 C 208.02 150.25, 203.045 150.25, 199.7615 150.25"></path><path stroke="Black" stroke-width="0.9377974509992915" fill="None" d="M213.24375 169.90125 C 217.4725 167.8615, 219.562 165.175, 220.90525 160.44875000000002"></path><path stroke="Black" stroke-width="0.9377974509992915" fill="None" d="M209.26375000000002 163.43375 C 214.0895 162.2895, 216.0795 160.797, 217.72125 157.06575"></path><path stroke="Black" stroke-width="0.9377974509992915" fill="None" d="M204.5375 157.9115 C 210.209 158.409, 211.5025 157.5135, 214.587 153.9315"></path><path stroke="Black" stroke-width="0.9377974509992915" fill="None" d="M205.48275 148.60825 C 205.28375 147.01625, 205.28375 145.52375, 205.58225 144.82725"></path><path stroke="Black" stroke-width="0.9377974509992915" fill="None" d="M202.49775 148.60825 C 201.5525 145.77249999999998, 201.5525 144.28, 202.89575 141.94175"></path><path stroke="Black" stroke-width="0.9377974509992915" fill="None" d="M165.58325 170.49824999999998 C 173.6925 174.13, 179.165 173.6325, 184.0405 171.8415"></path><path stroke="Black" stroke-width="0.9377974509992915" fill="None" d="M165.58325 165.62275 C 174.19 168.16, 177.175 168.16, 182.89625 166.91625"></path><path stroke="Black" stroke-width="0.9377974509992915" fill="None" d="M165.58325 159.35425 C 173.6925 162.6875, 177.6725 162.6875, 183.19475 161.24475"></path><path stroke="Black" stroke-width="0.9377974509992915" fill="None" d="M164.28975 154.47875 C 175.185 157.215, 179.165 157.215, 184.2395 156.3195"></path><path stroke="Black" stroke-width="0.9377974509992915" fill="None" d="M197.62225 180.34875 C 199.662 180.1995, 200.657 180.1995, 201.9505 180.1995"></path><path stroke="Black" stroke-width="0.9377974509992915" fill="None" d="M197.62225 180.34875 C 199.662 183.483, 202.1495 185.97050000000002, 205.632 188.3585"></path><path stroke="Black" stroke-width="0.9377974509992915" fill="None" d="M205.632 188.3585 C 206.87575 186.41825, 204.239 183.085, 201.9505 180.1995"></path><path stroke="Black" stroke-width="0.9377974509992915" fill="None" d="M204.438 179.503 C 206.03 179.10500000000002, 208.01999999999998 178.60750000000002, 208.96525 178.35875"></path><path stroke="Black" stroke-width="0.9377974509992915" fill="None" d="M204.438 179.503 C 207.27375 184.32875, 208.01999999999998 185.075, 209.86075 186.71675"></path><path stroke="Black" stroke-width="0.9377974509992915" fill="None" d="M209.86075 186.71675 C 209.76125000000002 182.83625, 209.612 180.498, 208.96525 178.35875"></path><polyline stroke="Grey" stroke-width="1" stroke-dasharray="2,2" fill="None" points="13,100.5 112.5,100.5 112.5,1 13,1 13,100.5"></polyline><polyline stroke="Grey" stroke-width="1" stroke-dasharray="2,2" fill="None" points="112.5,100.5 212,100.5 212,1 112.5,1 112.5,100.5"></polyline><polyline stroke="Grey" stroke-width="1" stroke-dasharray="2,2" fill="None" points="13,200 112.5,200 112.5,100.5 13,100.5 13,200"></polyline><polyline stroke="Grey" stroke-width="1" stroke-dasharray="2,2" fill="None" points="112.5,200 212,200 212,100.5 112.5,100.5 112.5,200"></polyline></svg>