<?xml version="1.0" encoding="UTF-8" standalone="no"?>
<svg version="1.1" x="0" y="0" width="226" height="232" style="background-color: white" xmlns="http://www.w3.org/2000/svg"><defs><marker id="a-arrow" markerWidth="10" markerHeight="10" refX="9" refY="3" orient="auto" markerUnits="strokeWidth"><path d="M0,0 L0,6 L9,3 z" fill="#f00"></path></marker><marker id="b-arrow" markerWidth="10" markerHeight="10" refX="9" refY="3" orient="auto" markerUnits="strokeWidth"><path d="M0,0 L0,6 L9,3 z" fill="#FF8C00"></path></marker><marker id="c-arrow" markerWidth="10" markerHeight="10" refX="9" refY="3" orient="auto" markerUnits="strokeWidth"><path d="M0,0 L0,6 L9,3 z" fill="#9932CC"></path></marker></defs><path stroke="Black" stroke-width="0.7885905147793751" fill="None" d="M27.825500000000005 94.72900000000001 C 48.073750000000004 87.565, 49.914500000000004 84.08250000000001, 58.8695 59.953750000000014"></path><path stroke="Black" stroke-width="0.7885905147793751" fill="None" d="M61.158 72.441 C 59.964 64.1825, 60.6605 59.0085, 62.75 50.75"></path><path stroke="Black" stroke-width="0.7885905147793751" fill="None" d="M50.3125 88.0625 C 53.0985 81.993, 56.183 78.013, 61.158 72.441"></path><path stroke="Black" stroke-width="0.7885905147793751" fill="None" d="M62.75 100.5 C 57.2775 95.0275, 54.04375 91.79374999999999, 50.3125 88.0625"></path><path stroke="Black" stroke-width="0.7885905147793751" fill="None" d="M50.3125 112.9375 C 55.2875 107.9625, 58.2725 104.9775, 62.75 100.5"></path><path stroke="Black" stroke-width="0.7885905147793751" fill="None" d="M50.3125 112.9375 C 44.242999999999995 110.1515, 40.263 107.06700000000001, 34.691 102.09200000000001"></path><path stroke="Black" stroke-width="0.7885905147793751" fill="None" d="M34.691 102.09200000000001 C 45.088750000000005 97.76374999999999, 46.332499999999996 96.52000000000001, 50.3125 88.0625"></path><path stroke="Black" stroke-width="0.7885905147793751" fill="None" d="M34.691 102.09200000000001 C 26.432499999999997 103.286, 21.258500000000005 102.58949999999999, 13 100.5"></path><path stroke="Black" stroke-width="0.7885905147793751" fill="None" d="M13 100.5 C 16.084500000000006 95.326, 18.32325 92.39075, 23.049499999999995 88.85849999999999"></path><path stroke="Black" stroke-width="0.7885905147793751" fill="None" d="M23.049499999999995 88.85849999999999 C 30.4125 82.19200000000001, 35.885 88.958, 43.99425 81.74425"></path><path stroke="Black" stroke-width="0.7885905147793751" fill="None" d="M43.99425 81.74425 C 45.337500000000006 80.6, 47.825 78.11250000000001, 50.3125 75.625"></path><path stroke="Black" stroke-width="0.7885905147793751" fill="None" d="M50.3125 75.625 C 51.95425 71.19725, 52.402 67.66499999999999, 52.7005 62.39150000000001"></path><path stroke="Black" stroke-width="0.7885905147793751" fill="None" d="M52.7005 62.39150000000001 C 57.42675 58.85925, 59.6655 55.92400000000001, 62.75 50.75"></path><path stroke="Black" stroke-width="0.7885905147793751" fill="None" d="M23.049499999999995 88.85849999999999 C 23.348 83.58500000000001, 23.795749999999998 80.05275, 25.4375 75.625"></path><path stroke="Black" stroke-width="0.7885905147793751" fill="None" d="M25.4375 75.625 C 31.65625 75.625, 34.14375 75.625, 37.875 75.625"></path><path stroke="Black" stroke-width="0.7885905147793751" fill="None" d="M37.875 75.625 C 39.864999999999995 77.61500000000001, 42.352500000000006 80.10249999999999, 43.99425 81.74425"></path><path stroke="Black" stroke-width="0.7885905147793751" fill="None" d="M27.427500000000002 84.82875000000001 C 26.333 81.6945, 26.631500000000003 79.3065, 28.323 76.27175"></path><path stroke="Black" stroke-width="0.7885905147793751" fill="None" d="M32.651250000000005 83.58500000000001 C 30.810499999999998 80.6, 30.561749999999996 78.85874999999999, 31.6065 76.17224999999999"></path><path stroke="Black" stroke-width="0.7885905147793751" fill="None" d="M37.7755 83.18700000000001 C 34.691 80.6, 34.492000000000004 79.50550000000001, 34.740750000000006 76.17224999999999"></path><path stroke="Black" stroke-width="0.7885905147793751" fill="None" d="M41.954499999999996 78.06275 C 42.849999999999994 77.36625000000001, 43.59625 76.62, 43.795249999999996 76.1225"></path><path stroke="Black" stroke-width="0.7885905147793751" fill="None" d="M43.447 79.55525 C 45.337500000000006 78.61000000000001, 46.083749999999995 77.86375000000001, 46.58125 76.023"></path><path stroke="Black" stroke-width="0.7885905147793751" fill="None" d="M50.95925 108.9575 C 45.088750000000005 106.71875, 42.60125 103.73374999999999, 41.059 100.4005"></path><path stroke="Black" stroke-width="0.7885905147793751" fill="None" d="M53.397 106.51975 C 47.825 103.48500000000001, 46.332499999999996 101.9925, 44.09375 98.50999999999999"></path><path stroke="Black" stroke-width="0.7885905147793751" fill="None" d="M56.53125 103.38550000000001 C 50.81 100.9975, 48.82 99.0075, 46.780249999999995 95.525"></path><path stroke="Black" stroke-width="0.7885905147793751" fill="None" d="M59.61575 101.59450000000001 C 52.8 97.51499999999999, 50.81 95.525, 48.7205 92.53999999999999"></path><path stroke="Black" stroke-width="0.7885905147793751" fill="None" d="M30.014499999999998 97.86325 C 29.069249999999997 96.76875000000001, 28.571749999999994 96.27125000000001, 27.925000000000004 95.62450000000001"></path><path stroke="Black" stroke-width="0.7885905147793751" fill="None" d="M30.014499999999998 97.86325 C 27.427500000000002 98.41050000000001, 24.939999999999998 98.41050000000001, 22.00475 97.86325"></path><path stroke="Black" stroke-width="0.7885905147793751" fill="None" d="M22.00475 97.86325 C 22.352999999999994 96.27125000000001, 25.338 95.923, 27.925000000000004 95.62450000000001"></path><path stroke="Black" stroke-width="0.7885905147793751" fill="None" d="M27.0295 94.0325 C 26.432499999999997 93.0375, 25.68625 91.79374999999999, 25.338 91.19675000000001"></path><path stroke="Black" stroke-width="0.7885905147793751" fill="None" d="M27.0295 94.0325 C 23.198749999999997 95.0275, 22.4525 95.0275, 20.71125 94.928"></path><path stroke="Black" stroke-width="0.7885905147793751" fill="None" d="M20.71125 94.928 C 22.701249999999995 93.0375, 23.945 91.94300000000001, 25.338 91.19675000000001"></path><path stroke="Black" stroke-width="0.6631229369810581" fill="None" d="M17.527250000000002 61.048249999999996 C 24.069375 74.75437500000001, 23.2485 77.416, 15.661625 93.957875"></path><path stroke="Black" stroke-width="0.6631229369810581" fill="None" d="M23.049500000000002 88.85849999999999 C 18.323249999999998 92.39075, 16.084500000000002 95.326, 13 100.5"></path><path stroke="Black" stroke-width="0.6631229369810581" fill="None" d="M25.4375 75.625 C 23.795749999999998 80.05275, 23.348 83.58500000000001, 23.049500000000002 88.85849999999999"></path><path stroke="Black" stroke-width="0.6631229369810581" fill="None" d="M37.875 75.625 C 32.4025 75.625, 29.168750000000003 75.625, 25.4375 75.625"></path><path stroke="Black" stroke-width="0.6631229369810581" fill="None" d="M37.875 63.1875 C 37.875 68.1625, 37.875 71.14750000000001, 37.875 75.625"></path><path stroke="Black" stroke-width="0.6631229369810581" fill="None" d="M37.875 63.1875 C 33.44725 61.54575, 29.915 61.09800000000001, 24.6415 60.799499999999995"></path><path stroke="Black" stroke-width="0.6631229369810581" fill="None" d="M24.6415 60.799499999999995 C 27.67625 68.1625, 27.67625 69.40625, 25.4375 75.625"></path><path stroke="Black" stroke-width="0.6631229369810581" fill="None" d="M24.6415 60.799499999999995 C 21.10925 56.07325, 18.174000000000003 53.83449999999999, 13 50.75"></path><path stroke="Black" stroke-width="0.6631229369810581" fill="None" d="M13 50.75 C 11.955250000000003 54.87925000000001, 11.607 57.46625, 12.203999999999997 61.59549999999999"></path><path stroke="Black" stroke-width="0.6631229369810581" fill="None" d="M12.203999999999997 61.59549999999999 C 12.55225 68.61025000000001, 18.671499999999998 67.96350000000001, 19.11925 75.625"></path><path stroke="Black" stroke-width="0.6631229369810581" fill="None" d="M19.11925 75.625 C 19.21875 76.86875, 19.21875 79.35624999999999, 19.21875 81.84375"></path><path stroke="Black" stroke-width="0.6631229369810581" fill="None" d="M19.21875 81.84375 C 17.82575 84.8785, 16.2835 86.86850000000001, 13.796 89.65449999999998"></path><path stroke="Black" stroke-width="0.6631229369810581" fill="None" d="M13.796 89.65449999999998 C 14.393 93.78375, 14.04475 96.37074999999999, 13 100.5"></path><path stroke="Black" stroke-width="0.6631229369810581" fill="None" d="M12.203999999999997 61.59549999999999 C 9.716499999999996 64.38149999999999, 8.17425 66.3715, 6.78125 69.40625"></path><path stroke="Black" stroke-width="0.6631229369810581" fill="None" d="M6.78125 69.40625 C 9.890625 72.515625, 11.134374999999999 73.759375, 13 75.625"></path><path stroke="Black" stroke-width="0.6631229369810581" fill="None" d="M13 75.625 C 14.989999999999998 75.625, 17.477500000000003 75.625, 19.11925 75.625"></path><path stroke="Black" stroke-width="0.6631229369810581" fill="None" d="M12.378125 65.799375 C 10.263750000000002 66.81925000000001, 9.219000000000001 68.1625, 8.547375000000002 70.52562499999999"></path><path stroke="Black" stroke-width="0.6631229369810581" fill="None" d="M14.368125 69.03312500000001 C 11.95525 69.60525000000001, 10.960249999999998 70.35149999999999, 10.139375000000001 72.21712500000001"></path><path stroke="Black" stroke-width="0.6631229369810581" fill="None" d="M16.731250000000003 71.79425 C 13.895499999999998 71.5455, 13.248750000000001 71.99324999999999, 11.706500000000002 73.78424999999999"></path><path stroke="Black" stroke-width="0.6631229369810581" fill="None" d="M16.258625 76.445875 C 16.358124999999998 77.241875, 16.358125 77.988125, 16.208875 78.336375"></path><path stroke="Black" stroke-width="0.6631229369810581" fill="None" d="M17.751125000000002 76.445875 C 18.223750000000003 77.86375000000001, 18.22375 78.61000000000001, 17.552125 79.779125"></path><path stroke="Black" stroke-width="0.6631229369810581" fill="None" d="M36.208375000000004 65.50087500000001 C 32.15375 63.685, 29.4175 63.93375, 26.979750000000003 64.82925"></path><path stroke="Black" stroke-width="0.6631229369810581" fill="None" d="M36.208375000000004 67.938625 C 31.905 66.66999999999999, 30.4125 66.66999999999999, 27.551875000000003 67.291875"></path><path stroke="Black" stroke-width="0.6631229369810581" fill="None" d="M36.208375 71.07287500000001 C 32.15375 69.40625, 30.16375 69.40625, 27.402625 70.127625"></path><path stroke="Black" stroke-width="0.6631229369810581" fill="None" d="M36.855125 73.510625 C 31.4075 72.14250000000001, 29.4175 72.14250000000001, 26.88025 72.59025"></path><path stroke="Black" stroke-width="0.6631229369810581" fill="None" d="M20.188875 60.575625 C 19.168999999999997 60.65025, 18.671499999999998 60.65025, 18.02475 60.65025"></path><path stroke="Black" stroke-width="0.6631229369810581" fill="None" d="M20.188875 60.575625 C 19.169 59.0085, 17.92525 57.76474999999999, 16.184 56.570750000000004"></path><path stroke="Black" stroke-width="0.6631229369810581" fill="None" d="M16.184 56.570750000000004 C 15.562124999999998 57.540875, 16.8805 59.20750000000001, 18.02475 60.65025"></path><path stroke="Black" stroke-width="0.6631229369810581" fill="None" d="M16.781 60.99850000000001 C 15.985 61.19749999999999, 14.990000000000002 61.44624999999999, 14.517375000000001 61.57062500000001"></path><path stroke="Black" stroke-width="0.6631229369810581" fill="None" d="M16.781 60.99850000000001 C 15.363124999999997 58.58562499999999, 14.990000000000002 58.212500000000006, 14.069624999999998 57.391625000000005"></path><path stroke="Black" stroke-width="0.6631229369810581" fill="None" d="M14.069624999999998 57.391625000000005 C 14.119374999999998 59.331875, 14.194000000000003 60.501000000000005, 14.517375000000001 61.57062500000001"></path><path stroke="Black" stroke-width="0.6631229369810581" fill="None" d="M52.45175 55.27725000000001 C 38.745625 61.81937500000001, 36.084 60.99850000000001, 19.542125 53.411625000000015"></path><path stroke="Black" stroke-width="0.6631229369810581" fill="None" d="M24.6415 60.799499999999995 C 21.10925 56.07325, 18.174000000000003 53.83449999999999, 13 50.75"></path><path stroke="Black" stroke-width="0.6631229369810581" fill="None" d="M37.875 63.1875 C 33.44725 61.54575, 29.915 61.09800000000001, 24.6415 60.799499999999995"></path><path stroke="Black" stroke-width="0.6631229369810581" fill="None" d="M37.875 75.625 C 37.875 70.1525, 37.875 66.91874999999999, 37.875 63.1875"></path><path stroke="Black" stroke-width="0.6631229369810581" fill="None" d="M50.3125 75.625 C 45.3375 75.625, 42.3525 75.625, 37.875 75.625"></path><path stroke="Black" stroke-width="0.6631229369810581" fill="None" d="M50.3125 75.625 C 51.95425 71.19725, 52.402 67.66499999999999, 52.7005 62.39150000000001"></path><path stroke="Black" stroke-width="0.6631229369810581" fill="None" d="M52.7005 62.39150000000001 C 45.3375 65.42625000000001, 44.09375 65.42625000000001, 37.875 63.1875"></path><path stroke="Black" stroke-width="0.6631229369810581" fill="None" d="M52.7005 62.39150000000001 C 57.42675 58.85925, 59.665499999999994 55.92400000000001, 62.75 50.75"></path><path stroke="Black" stroke-width="0.6631229369810581" fill="None" d="M62.75 50.75 C 58.62075 49.70525000000001, 56.03375 49.357, 51.9045 49.95400000000001"></path><path stroke="Black" stroke-width="0.6631229369810581" fill="None" d="M51.9045 49.95400000000001 C 44.88975 50.302250000000015, 45.536500000000004 56.42150000000001, 37.875 56.869249999999994"></path><path stroke="Black" stroke-width="0.6631229369810581" fill="None" d="M37.875 56.869249999999994 C 36.631249999999994 56.96875, 34.14375 56.96875, 31.65625 56.96875"></path><path stroke="Black" stroke-width="0.6631229369810581" fill="None" d="M31.65625 56.96875 C 28.6215 55.57575, 26.6315 54.033500000000004, 23.8455 51.54599999999999"></path><path stroke="Black" stroke-width="0.6631229369810581" fill="None" d="M23.8455 51.54599999999999 C 19.716250000000002 52.143, 17.12925 51.79474999999999, 13 50.75"></path><path stroke="Black" stroke-width="0.6631229369810581" fill="None" d="M51.9045 49.95400000000001 C 49.1185 47.466499999999996, 47.1285 45.92425, 44.09375 44.53125"></path><path stroke="Black" stroke-width="0.6631229369810581" fill="None" d="M44.09375 44.53125 C 40.984375 47.640625, 39.740625 48.884375000000006, 37.875 50.75"></path><path stroke="Black" stroke-width="0.6631229369810581" fill="None" d="M37.875 50.75 C 37.875 52.74000000000001, 37.875 55.22749999999999, 37.875 56.869249999999994"></path><path stroke="Black" stroke-width="0.6631229369810581" fill="None" d="M47.700625 50.12812500000001 C 46.68075 48.013750000000016, 45.3375 46.968999999999994, 42.974375 46.29737499999999"></path><path stroke="Black" stroke-width="0.6631229369810581" fill="None" d="M44.466875 52.11812499999999 C 43.89475 49.70525000000001, 43.1485 48.71025, 41.282875000000004 47.889375"></path><path stroke="Black" stroke-width="0.6631229369810581" fill="None" d="M41.70575 54.48124999999999 C 41.954499999999996 51.6455, 41.50675 50.99875, 39.71575 49.456500000000005"></path><path stroke="Black" stroke-width="0.6631229369810581" fill="None" d="M37.054125 54.008624999999995 C 36.258125 54.108125, 35.511875 54.108125, 35.163624999999996 53.958875000000006"></path><path stroke="Black" stroke-width="0.6631229369810581" fill="None" d="M37.054125 55.501125 C 35.63625 55.973749999999995, 34.89 55.973749999999995, 33.720875 55.30212499999999"></path><path stroke="Black" stroke-width="0.6631229369810581" fill="None" d="M47.999125 73.95837499999999 C 49.815 69.90375, 49.56625 67.16749999999999, 48.67075 64.72975"></path><path stroke="Black" stroke-width="0.6631229369810581" fill="None" d="M45.561375 73.95837499999999 C 46.83 69.655, 46.83 68.1625, 46.208125 65.301875"></path><path stroke="Black" stroke-width="0.6631229369810581" fill="None" d="M42.427125000000004 73.95837499999999 C 44.09375 69.90375, 44.09375 67.91375, 43.372375 65.152625"></path><path stroke="Black" stroke-width="0.6631229369810581" fill="None" d="M39.989375 74.60512499999999 C 41.3575 69.1575, 41.3575 67.16749999999999, 40.90975 64.63024999999999"></path><path stroke="Black" stroke-width="0.6631229369810581" fill="None" d="M52.924375 57.938874999999996 C 52.84975 56.91899999999998, 52.84975 56.42150000000001, 52.84975 55.77475000000001"></path><path stroke="Black" stroke-width="0.6631229369810581" fill="None" d="M52.924375 57.938874999999996 C 54.4915 56.91900000000001, 55.73525 55.675250000000005, 56.929249999999996 53.934"></path><path stroke="Black" stroke-width="0.6631229369810581" fill="None" d="M56.929249999999996 53.934 C 55.959125 53.31212500000001, 54.292500000000004 54.63050000000001, 52.84975 55.77475000000001"></path><path stroke="Black" stroke-width="0.6631229369810581" fill="None" d="M52.5015 54.531000000000006 C 52.3025 53.735000000000014, 52.05375 52.74000000000001, 51.929375 52.267375000000015"></path><path stroke="Black" stroke-width="0.6631229369810581" fill="None" d="M52.5015 54.531000000000006 C 54.914375 53.113125, 55.2875 52.74000000000001, 56.108374999999995 51.819625"></path><path stroke="Black" stroke-width="0.6631229369810581" fill="None" d="M56.108374999999995 51.819625 C 54.168125 51.86937499999999, 52.999 51.94400000000002, 51.929375 52.267375000000015"></path><path stroke="Black" stroke-width="0.7885905147793751" fill="None" d="M68.521 65.5755 C 75.685 85.82374999999999, 79.1675 87.6645, 103.29625 96.61949999999999"></path><path stroke="Black" stroke-width="0.7885905147793751" fill="None" d="M90.809 98.90799999999999 C 99.0675 97.714, 104.2415 98.41050000000001, 112.5 100.5"></path><path stroke="Black" stroke-width="0.7885905147793751" fill="None" d="M75.1875 88.0625 C 81.257 90.8485, 85.237 93.93299999999999, 90.809 98.90799999999999"></path><path stroke="Black" stroke-width="0.7885905147793751" fill="None" d="M62.75 100.5 C 68.2225 95.0275, 71.45625 91.79374999999999, 75.1875 88.0625"></path><path stroke="Black" stroke-width="0.7885905147793751" fill="None" d="M50.3125 88.0625 C 55.2875 93.0375, 58.2725 96.02250000000001, 62.75 100.5"></path><path stroke="Black" stroke-width="0.7885905147793751" fill="None" d="M50.3125 88.0625 C 53.0985 81.993, 56.183 78.013, 61.158 72.441"></path><path stroke="Black" stroke-width="0.7885905147793751" fill="None" d="M61.158 72.441 C 65.48625 82.83875, 66.73 84.08250000000001, 75.1875 88.0625"></path><path stroke="Black" stroke-width="0.7885905147793751" fill="None" d="M61.158 72.441 C 59.964 64.1825, 60.6605 59.0085, 62.75 50.75"></path><path stroke="Black" stroke-width="0.7885905147793751" fill="None" d="M62.75 50.75 C 67.924 53.83449999999999, 70.85925 56.07325, 74.39150000000001 60.799499999999995"></path><path stroke="Black" stroke-width="0.7885905147793751" fill="None" d="M74.39150000000001 60.799499999999995 C 81.05799999999999 68.1625, 74.292 73.63499999999999, 81.50575 81.74425"></path><path stroke="Black" stroke-width="0.7885905147793751" fill="None" d="M81.50575 81.74425 C 82.65 83.0875, 85.1375 85.57499999999999, 87.625 88.0625"></path><path stroke="Black" stroke-width="0.7885905147793751" fill="None" d="M87.625 88.0625 C 92.05275 89.70425, 95.58500000000001 90.15199999999999, 100.85849999999999 90.4505"></path><path stroke="Black" stroke-width="0.7885905147793751" fill="None" d="M100.85849999999999 90.4505 C 104.39075 95.17675, 107.326 97.41550000000001, 112.5 100.5"></path><path stroke="Black" stroke-width="0.7885905147793751" fill="None" d="M74.39150000000001 60.799499999999995 C 79.665 61.09800000000001, 83.19725 61.54575, 87.625 63.1875"></path><path stroke="Black" stroke-width="0.7885905147793751" fill="None" d="M87.625 63.1875 C 87.625 69.40625, 87.625 71.89375000000001, 87.625 75.625"></path><path stroke="Black" stroke-width="0.7885905147793751" fill="None" d="M87.625 75.625 C 85.635 77.61500000000001, 83.1475 80.10249999999999, 81.50575 81.74425"></path><path stroke="Black" stroke-width="0.7885905147793751" fill="None" d="M78.42125 65.17750000000001 C 81.5555 64.083, 83.9435 64.38150000000002, 86.97825 66.07300000000001"></path><path stroke="Black" stroke-width="0.7885905147793751" fill="None" d="M79.665 70.40125 C 82.65 68.56049999999999, 84.39125 68.31174999999999, 87.07775 69.35650000000001"></path><path stroke="Black" stroke-width="0.7885905147793751" fill="None" d="M80.063 75.5255 C 82.65 72.441, 83.7445 72.24199999999999, 87.07775 72.49074999999999"></path><path stroke="Black" stroke-width="0.7885905147793751" fill="None" d="M85.18725 79.7045 C 85.88375 80.6, 86.63 81.34625, 87.1275 81.54525000000001"></path><path stroke="Black" stroke-width="0.7885905147793751" fill="None" d="M83.69475 81.197 C 84.64 83.0875, 85.38625 83.83375000000001, 87.227 84.33125000000001"></path><path stroke="Black" stroke-width="0.7885905147793751" fill="None" d="M54.2925 88.70925 C 56.53125 82.83875, 59.51625 80.35125, 62.8495 78.809"></path><path stroke="Black" stroke-width="0.7885905147793751" fill="None" d="M56.73025 91.14699999999999 C 59.765 85.57499999999999, 61.2575 84.08250000000001, 64.74 81.84375"></path><path stroke="Black" stroke-width="0.7885905147793751" fill="None" d="M59.8645 94.28125 C 62.2525 88.56, 64.2425 86.57, 67.725 84.53025"></path><path stroke="Black" stroke-width="0.7885905147793751" fill="None" d="M61.6555 97.36574999999999 C 65.735 90.55000000000001, 67.725 88.56, 70.71 86.47050000000002"></path><path stroke="Black" stroke-width="0.7885905147793751" fill="None" d="M65.38675 67.7645 C 66.48125 66.81925000000001, 66.97875 66.32175000000001, 67.6255 65.67500000000001"></path><path stroke="Black" stroke-width="0.7885905147793751" fill="None" d="M65.38675 67.7645 C 64.8395 65.17750000000001, 64.8395 62.69, 65.38675 59.75475"></path><path stroke="Black" stroke-width="0.7885905147793751" fill="None" d="M65.38675 59.75475 C 66.97875 60.10300000000001, 67.327 63.087999999999994, 67.6255 65.67500000000001"></path><path stroke="Black" stroke-width="0.7885905147793751" fill="None" d="M69.2175 64.77949999999998 C 70.2125 64.1825, 71.45625 63.43625, 72.05325 63.087999999999994"></path><path stroke="Black" stroke-width="0.7885905147793751" fill="None" d="M69.2175 64.77949999999998 C 68.2225 60.94874999999999, 68.2225 60.202499999999986, 68.322 58.46125000000001"></path><path stroke="Black" stroke-width="0.7885905147793751" fill="None" d="M68.322 58.46125000000001 C 70.2125 60.45124999999999, 71.307 61.69499999999999, 72.05325 63.087999999999994"></path><path stroke="Black" stroke-width="0.6631229369810581" fill="None" d="M102.20175 55.27725000000001 C 88.495625 61.81937500000001, 85.834 60.99850000000001, 69.292125 53.411625000000015"></path><path stroke="Black" stroke-width="0.6631229369810581" fill="None" d="M74.39150000000001 60.799499999999995 C 70.85925 56.07325, 67.924 53.83449999999999, 62.75 50.75"></path><path stroke="Black" stroke-width="0.6631229369810581" fill="None" d="M87.625 63.1875 C 83.19725 61.54575, 79.66499999999999 61.09800000000001, 74.39150000000001 60.799499999999995"></path><path stroke="Black" stroke-width="0.6631229369810581" fill="None" d="M87.625 75.625 C 87.625 70.1525, 87.625 66.91874999999999, 87.625 63.1875"></path><path stroke="Black" stroke-width="0.6631229369810581" fill="None" d="M100.0625 75.625 C 95.0875 75.625, 92.1025 75.625, 87.625 75.625"></path><path stroke="Black" stroke-width="0.6631229369810581" fill="None" d="M100.0625 75.625 C 101.70425 71.19725, 102.152 67.66499999999999, 102.4505 62.39150000000001"></path><path stroke="Black" stroke-width="0.6631229369810581" fill="None" d="M102.4505 62.39150000000001 C 95.0875 65.42625000000001, 93.84375 65.42625000000001, 87.625 63.1875"></path><path stroke="Black" stroke-width="0.6631229369810581" fill="None" d="M102.4505 62.39150000000001 C 107.17675 58.85925, 109.4155 55.92400000000001, 112.5 50.75"></path><path stroke="Black" stroke-width="0.6631229369810581" fill="None" d="M112.5 50.75 C 108.37075 49.70525000000001, 105.78375 49.357, 101.6545 49.95400000000001"></path><path stroke="Black" stroke-width="0.6631229369810581" fill="None" d="M101.6545 49.95400000000001 C 94.63974999999999 50.302250000000015, 95.2865 56.42150000000001, 87.625 56.869249999999994"></path><path stroke="Black" stroke-width="0.6631229369810581" fill="None" d="M87.625 56.869249999999994 C 86.38125 56.96875, 83.89375 56.96875, 81.40625 56.96875"></path><path stroke="Black" stroke-width="0.6631229369810581" fill="None" d="M81.40625 56.96875 C 78.3715 55.57575, 76.3815 54.033500000000004, 73.5955 51.54599999999999"></path><path stroke="Black" stroke-width="0.6631229369810581" fill="None" d="M73.5955 51.54599999999999 C 69.46625 52.143, 66.87925 51.79474999999999, 62.75 50.75"></path><path stroke="Black" stroke-width="0.6631229369810581" fill="None" d="M101.6545 49.95400000000001 C 98.8685 47.466499999999996, 96.8785 45.92425, 93.84375 44.53125"></path><path stroke="Black" stroke-width="0.6631229369810581" fill="None" d="M93.84375 44.53125 C 90.734375 47.640625, 89.490625 48.884375000000006, 87.625 50.75"></path><path stroke="Black" stroke-width="0.6631229369810581" fill="None" d="M87.625 50.75 C 87.625 52.74000000000001, 87.625 55.22749999999999, 87.625 56.869249999999994"></path><path stroke="Black" stroke-width="0.6631229369810581" fill="None" d="M97.450625 50.12812500000001 C 96.43075 48.013750000000016, 95.0875 46.968999999999994, 92.724375 46.29737499999999"></path><path stroke="Black" stroke-width="0.6631229369810581" fill="None" d="M94.216875 52.11812499999999 C 93.64475 49.70525000000001, 92.8985 48.71025, 91.032875 47.889375"></path><path stroke="Black" stroke-width="0.6631229369810581" fill="None" d="M91.45575 54.48124999999999 C 91.7045 51.6455, 91.25675 50.99875, 89.46575 49.456500000000005"></path><path stroke="Black" stroke-width="0.6631229369810581" fill="None" d="M86.804125 54.008624999999995 C 86.008125 54.108125, 85.261875 54.108125, 84.913625 53.958875000000006"></path><path stroke="Black" stroke-width="0.6631229369810581" fill="None" d="M86.804125 55.501125 C 85.38625 55.973749999999995, 84.64 55.973749999999995, 83.470875 55.30212499999999"></path><path stroke="Black" stroke-width="0.6631229369810581" fill="None" d="M97.74912499999999 73.95837499999999 C 99.565 69.90375, 99.31625 67.16749999999999, 98.42075 64.72975"></path><path stroke="Black" stroke-width="0.6631229369810581" fill="None" d="M95.311375 73.95837499999999 C 96.58 69.655, 96.58 68.1625, 95.958125 65.301875"></path><path stroke="Black" stroke-width="0.6631229369810581" fill="None" d="M92.177125 73.95837499999999 C 93.84375 69.90375, 93.84375 67.91375, 93.122375 65.152625"></path><path stroke="Black" stroke-width="0.6631229369810581" fill="None" d="M89.739375 74.60512499999999 C 91.1075 69.1575, 91.1075 67.16749999999999, 90.65975 64.63024999999999"></path><path stroke="Black" stroke-width="0.6631229369810581" fill="None" d="M102.674375 57.938874999999996 C 102.59975 56.91899999999998, 102.59975 56.42150000000001, 102.59975 55.77475000000001"></path><path stroke="Black" stroke-width="0.6631229369810581" fill="None" d="M102.674375 57.938874999999996 C 104.2415 56.91900000000001, 105.48525000000001 55.675250000000005, 106.67925 53.934"></path><path stroke="Black" stroke-width="0.6631229369810581" fill="None" d="M106.67925 53.934 C 105.709125 53.31212500000001, 104.0425 54.63050000000001, 102.59975 55.77475000000001"></path><path stroke="Black" stroke-width="0.6631229369810581" fill="None" d="M102.2515 54.531000000000006 C 102.05250000000001 53.735000000000014, 101.80375000000001 52.74000000000001, 101.679375 52.267375000000015"></path><path stroke="Black" stroke-width="0.6631229369810581" fill="None" d="M102.2515 54.531000000000006 C 104.664375 53.113125, 105.0375 52.74000000000001, 105.858375 51.819625"></path><path stroke="Black" stroke-width="0.6631229369810581" fill="None" d="M105.858375 51.819625 C 103.918125 51.86937499999999, 102.749 51.94400000000002, 101.679375 52.267375000000015"></path><path stroke="Black" stroke-width="0.6631229369810581" fill="None" d="M107.97274999999999 90.20175 C 101.43062499999999 76.49562499999999, 102.2515 73.834, 109.838375 57.292125"></path><path stroke="Black" stroke-width="0.6631229369810581" fill="None" d="M102.4505 62.39150000000001 C 107.17675 58.85925, 109.4155 55.92400000000001, 112.5 50.75"></path><path stroke="Black" stroke-width="0.6631229369810581" fill="None" d="M100.0625 75.625 C 101.70425 71.19725, 102.152 67.66499999999999, 102.4505 62.39150000000001"></path><path stroke="Black" stroke-width="0.6631229369810581" fill="None" d="M87.625 75.625 C 93.0975 75.625, 96.33125 75.625, 100.0625 75.625"></path><path stroke="Black" stroke-width="0.6631229369810581" fill="None" d="M87.625 88.0625 C 87.625 83.0875, 87.625 80.10249999999999, 87.625 75.625"></path><path stroke="Black" stroke-width="0.6631229369810581" fill="None" d="M87.625 88.0625 C 92.05275 89.70425, 95.58500000000001 90.15199999999999, 100.85849999999999 90.4505"></path><path stroke="Black" stroke-width="0.6631229369810581" fill="None" d="M100.85849999999999 90.4505 C 97.82375 83.0875, 97.82375 81.84375, 100.0625 75.625"></path><path stroke="Black" stroke-width="0.6631229369810581" fill="None" d="M100.85849999999999 90.4505 C 104.39075 95.17675, 107.326 97.41550000000001, 112.5 100.5"></path><path stroke="Black" stroke-width="0.6631229369810581" fill="None" d="M112.5 100.5 C 113.54475 96.37074999999999, 113.893 93.78375, 113.296 89.65450000000001"></path><path stroke="Black" stroke-width="0.6631229369810581" fill="None" d="M113.296 89.65450000000001 C 112.94775 82.63974999999999, 106.8285 83.28649999999999, 106.38075 75.625"></path><path stroke="Black" stroke-width="0.6631229369810581" fill="None" d="M106.38075 75.625 C 106.28125 74.38125, 106.28125 71.89375000000001, 106.28125 69.40625"></path><path stroke="Black" stroke-width="0.6631229369810581" fill="None" d="M106.28125 69.40625 C 107.67425 66.3715, 109.2165 64.38149999999999, 111.70400000000001 61.595500000000015"></path><path stroke="Black" stroke-width="0.6631229369810581" fill="None" d="M111.70400000000001 61.595500000000015 C 111.107 57.46625, 111.45525 54.87925000000001, 112.5 50.75"></path><path stroke="Black" stroke-width="0.6631229369810581" fill="None" d="M113.296 89.65450000000001 C 115.7835 86.86850000000001, 117.32575 84.8785, 118.71875 81.84375"></path><path stroke="Black" stroke-width="0.6631229369810581" fill="None" d="M118.71875 81.84375 C 115.609375 78.734375, 114.365625 77.490625, 112.5 75.625"></path><path stroke="Black" stroke-width="0.6631229369810581" fill="None" d="M112.5 75.625 C 110.51 75.625, 108.0225 75.625, 106.38075 75.625"></path><path stroke="Black" stroke-width="0.6631229369810581" fill="None" d="M113.121875 85.450625 C 115.23625 84.43074999999999, 116.281 83.0875, 116.952625 80.72437500000001"></path><path stroke="Black" stroke-width="0.6631229369810581" fill="None" d="M111.13187500000001 82.21687499999999 C 113.54475 81.64474999999999, 114.53975 80.89850000000001, 115.360625 79.03287499999999"></path><path stroke="Black" stroke-width="0.6631229369810581" fill="None" d="M108.76875 79.45575 C 111.6045 79.7045, 112.25125 79.25675000000001, 113.7935 77.46575000000001"></path><path stroke="Black" stroke-width="0.6631229369810581" fill="None" d="M109.241375 74.804125 C 109.141875 74.008125, 109.141875 73.261875, 109.291125 72.913625"></path><path stroke="Black" stroke-width="0.6631229369810581" fill="None" d="M107.748875 74.804125 C 107.27625 73.38624999999999, 107.27625 72.63999999999999, 107.947875 71.470875"></path><path stroke="Black" stroke-width="0.6631229369810581" fill="None" d="M89.291625 85.74912499999999 C 93.34625 87.565, 96.0825 87.31625, 98.52025 86.42075"></path><path stroke="Black" stroke-width="0.6631229369810581" fill="None" d="M89.291625 83.311375 C 93.595 84.58000000000001, 95.0875 84.58000000000001, 97.948125 83.958125"></path><path stroke="Black" stroke-width="0.6631229369810581" fill="None" d="M89.291625 80.17712499999999 C 93.34625 81.84375, 95.33625 81.84375, 98.097375 81.122375"></path><path stroke="Black" stroke-width="0.6631229369810581" fill="None" d="M88.644875 77.739375 C 94.0925 79.10749999999999, 96.0825 79.10749999999999, 98.61975 78.65975"></path><path stroke="Black" stroke-width="0.6631229369810581" fill="None" d="M105.311125 90.674375 C 106.331 90.59975, 106.8285 90.59975, 107.47525 90.59975"></path><path stroke="Black" stroke-width="0.6631229369810581" fill="None" d="M105.311125 90.674375 C 106.331 92.2415, 107.57475 93.48525000000001, 109.316 94.67925"></path><path stroke="Black" stroke-width="0.6631229369810581" fill="None" d="M109.316 94.67925 C 109.937875 93.709125, 108.6195 92.04249999999999, 107.47525 90.59975"></path><path stroke="Black" stroke-width="0.6631229369810581" fill="None" d="M108.719 90.2515 C 109.515 90.05250000000001, 110.50999999999999 89.80375000000001, 110.982625 89.679375"></path><path stroke="Black" stroke-width="0.6631229369810581" fill="None" d="M108.719 90.2515 C 110.136875 92.664375, 110.50999999999999 93.0375, 111.430375 93.858375"></path><path stroke="Black" stroke-width="0.6631229369810581" fill="None" d="M111.430375 93.858375 C 111.38062500000001 91.918125, 111.306 90.749, 110.982625 89.679375"></path><path stroke="Black" stroke-width="0.7885905147793751" fill="None" d="M127.3255 94.72900000000001 C 147.57375 87.565, 149.4145 84.08250000000001, 158.3695 59.953750000000014"></path><path stroke="Black" stroke-width="0.7885905147793751" fill="None" d="M160.658 72.441 C 159.464 64.1825, 160.1605 59.0085, 162.25 50.75"></path><path stroke="Black" stroke-width="0.7885905147793751" fill="None" d="M149.8125 88.0625 C 152.5985 81.993, 155.683 78.013, 160.658 72.441"></path><path stroke="Black" stroke-width="0.7885905147793751" fill="None" d="M162.25 100.5 C 156.7775 95.0275, 153.54375 91.79374999999999, 149.8125 88.0625"></path><path stroke="Black" stroke-width="0.7885905147793751" fill="None" d="M149.8125 112.9375 C 154.7875 107.9625, 157.7725 104.9775, 162.25 100.5"></path><path stroke="Black" stroke-width="0.7885905147793751" fill="None" d="M149.8125 112.9375 C 143.743 110.1515, 139.763 107.06700000000001, 134.191 102.09200000000001"></path><path stroke="Black" stroke-width="0.7885905147793751" fill="None" d="M134.191 102.09200000000001 C 144.58875 97.76374999999999, 145.8325 96.52000000000001, 149.8125 88.0625"></path><path stroke="Black" stroke-width="0.7885905147793751" fill="None" d="M134.191 102.09200000000001 C 125.9325 103.286, 120.7585 102.58949999999999, 112.5 100.5"></path><path stroke="Black" stroke-width="0.7885905147793751" fill="None" d="M112.5 100.5 C 115.5845 95.326, 117.82325 92.39075, 122.5495 88.85849999999999"></path><path stroke="Black" stroke-width="0.7885905147793751" fill="None" d="M122.5495 88.85849999999999 C 129.9125 82.19200000000001, 135.385 88.958, 143.49425 81.74425"></path><path stroke="Black" stroke-width="0.7885905147793751" fill="None" d="M143.49425 81.74425 C 144.8375 80.6, 147.325 78.11250000000001, 149.8125 75.625"></path><path stroke="Black" stroke-width="0.7885905147793751" fill="None" d="M149.8125 75.625 C 151.45425 71.19725, 151.902 67.66499999999999, 152.2005 62.39150000000001"></path><path stroke="Black" stroke-width="0.7885905147793751" fill="None" d="M152.2005 62.39150000000001 C 156.92675 58.85925, 159.1655 55.92400000000001, 162.25 50.75"></path><path stroke="Black" stroke-width="0.7885905147793751" fill="None" d="M122.5495 88.85849999999999 C 122.848 83.58500000000001, 123.29575 80.05275, 124.9375 75.625"></path><path stroke="Black" stroke-width="0.7885905147793751" fill="None" d="M124.9375 75.625 C 131.15625 75.625, 133.64375 75.625, 137.375 75.625"></path><path stroke="Black" stroke-width="0.7885905147793751" fill="None" d="M137.375 75.625 C 139.365 77.61500000000001, 141.8525 80.10249999999999, 143.49425 81.74425"></path><path stroke="Black" stroke-width="0.7885905147793751" fill="None" d="M126.92750000000001 84.82875000000001 C 125.833 81.6945, 126.1315 79.3065, 127.82300000000001 76.27175"></path><path stroke="Black" stroke-width="0.7885905147793751" fill="None" d="M132.15125 83.58500000000001 C 130.3105 80.6, 130.06175 78.85874999999999, 131.1065 76.17224999999999"></path><path stroke="Black" stroke-width="0.7885905147793751" fill="None" d="M137.2755 83.18700000000001 C 134.191 80.6, 133.992 79.50550000000001, 134.24075 76.17224999999999"></path><path stroke="Black" stroke-width="0.7885905147793751" fill="None" d="M141.4545 78.06275 C 142.35 77.36625000000001, 143.09625 76.62, 143.29525 76.1225"></path><path stroke="Black" stroke-width="0.7885905147793751" fill="None" d="M142.947 79.55525 C 144.8375 78.61000000000001, 145.58375 77.86375000000001, 146.08125 76.023"></path><path stroke="Black" stroke-width="0.7885905147793751" fill="None" d="M150.45925 108.9575 C 144.58875 106.71875, 142.10125 103.73374999999999, 140.559 100.4005"></path><path stroke="Black" stroke-width="0.7885905147793751" fill="None" d="M152.897 106.51975 C 147.325 103.48500000000001, 145.8325 101.9925, 143.59375 98.50999999999999"></path><path stroke="Black" stroke-width="0.7885905147793751" fill="None" d="M156.03125 103.38550000000001 C 150.31 100.9975, 148.32 99.0075, 146.28025 95.525"></path><path stroke="Black" stroke-width="0.7885905147793751" fill="None" d="M159.11575 101.59450000000001 C 152.3 97.51499999999999, 150.31 95.525, 148.22050000000002 92.53999999999999"></path><path stroke="Black" stroke-width="0.7885905147793751" fill="None" d="M129.5145 97.86325 C 128.56925 96.76875000000001, 128.07175 96.27125000000001, 127.42500000000001 95.62450000000001"></path><path stroke="Black" stroke-width="0.7885905147793751" fill="None" d="M129.5145 97.86325 C 126.92750000000001 98.41050000000001, 124.44 98.41050000000001, 121.50475 97.86325"></path><path stroke="Black" stroke-width="0.7885905147793751" fill="None" d="M121.50475 97.86325 C 121.853 96.27125000000001, 124.838 95.923, 127.42500000000001 95.62450000000001"></path><path stroke="Black" stroke-width="0.7885905147793751" fill="None" d="M126.5295 94.0325 C 125.9325 93.0375, 125.18625 91.79374999999999, 124.838 91.19675000000001"></path><path stroke="Black" stroke-width="0.7885905147793751" fill="None" d="M126.5295 94.0325 C 122.69874999999999 95.0275, 121.9525 95.0275, 120.21125 94.928"></path><path stroke="Black" stroke-width="0.7885905147793751" fill="None" d="M120.21125 94.928 C 122.20124999999999 93.0375, 123.445 91.94300000000001, 124.838 91.19675000000001"></path><path stroke="Black" stroke-width="0.6631229369810581" fill="None" d="M117.02725000000001 61.048249999999996 C 123.56937500000001 74.75437500000001, 122.7485 77.416, 115.161625 93.957875"></path><path stroke="Black" stroke-width="0.6631229369810581" fill="None" d="M122.5495 88.85849999999999 C 117.82325 92.39075, 115.5845 95.326, 112.5 100.5"></path><path stroke="Black" stroke-width="0.6631229369810581" fill="None" d="M124.9375 75.625 C 123.29575 80.05275, 122.848 83.58500000000001, 122.5495 88.85849999999999"></path><path stroke="Black" stroke-width="0.6631229369810581" fill="None" d="M137.375 75.625 C 131.9025 75.625, 128.66875 75.625, 124.9375 75.625"></path><path stroke="Black" stroke-width="0.6631229369810581" fill="None" d="M137.375 63.1875 C 137.375 68.1625, 137.375 71.14750000000001, 137.375 75.625"></path><path stroke="Black" stroke-width="0.6631229369810581" fill="None" d="M137.375 63.1875 C 132.94725 61.54575, 129.415 61.09800000000001, 124.14150000000001 60.799499999999995"></path><path stroke="Black" stroke-width="0.6631229369810581" fill="None" d="M124.14150000000001 60.799499999999995 C 127.17625 68.1625, 127.17625 69.40625, 124.9375 75.625"></path><path stroke="Black" stroke-width="0.6631229369810581" fill="None" d="M124.14150000000001 60.799499999999995 C 120.60925 56.07325, 117.674 53.83449999999999, 112.5 50.75"></path><path stroke="Black" stroke-width="0.6631229369810581" fill="None" d="M112.5 50.75 C 111.45525 54.87925000000001, 111.107 57.46625, 111.704 61.59549999999999"></path><path stroke="Black" stroke-width="0.6631229369810581" fill="None" d="M111.704 61.59549999999999 C 112.05225 68.61025000000001, 118.1715 67.96350000000001, 118.61925 75.625"></path><path stroke="Black" stroke-width="0.6631229369810581" fill="None" d="M118.61925 75.625 C 118.71875 76.86875, 118.71875 79.35624999999999, 118.71875 81.84375"></path><path stroke="Black" stroke-width="0.6631229369810581" fill="None" d="M118.71875 81.84375 C 117.32575 84.8785, 115.7835 86.86850000000001, 113.29599999999999 89.65449999999998"></path><path stroke="Black" stroke-width="0.6631229369810581" fill="None" d="M113.29599999999999 89.65449999999998 C 113.893 93.78375, 113.54475 96.37074999999999, 112.5 100.5"></path><path stroke="Black" stroke-width="0.6631229369810581" fill="None" d="M111.704 61.59549999999999 C 109.2165 64.38149999999999, 107.67425 66.3715, 106.28125 69.40625"></path><path stroke="Black" stroke-width="0.6631229369810581" fill="None" d="M106.28125 69.40625 C 109.390625 72.515625, 110.634375 73.759375, 112.5 75.625"></path><path stroke="Black" stroke-width="0.6631229369810581" fill="None" d="M112.5 75.625 C 114.49 75.625, 116.9775 75.625, 118.61925 75.625"></path><path stroke="Black" stroke-width="0.6631229369810581" fill="None" d="M111.878125 65.799375 C 109.76375 66.81925000000001, 108.719 68.1625, 108.047375 70.52562499999999"></path><path stroke="Black" stroke-width="0.6631229369810581" fill="None" d="M113.86812499999999 69.03312500000001 C 111.45525 69.60525000000001, 110.46025 70.35149999999999, 109.639375 72.21712500000001"></path><path stroke="Black" stroke-width="0.6631229369810581" fill="None" d="M116.23125 71.79425 C 113.3955 71.5455, 112.74875 71.99324999999999, 111.2065 73.78424999999999"></path><path stroke="Black" stroke-width="0.6631229369810581" fill="None" d="M115.758625 76.445875 C 115.858125 77.241875, 115.858125 77.988125, 115.708875 78.336375"></path><path stroke="Black" stroke-width="0.6631229369810581" fill="None" d="M117.251125 76.445875 C 117.72375 77.86375000000001, 117.72375 78.61000000000001, 117.052125 79.779125"></path><path stroke="Black" stroke-width="0.6631229369810581" fill="None" d="M135.708375 65.50087500000001 C 131.65375 63.685, 128.9175 63.93375, 126.47975 64.82925"></path><path stroke="Black" stroke-width="0.6631229369810581" fill="None" d="M135.708375 67.938625 C 131.405 66.66999999999999, 129.9125 66.66999999999999, 127.051875 67.291875"></path><path stroke="Black" stroke-width="0.6631229369810581" fill="None" d="M135.708375 71.07287500000001 C 131.65375 69.40625, 129.66375 69.40625, 126.902625 70.127625"></path><path stroke="Black" stroke-width="0.6631229369810581" fill="None" d="M136.355125 73.510625 C 130.9075 72.14250000000001, 128.9175 72.14250000000001, 126.38025 72.59025"></path><path stroke="Black" stroke-width="0.6631229369810581" fill="None" d="M119.688875 60.575625 C 118.669 60.65025, 118.1715 60.65025, 117.52475 60.65025"></path><path stroke="Black" stroke-width="0.6631229369810581" fill="None" d="M119.688875 60.575625 C 118.669 59.0085, 117.42525 57.76474999999999, 115.684 56.570750000000004"></path><path stroke="Black" stroke-width="0.6631229369810581" fill="None" d="M115.684 56.570750000000004 C 115.062125 57.540875, 116.3805 59.20750000000001, 117.52475 60.65025"></path><path stroke="Black" stroke-width="0.6631229369810581" fill="None" d="M116.281 60.99850000000001 C 115.485 61.19749999999999, 114.49000000000001 61.44624999999999, 114.017375 61.57062500000001"></path><path stroke="Black" stroke-width="0.6631229369810581" fill="None" d="M116.281 60.99850000000001 C 114.863125 58.58562499999999, 114.49000000000001 58.212500000000006, 113.569625 57.391625000000005"></path><path stroke="Black" stroke-width="0.6631229369810581" fill="None" d="M113.569625 57.391625000000005 C 113.61937499999999 59.331875, 113.694 60.501000000000005, 114.017375 61.57062500000001"></path><path stroke="Black" stroke-width="0.6631229369810581" fill="None" d="M151.95175 55.27725000000001 C 138.245625 61.81937500000001, 135.584 60.99850000000001, 119.042125 53.411625000000015"></path><path stroke="Black" stroke-width="0.6631229369810581" fill="None" d="M124.14150000000001 60.799499999999995 C 120.60925 56.07325, 117.674 53.83449999999999, 112.5 50.75"></path><path stroke="Black" stroke-width="0.6631229369810581" fill="None" d="M137.375 63.1875 C 132.94725 61.54575, 129.415 61.09800000000001, 124.14150000000001 60.799499999999995"></path><path stroke="Black" stroke-width="0.6631229369810581" fill="None" d="M137.375 75.625 C 137.375 70.1525, 137.375 66.91874999999999, 137.375 63.1875"></path><path stroke="Black" stroke-width="0.6631229369810581" fill="None" d="M149.8125 75.625 C 144.8375 75.625, 141.8525 75.625, 137.375 75.625"></path><path stroke="Black" stroke-width="0.6631229369810581" fill="None" d="M149.8125 75.625 C 151.45425 71.19725, 151.902 67.66499999999999, 152.2005 62.39150000000001"></path><path stroke="Black" stroke-width="0.6631229369810581" fill="None" d="M152.2005 62.39150000000001 C 144.8375 65.42625000000001, 143.59375 65.42625000000001, 137.375 63.1875"></path><path stroke="Black" stroke-width="0.6631229369810581" fill="None" d="M152.2005 62.39150000000001 C 156.92675 58.85925, 159.1655 55.92400000000001, 162.25 50.75"></path><path stroke="Black" stroke-width="0.6631229369810581" fill="None" d="M162.25 50.75 C 158.12075 49.70525000000001, 155.53375 49.357, 151.4045 49.95400000000001"></path><path stroke="Black" stroke-width="0.6631229369810581" fill="None" d="M151.4045 49.95400000000001 C 144.38975 50.302250000000015, 145.0365 56.42150000000001, 137.375 56.869249999999994"></path><path stroke="Black" stroke-width="0.6631229369810581" fill="None" d="M137.375 56.869249999999994 C 136.13125 56.96875, 133.64375 56.96875, 131.15625 56.96875"></path><path stroke="Black" stroke-width="0.6631229369810581" fill="None" d="M131.15625 56.96875 C 128.1215 55.57575, 126.1315 54.033500000000004, 123.3455 51.54599999999999"></path><path stroke="Black" stroke-width="0.6631229369810581" fill="None" d="M123.3455 51.54599999999999 C 119.21625 52.143, 116.62925 51.79474999999999, 112.5 50.75"></path><path stroke="Black" stroke-width="0.6631229369810581" fill="None" d="M151.4045 49.95400000000001 C 148.6185 47.466499999999996, 146.6285 45.92425, 143.59375 44.53125"></path><path stroke="Black" stroke-width="0.6631229369810581" fill="None" d="M143.59375 44.53125 C 140.484375 47.640625, 139.240625 48.884375000000006, 137.375 50.75"></path><path stroke="Black" stroke-width="0.6631229369810581" fill="None" d="M137.375 50.75 C 137.375 52.74000000000001, 137.375 55.22749999999999, 137.375 56.869249999999994"></path><path stroke="Black" stroke-width="0.6631229369810581" fill="None" d="M147.200625 50.12812500000001 C 146.18075 48.013750000000016, 144.8375 46.968999999999994, 142.474375 46.29737499999999"></path><path stroke="Black" stroke-width="0.6631229369810581" fill="None" d="M143.966875 52.11812499999999 C 143.39475 49.70525000000001, 142.6485 48.71025, 140.782875 47.889375"></path><path stroke="Black" stroke-width="0.6631229369810581" fill="None" d="M141.20575 54.48124999999999 C 141.4545 51.6455, 141.00675 50.99875, 139.21575 49.456500000000005"></path><path stroke="Black" stroke-width="0.6631229369810581" fill="None" d="M136.554125 54.008624999999995 C 135.758125 54.108125, 135.011875 54.108125, 134.663625 53.958875000000006"></path><path stroke="Black" stroke-width="0.6631229369810581" fill="None" d="M136.554125 55.501125 C 135.13625 55.973749999999995, 134.39 55.973749999999995, 133.220875 55.30212499999999"></path><path stroke="Black" stroke-width="0.6631229369810581" fill="None" d="M147.499125 73.95837499999999 C 149.315 69.90375, 149.06625 67.16749999999999, 148.17075 64.72975"></path><path stroke="Black" stroke-width="0.6631229369810581" fill="None" d="M145.061375 73.95837499999999 C 146.33 69.655, 146.33 68.1625, 145.708125 65.301875"></path><path stroke="Black" stroke-width="0.6631229369810581" fill="None" d="M141.927125 73.95837499999999 C 143.59375 69.90375, 143.59375 67.91375, 142.872375 65.152625"></path><path stroke="Black" stroke-width="0.6631229369810581" fill="None" d="M139.489375 74.60512499999999 C 140.8575 69.1575, 140.8575 67.16749999999999, 140.40975 64.63024999999999"></path><path stroke="Black" stroke-width="0.6631229369810581" fill="None" d="M152.424375 57.938874999999996 C 152.34975 56.91899999999998, 152.34975 56.42150000000001, 152.34975 55.77475000000001"></path><path stroke="Black" stroke-width="0.6631229369810581" fill="None" d="M152.424375 57.938874999999996 C 153.9915 56.91900000000001, 155.23525 55.675250000000005, 156.42925 53.934"></path><path stroke="Black" stroke-width="0.6631229369810581" fill="None" d="M156.42925 53.934 C 155.459125 53.31212500000001, 153.7925 54.63050000000001, 152.34975 55.77475000000001"></path><path stroke="Black" stroke-width="0.6631229369810581" fill="None" d="M152.0015 54.531000000000006 C 151.8025 53.735000000000014, 151.55375 52.74000000000001, 151.429375 52.267375000000015"></path><path stroke="Black" stroke-width="0.6631229369810581" fill="None" d="M152.0015 54.531000000000006 C 154.414375 53.113125, 154.7875 52.74000000000001, 155.608375 51.819625"></path><path stroke="Black" stroke-width="0.6631229369810581" fill="None" d="M155.608375 51.819625 C 153.668125 51.86937499999999, 152.499 51.94400000000002, 151.429375 52.267375000000015"></path><path stroke="Black" stroke-width="0.7885905147793751" fill="None" d="M168.021 65.5755 C 175.185 85.82374999999999, 178.6675 87.6645, 202.79625 96.61949999999999"></path><path stroke="Black" stroke-width="0.7885905147793751" fill="None" d="M190.309 98.90799999999999 C 198.5675 97.714, 203.7415 98.41050000000001, 212 100.5"></path><path stroke="Black" stroke-width="0.7885905147793751" fill="None" d="M174.6875 88.0625 C 180.757 90.8485, 184.737 93.93299999999999, 190.309 98.90799999999999"></path><path stroke="Black" stroke-width="0.7885905147793751" fill="None" d="M162.25 100.5 C 167.7225 95.0275, 170.95625 91.79374999999999, 174.6875 88.0625"></path><path stroke="Black" stroke-width="0.7885905147793751" fill="None" d="M149.8125 88.0625 C 154.7875 93.0375, 157.7725 96.02250000000001, 162.25 100.5"></path><path stroke="Black" stroke-width="0.7885905147793751" fill="None" d="M149.8125 88.0625 C 152.5985 81.993, 155.683 78.013, 160.658 72.441"></path><path stroke="Black" stroke-width="0.7885905147793751" fill="None" d="M160.658 72.441 C 164.98625 82.83875, 166.23 84.08250000000001, 174.6875 88.0625"></path><path stroke="Black" stroke-width="0.7885905147793751" fill="None" d="M160.658 72.441 C 159.464 64.1825, 160.1605 59.0085, 162.25 50.75"></path><path stroke="Black" stroke-width="0.7885905147793751" fill="None" d="M162.25 50.75 C 167.424 53.83449999999999, 170.35925 56.07325, 173.8915 60.799499999999995"></path><path stroke="Black" stroke-width="0.7885905147793751" fill="None" d="M173.8915 60.799499999999995 C 180.558 68.1625, 173.792 73.63499999999999, 181.00575 81.74425"></path><path stroke="Black" stroke-width="0.7885905147793751" fill="None" d="M181.00575 81.74425 C 182.15 83.0875, 184.6375 85.57499999999999, 187.125 88.0625"></path><path stroke="Black" stroke-width="0.7885905147793751" fill="None" d="M187.125 88.0625 C 191.55275 89.70425, 195.085 90.15199999999999, 200.3585 90.4505"></path><path stroke="Black" stroke-width="0.7885905147793751" fill="None" d="M200.3585 90.4505 C 203.89075 95.17675, 206.826 97.41550000000001, 212 100.5"></path><path stroke="Black" stroke-width="0.7885905147793751" fill="None" d="M173.8915 60.799499999999995 C 179.165 61.09800000000001, 182.69725 61.54575, 187.125 63.1875"></path><path stroke="Black" stroke-width="0.7885905147793751" fill="None" d="M187.125 63.1875 C 187.125 69.40625, 187.125 71.89375000000001, 187.125 75.625"></path><path stroke="Black" stroke-width="0.7885905147793751" fill="None" d="M187.125 75.625 C 185.135 77.61500000000001, 182.6475 80.10249999999999, 181.00575 81.74425"></path><path stroke="Black" stroke-width="0.7885905147793751" fill="None" d="M177.92125 65.17750000000001 C 181.0555 64.083, 183.4435 64.38150000000002, 186.47825 66.07300000000001"></path><path stroke="Black" stroke-width="0.7885905147793751" fill="None" d="M179.165 70.40125 C 182.15 68.56049999999999, 183.89125 68.31174999999999, 186.57775 69.35650000000001"></path><path stroke="Black" stroke-width="0.7885905147793751" fill="None" d="M179.563 75.5255 C 182.15 72.441, 183.2445 72.24199999999999, 186.57775 72.49074999999999"></path><path stroke="Black" stroke-width="0.7885905147793751" fill="None" d="M184.68725 79.7045 C 185.38375 80.6, 186.13 81.34625, 186.6275 81.54525000000001"></path><path stroke="Black" stroke-width="0.7885905147793751" fill="None" d="M183.19475 81.197 C 184.14 83.0875, 184.88625 83.83375000000001, 186.727 84.33125000000001"></path><path stroke="Black" stroke-width="0.7885905147793751" fill="None" d="M153.7925 88.70925 C 156.03125 82.83875, 159.01625 80.35125, 162.3495 78.809"></path><path stroke="Black" stroke-width="0.7885905147793751" fill="None" d="M156.23025 91.14699999999999 C 159.265 85.57499999999999, 160.7575 84.08250000000001, 164.24 81.84375"></path><path stroke="Black" stroke-width="0.7885905147793751" fill="None" d="M159.3645 94.28125 C 161.7525 88.56, 163.7425 86.57, 167.225 84.53025"></path><path stroke="Black" stroke-width="0.7885905147793751" fill="None" d="M161.1555 97.36574999999999 C 165.235 90.55000000000001, 167.225 88.56, 170.21 86.47050000000002"></path><path stroke="Black" stroke-width="0.7885905147793751" fill="None" d="M164.88675 67.7645 C 165.98125 66.81925000000001, 166.47875 66.32175000000001, 167.1255 65.67500000000001"></path><path stroke="Black" stroke-width="0.7885905147793751" fill="None" d="M164.88675 67.7645 C 164.3395 65.17750000000001, 164.3395 62.69, 164.88675 59.75475"></path><path stroke="Black" stroke-width="0.7885905147793751" fill="None" d="M164.88675 59.75475 C 166.47875 60.10300000000001, 166.827 63.087999999999994, 167.1255 65.67500000000001"></path><path stroke="Black" stroke-width="0.7885905147793751" fill="None" d="M168.7175 64.77949999999998 C 169.7125 64.1825, 170.95625 63.43625, 171.55325 63.087999999999994"></path><path stroke="Black" stroke-width="0.7885905147793751" fill="None" d="M168.7175 64.77949999999998 C 167.7225 60.94874999999999, 167.7225 60.202499999999986, 167.822 58.46125000000001"></path><path stroke="Black" stroke-width="0.7885905147793751" fill="None" d="M167.822 58.46125000000001 C 169.7125 60.45124999999999, 170.807 61.69499999999999, 171.55325 63.087999999999994"></path><path stroke="Black" stroke-width="0.6631229369810581" fill="None" d="M201.70175 55.27725000000001 C 187.995625 61.81937500000001, 185.334 60.99850000000001, 168.792125 53.411625000000015"></path><path stroke="Black" stroke-width="0.6631229369810581" fill="None" d="M173.8915 60.799499999999995 C 170.35925 56.07325, 167.424 53.83449999999999, 162.25 50.75"></path><path stroke="Black" stroke-width="0.6631229369810581" fill="None" d="M187.125 63.1875 C 182.69725 61.54575, 179.165 61.09800000000001, 173.8915 60.799499999999995"></path><path stroke="Black" stroke-width="0.6631229369810581" fill="None" d="M187.125 75.625 C 187.125 70.1525, 187.125 66.91874999999999, 187.125 63.1875"></path><path stroke="Black" stroke-width="0.6631229369810581" fill="None" d="M199.5625 75.625 C 194.5875 75.625, 191.6025 75.625, 187.125 75.625"></path><path stroke="Black" stroke-width="0.6631229369810581" fill="None" d="M199.5625 75.625 C 201.20425 71.19725, 201.652 67.66499999999999, 201.9505 62.39150000000001"></path><path stroke="Black" stroke-width="0.6631229369810581" fill="None" d="M201.9505 62.39150000000001 C 194.5875 65.42625000000001, 193.34375 65.42625000000001, 187.125 63.1875"></path><path stroke="Black" stroke-width="0.6631229369810581" fill="None" d="M201.9505 62.39150000000001 C 206.67675 58.85925, 208.9155 55.92400000000001, 212 50.75"></path><path stroke="Black" stroke-width="0.6631229369810581" fill="None" d="M212 50.75 C 207.87075 49.70525000000001, 205.28375 49.357, 201.1545 49.95400000000001"></path><path stroke="Black" stroke-width="0.6631229369810581" fill="None" d="M201.1545 49.95400000000001 C 194.13975 50.302250000000015, 194.7865 56.42150000000001, 187.125 56.869249999999994"></path><path stroke="Black" stroke-width="0.6631229369810581" fill="None" d="M187.125 56.869249999999994 C 185.88125 56.96875, 183.39375 56.96875, 180.90625 56.96875"></path><path stroke="Black" stroke-width="0.6631229369810581" fill="None" d="M180.90625 56.96875 C 177.8715 55.57575, 175.8815 54.033500000000004, 173.09550000000002 51.54599999999999"></path><path stroke="Black" stroke-width="0.6631229369810581" fill="None" d="M173.09550000000002 51.54599999999999 C 168.96625 52.143, 166.37925 51.79474999999999, 162.25 50.75"></path><path stroke="Black" stroke-width="0.6631229369810581" fill="None" d="M201.1545 49.95400000000001 C 198.3685 47.466499999999996, 196.3785 45.92425, 193.34375 44.53125"></path><path stroke="Black" stroke-width="0.6631229369810581" fill="None" d="M193.34375 44.53125 C 190.234375 47.640625, 188.990625 48.884375000000006, 187.125 50.75"></path><path stroke="Black" stroke-width="0.6631229369810581" fill="None" d="M187.125 50.75 C 187.125 52.74000000000001, 187.125 55.22749999999999, 187.125 56.869249999999994"></path><path stroke="Black" stroke-width="0.6631229369810581" fill="None" d="M196.950625 50.12812500000001 C 195.93075 48.013750000000016, 194.5875 46.968999999999994, 192.224375 46.29737499999999"></path><path stroke="Black" stroke-width="0.6631229369810581" fill="None" d="M193.716875 52.11812499999999 C 193.14475 49.70525000000001, 192.3985 48.71025, 190.532875 47.889375"></path><path stroke="Black" stroke-width="0.6631229369810581" fill="None" d="M190.95575 54.48124999999999 C 191.2045 51.6455, 190.75675 50.99875, 188.96575 49.456500000000005"></path><path stroke="Black" stroke-width="0.6631229369810581" fill="None" d="M186.304125 54.008624999999995 C 185.508125 54.108125, 184.761875 54.108125, 184.413625 53.958875000000006"></path><path stroke="Black" stroke-width="0.6631229369810581" fill="None" d="M186.304125 55.501125 C 184.88625 55.973749999999995, 184.14 55.973749999999995, 182.970875 55.30212499999999"></path><path stroke="Black" stroke-width="0.6631229369810581" fill="None" d="M197.249125 73.95837499999999 C 199.065 69.90375, 198.81625 67.16749999999999, 197.92075 64.72975"></path><path stroke="Black" stroke-width="0.6631229369810581" fill="None" d="M194.811375 73.95837499999999 C 196.08 69.655, 196.08 68.1625, 195.458125 65.301875"></path><path stroke="Black" stroke-width="0.6631229369810581" fill="None" d="M191.677125 73.95837499999999 C 193.34375 69.90375, 193.34375 67.91375, 192.622375 65.152625"></path><path stroke="Black" stroke-width="0.6631229369810581" fill="None" d="M189.239375 74.60512499999999 C 190.6075 69.1575, 190.6075 67.16749999999999, 190.15975 64.63024999999999"></path><path stroke="Black" stroke-width="0.6631229369810581" fill="None" d="M202.174375 57.938874999999996 C 202.09975 56.91899999999998, 202.09975 56.42150000000001, 202.09975 55.77475000000001"></path><path stroke="Black" stroke-width="0.6631229369810581" fill="None" d="M202.174375 57.938874999999996 C 203.7415 56.91900000000001, 204.98525 55.675250000000005, 206.17925 53.934"></path><path stroke="Black" stroke-width="0.6631229369810581" fill="None" d="M206.17925 53.934 C 205.209125 53.31212500000001, 203.5425 54.63050000000001, 202.09975 55.77475000000001"></path><path stroke="Black" stroke-width="0.6631229369810581" fill="None" d="M201.7515 54.531000000000006 C 201.5525 53.735000000000014, 201.30375 52.74000000000001, 201.179375 52.267375000000015"></path><path stroke="Black" stroke-width="0.6631229369810581" fill="None" d="M201.7515 54.531000000000006 C 204.164375 53.113125, 204.5375 52.74000000000001, 205.358375 51.819625"></path><path stroke="Black" stroke-width="0.6631229369810581" fill="None" d="M205.358375 51.819625 C 203.418125 51.86937499999999, 202.249 51.94400000000002, 201.179375 52.267375000000015"></path><path stroke="Black" stroke-width="0.6631229369810581" fill="None" d="M207.47275 90.20175 C 200.930625 76.49562499999999, 201.7515 73.834, 209.33837499999998 57.292125"></path><path stroke="Black" stroke-width="0.6631229369810581" fill="None" d="M201.9505 62.39150000000001 C 206.67675 58.85925, 208.9155 55.92400000000001, 212 50.75"></path><path stroke="Black" stroke-width="0.6631229369810581" fill="None" d="M199.5625 75.625 C 201.20425 71.19725, 201.652 67.66499999999999, 201.9505 62.39150000000001"></path><path stroke="Black" stroke-width="0.6631229369810581" fill="None" d="M187.125 75.625 C 192.5975 75.625, 195.83125 75.625, 199.5625 75.625"></path><path stroke="Black" stroke-width="0.6631229369810581" fill="None" d="M187.125 88.0625 C 187.125 83.0875, 187.125 80.10249999999999, 187.125 75.625"></path><path stroke="Black" stroke-width="0.6631229369810581" fill="None" d="M187.125 88.0625 C 191.55275 89.70425, 195.085 90.15199999999999, 200.3585 90.4505"></path><path stroke="Black" stroke-width="0.6631229369810581" fill="None" d="M200.3585 90.4505 C 197.32375 83.0875, 197.32375 81.84375, 199.5625 75.625"></path><path stroke="Black" stroke-width="0.6631229369810581" fill="None" d="M200.3585 90.4505 C 203.89075 95.17675, 206.826 97.41550000000001, 212 100.5"></path><path stroke="Black" stroke-width="0.6631229369810581" fill="None" d="M212 100.5 C 213.04475 96.37074999999999, 213.393 93.78375, 212.796 89.65450000000001"></path><path stroke="Black" stroke-width="0.6631229369810581" fill="None" d="M212.796 89.65450000000001 C 212.44774999999998 82.63974999999999, 206.3285 83.28649999999999, 205.88075 75.625"></path><path stroke="Black" stroke-width="0.6631229369810581" fill="None" d="M205.88075 75.625 C 205.78125 74.38125, 205.78125 71.89375000000001, 205.78125 69.40625"></path><path stroke="Black" stroke-width="0.6631229369810581" fill="None" d="M205.78125 69.40625 C 207.17425 66.3715, 208.7165 64.38149999999999, 211.204 61.595500000000015"></path><path stroke="Black" stroke-width="0.6631229369810581" fill="None" d="M211.204 61.595500000000015 C 210.607 57.46625, 210.95525 54.87925000000001, 212 50.75"></path><path stroke="Black" stroke-width="0.6631229369810581" fill="None" d="M212.796 89.65450000000001 C 215.2835 86.86850000000001, 216.82575 84.8785, 218.21875 81.84375"></path><path stroke="Black" stroke-width="0.6631229369810581" fill="None" d="M218.21875 81.84375 C 215.109375 78.734375, 213.865625 77.490625, 212 75.625"></path><path stroke="Black" stroke-width="0.6631229369810581" fill="None" d="M212 75.625 C 210.01 75.625, 207.5225 75.625, 205.88075 75.625"></path><path stroke="Black" stroke-width="0.6631229369810581" fill="None" d="M212.621875 85.450625 C 214.73624999999998 84.43074999999999, 215.781 83.0875, 216.452625 80.72437500000001"></path><path stroke="Black" stroke-width="0.6631229369810581" fill="None" d="M210.631875 82.21687499999999 C 213.04475 81.64474999999999, 214.03975 80.89850000000001, 214.860625 79.03287499999999"></path><path stroke="Black" stroke-width="0.6631229369810581" fill="None" d="M208.26875 79.45575 C 211.1045 79.7045, 211.75125 79.25675000000001, 213.2935 77.46575000000001"></path><path stroke="Black" stroke-width="0.6631229369810581" fill="None" d="M208.741375 74.804125 C 208.641875 74.008125, 208.641875 73.261875, 208.791125 72.913625"></path><path stroke="Black" stroke-width="0.6631229369810581" fill="None" d="M207.248875 74.804125 C 206.77625 73.38624999999999, 206.77625 72.63999999999999, 207.447875 71.470875"></path><path stroke="Black" stroke-width="0.6631229369810581" fill="None" d="M188.791625 85.74912499999999 C 192.84625 87.565, 195.5825 87.31625, 198.02025 86.42075"></path><path stroke="Black" stroke-width="0.6631229369810581" fill="None" d="M188.791625 83.311375 C 193.095 84.58000000000001, 194.5875 84.58000000000001, 197.448125 83.958125"></path><path stroke="Black" stroke-width="0.6631229369810581" fill="None" d="M188.791625 80.17712499999999 C 192.84625 81.84375, 194.83625 81.84375, 197.597375 81.122375"></path><path stroke="Black" stroke-width="0.6631229369810581" fill="None" d="M188.144875 77.739375 C 193.5925 79.10749999999999, 195.5825 79.10749999999999, 198.11975 78.65975"></path><path stroke="Black" stroke-width="0.6631229369810581" fill="None" d="M204.811125 90.674375 C 205.83100000000002 90.59975, 206.3285 90.59975, 206.97525 90.59975"></path><path stroke="Black" stroke-width="0.6631229369810581" fill="None" d="M204.811125 90.674375 C 205.831 92.2415, 207.07475 93.48525000000001, 208.816 94.67925"></path><path stroke="Black" stroke-width="0.6631229369810581" fill="None" d="M208.816 94.67925 C 209.437875 93.709125, 208.1195 92.04249999999999, 206.97525 90.59975"></path><path stroke="Black" stroke-width="0.6631229369810581" fill="None" d="M208.219 90.2515 C 209.015 90.05250000000001, 210.01 89.80375000000001, 210.48262499999998 89.679375"></path><path stroke="Black" stroke-width="0.6631229369810581" fill="None" d="M208.219 90.2515 C 209.636875 92.664375, 210.01 93.0375, 210.930375 93.858375"></path><path stroke="Black" stroke-width="0.6631229369810581" fill="None" d="M210.930375 93.858375 C 210.880625 91.918125, 210.80599999999998 90.749, 210.48262499999998 89.679375"></path><path stroke="Black" stroke-width="1.1152354011597732" fill="None" d="M42.65100000000001 188.458 C 83.14750000000001 174.13, 86.82900000000001 167.165, 104.739 118.9075"></path><path stroke="Black" stroke-width="1.1152354011597732" fill="None" d="M109.316 143.882 C 106.928 127.365, 108.321 117.01700000000001, 112.5 100.5"></path><path stroke="Black" stroke-width="1.1152354011597732" fill="None" d="M87.625 175.125 C 93.197 162.986, 99.366 155.026, 109.316 143.882"></path><path stroke="Black" stroke-width="1.1152354011597732" fill="None" d="M112.5 200 C 101.555 189.055, 95.0875 182.5875, 87.625 175.125"></path><path stroke="Black" stroke-width="1.1152354011597732" fill="None" d="M87.625 224.875 C 97.575 214.925, 103.545 208.95499999999998, 112.5 200"></path><path stroke="Black" stroke-width="1.1152354011597732" fill="None" d="M87.625 224.875 C 75.48599999999999 219.303, 67.526 213.13400000000001, 56.382000000000005 203.184"></path><path stroke="Black" stroke-width="1.1152354011597732" fill="None" d="M56.382000000000005 203.184 C 77.17750000000001 194.5275, 79.66499999999999 192.04, 87.625 175.125"></path><path stroke="Black" stroke-width="1.1152354011597732" fill="None" d="M56.382000000000005 203.184 C 39.864999999999995 205.572, 29.51700000000001 204.179, 13 200"></path><path stroke="Black" stroke-width="1.1152354011597732" fill="None" d="M13 200 C 19.16900000000001 189.652, 23.646500000000003 183.7815, 33.09899999999999 176.71699999999998"></path><path stroke="Black" stroke-width="1.1152354011597732" fill="None" d="M33.09899999999999 176.71699999999998 C 47.825 163.38400000000001, 58.769999999999996 176.916, 74.9885 162.4885"></path><path stroke="Black" stroke-width="1.1152354011597732" fill="None" d="M74.9885 162.4885 C 77.67500000000001 160.2, 82.65 155.225, 87.625 150.25"></path><path stroke="Black" stroke-width="1.1152354011597732" fill="None" d="M87.625 150.25 C 90.9085 141.3945, 91.804 134.32999999999998, 92.401 123.783"></path><path stroke="Black" stroke-width="1.1152354011597732" fill="None" d="M92.401 123.783 C 101.8535 116.7185, 106.331 110.848, 112.5 100.5"></path><path stroke="Black" stroke-width="1.1152354011597732" fill="None" d="M33.09899999999999 176.71699999999998 C 33.696 166.17, 34.591499999999996 159.1055, 37.875 150.25"></path><path stroke="Black" stroke-width="1.1152354011597732" fill="None" d="M37.875 150.25 C 50.3125 150.25, 55.2875 150.25, 62.75 150.25"></path><path stroke="Black" stroke-width="1.1152354011597732" fill="None" d="M62.75 150.25 C 66.72999999999999 154.23, 71.70500000000001 159.205, 74.9885 162.4885"></path><path stroke="Black" stroke-width="1.1152354011597732" fill="None" d="M41.855000000000004 168.6575 C 39.666 162.389, 40.263000000000005 157.613, 43.646 151.5435"></path><path stroke="Black" stroke-width="1.1152354011597732" fill="None" d="M52.3025 166.17 C 48.620999999999995 160.2, 48.12349999999999 156.7175, 50.213 151.3445"></path><path stroke="Black" stroke-width="1.1152354011597732" fill="None" d="M62.551 165.374 C 56.382000000000005 160.2, 55.984 158.011, 56.481500000000004 151.3445"></path><path stroke="Black" stroke-width="1.1152354011597732" fill="None" d="M70.90899999999999 155.1255 C 72.69999999999999 153.7325, 74.1925 152.24, 74.59049999999999 151.245"></path><path stroke="Black" stroke-width="1.1152354011597732" fill="None" d="M73.894 158.1105 C 77.67500000000001 156.22, 79.16749999999999 154.7275, 80.1625 151.046"></path><path stroke="Black" stroke-width="1.1152354011597732" fill="None" d="M88.9185 216.915 C 77.17750000000001 212.4375, 72.2025 206.4675, 69.118 199.801"></path><path stroke="Black" stroke-width="1.1152354011597732" fill="None" d="M93.794 212.0395 C 82.65 205.97, 79.66499999999999 202.985, 75.1875 196.02"></path><path stroke="Black" stroke-width="1.1152354011597732" fill="None" d="M100.0625 205.77100000000002 C 88.62 200.995, 84.64 197.015, 80.56049999999999 190.05"></path><path stroke="Black" stroke-width="1.1152354011597732" fill="None" d="M106.2315 202.189 C 92.6 194.03, 88.62 190.05, 84.441 184.07999999999998"></path><path stroke="Black" stroke-width="1.1152354011597732" fill="None" d="M47.028999999999996 194.7265 C 45.13849999999999 192.5375, 44.14349999999999 191.5425, 42.85000000000001 190.249"></path><path stroke="Black" stroke-width="1.1152354011597732" fill="None" d="M47.028999999999996 194.7265 C 41.855000000000004 195.821, 36.879999999999995 195.821, 31.009500000000003 194.7265"></path><path stroke="Black" stroke-width="1.1152354011597732" fill="None" d="M31.009500000000003 194.7265 C 31.70599999999999 191.5425, 37.676 190.846, 42.85000000000001 190.249"></path><path stroke="Black" stroke-width="1.1152354011597732" fill="None" d="M41.059 187.065 C 39.864999999999995 185.075, 38.3725 182.5875, 37.676 181.39350000000002"></path><path stroke="Black" stroke-width="1.1152354011597732" fill="None" d="M41.059 187.065 C 33.397499999999994 189.055, 31.905 189.055, 28.4225 188.856"></path><path stroke="Black" stroke-width="1.1152354011597732" fill="None" d="M28.4225 188.856 C 32.40249999999999 185.075, 34.89 182.886, 37.676 181.39350000000002"></path><path stroke="Black" stroke-width="0.9377974509992915" fill="None" d="M22.054500000000004 121.0965 C 35.13875 148.50875000000002, 33.497 153.832, 18.32325 186.91575"></path><path stroke="Black" stroke-width="0.9377974509992915" fill="None" d="M33.099000000000004 176.71699999999998 C 23.646499999999996 183.7815, 19.169000000000004 189.652, 13 200"></path><path stroke="Black" stroke-width="0.9377974509992915" fill="None" d="M37.875 150.25 C 34.591499999999996 159.1055, 33.696 166.17000000000002, 33.099000000000004 176.71699999999998"></path><path stroke="Black" stroke-width="0.9377974509992915" fill="None" d="M62.75 150.25 C 51.805 150.25, 45.337500000000006 150.25, 37.875 150.25"></path><path stroke="Black" stroke-width="0.9377974509992915" fill="None" d="M62.75 125.375 C 62.75 135.325, 62.75 141.29500000000002, 62.75 150.25"></path><path stroke="Black" stroke-width="0.9377974509992915" fill="None" d="M62.75 125.375 C 53.8945 122.0915, 46.83 121.196, 36.283 120.599"></path><path stroke="Black" stroke-width="0.9377974509992915" fill="None" d="M36.283 120.599 C 42.3525 135.325, 42.3525 137.8125, 37.875 150.25"></path><path stroke="Black" stroke-width="0.9377974509992915" fill="None" d="M36.283 120.599 C 29.2185 111.1465, 23.348000000000006 106.66900000000001, 13 100.5"></path><path stroke="Black" stroke-width="0.9377974509992915" fill="None" d="M13 100.5 C 10.910500000000006 108.7585, 10.213999999999999 113.9325, 11.407999999999994 122.191"></path><path stroke="Black" stroke-width="0.9377974509992915" fill="None" d="M11.407999999999994 122.191 C 12.104500000000002 136.22050000000002, 24.342999999999996 134.927, 25.238500000000002 150.25"></path><path stroke="Black" stroke-width="0.9377974509992915" fill="None" d="M25.238500000000002 150.25 C 25.4375 152.7375, 25.4375 157.7125, 25.4375 162.6875"></path><path stroke="Black" stroke-width="0.9377974509992915" fill="None" d="M25.4375 162.6875 C 22.6515 168.757, 19.567 172.737, 14.591999999999999 178.309"></path><path stroke="Black" stroke-width="0.9377974509992915" fill="None" d="M14.591999999999999 178.309 C 15.786000000000001 186.5675, 15.089500000000001 191.7415, 13 200"></path><path stroke="Black" stroke-width="0.9377974509992915" fill="None" d="M11.407999999999994 122.191 C 6.432999999999993 127.763, 3.3485000000000014 131.743, 0.5625 137.8125"></path><path stroke="Black" stroke-width="0.9377974509992915" fill="None" d="M0.5625 137.8125 C 6.78125 144.03125, 9.268749999999997 146.51875, 13 150.25"></path><path stroke="Black" stroke-width="0.9377974509992915" fill="None" d="M13 150.25 C 16.979999999999997 150.25, 21.955000000000005 150.25, 25.238500000000002 150.25"></path><path stroke="Black" stroke-width="0.9377974509992915" fill="None" d="M11.756250000000001 130.59875 C 7.527500000000003 132.6385, 5.438000000000002 135.325, 4.094750000000005 140.05124999999998"></path><path stroke="Black" stroke-width="0.9377974509992915" fill="None" d="M15.736249999999998 137.06625 C 10.910499999999999 138.2105, 8.920499999999997 139.703, 7.278750000000002 143.43425"></path><path stroke="Black" stroke-width="0.9377974509992915" fill="None" d="M20.462500000000006 142.5885 C 14.790999999999997 142.091, 13.497500000000002 142.9865, 10.413000000000004 146.5685"></path><path stroke="Black" stroke-width="0.9377974509992915" fill="None" d="M19.517249999999997 151.89175 C 19.716249999999995 153.48375, 19.716250000000002 154.97625, 19.417749999999998 155.67275"></path><path stroke="Black" stroke-width="0.9377974509992915" fill="None" d="M22.502250000000004 151.89175 C 23.447500000000005 154.72750000000002, 23.447499999999998 156.22, 22.10425 158.55825"></path><path stroke="Black" stroke-width="0.9377974509992915" fill="None" d="M59.41675 130.00175000000002 C 51.307500000000005 126.37, 45.835 126.8675, 40.959500000000006 128.6585"></path><path stroke="Black" stroke-width="0.9377974509992915" fill="None" d="M59.41675 134.87725 C 50.81 132.34, 47.825 132.34, 42.103750000000005 133.58375"></path><path stroke="Black" stroke-width="0.9377974509992915" fill="None" d="M59.41675 141.14575 C 51.307500000000005 137.8125, 47.3275 137.8125, 41.80525 139.25525"></path><path stroke="Black" stroke-width="0.9377974509992915" fill="None" d="M60.71025 146.02125 C 49.815 143.285, 45.835 143.285, 40.7605 144.1805"></path><path stroke="Black" stroke-width="0.9377974509992915" fill="None" d="M27.37775 120.15125 C 25.337999999999994 120.3005, 24.342999999999996 120.3005, 23.049500000000002 120.3005"></path><path stroke="Black" stroke-width="0.9377974509992915" fill="None" d="M27.37775 120.15125 C 25.338 117.017, 22.850499999999997 114.5295, 19.368000000000002 112.14150000000001"></path><path stroke="Black" stroke-width="0.9377974509992915" fill="None" d="M19.368000000000002 112.14150000000001 C 18.124249999999996 114.08175, 20.761000000000003 117.41499999999999, 23.049500000000002 120.3005"></path><path stroke="Black" stroke-width="0.9377974509992915" fill="None" d="M20.561999999999998 120.997 C 18.97 121.395, 16.980000000000004 121.8925, 16.034750000000003 122.14125"></path><path stroke="Black" stroke-width="0.9377974509992915" fill="None" d="M20.561999999999998 120.997 C 17.726249999999993 116.17125, 16.980000000000004 115.425, 15.139249999999997 113.78325000000001"></path><path stroke="Black" stroke-width="0.9377974509992915" fill="None" d="M15.139249999999997 113.78325000000001 C 15.238749999999996 117.66375, 15.388000000000005 120.002, 16.034750000000003 122.14125"></path><path stroke="Black" stroke-width="0.9377974509992915" fill="None" d="M91.9035 109.5545 C 64.49125 122.63875, 59.168 120.997, 26.084249999999997 105.82325"></path><path stroke="Black" stroke-width="0.9377974509992915" fill="None" d="M36.283 120.599 C 29.2185 111.1465, 23.348000000000006 106.66900000000001, 13 100.5"></path><path stroke="Black" stroke-width="0.9377974509992915" fill="None" d="M62.75 125.375 C 53.8945 122.0915, 46.83 121.196, 36.283 120.599"></path><path stroke="Black" stroke-width="0.9377974509992915" fill="None" d="M62.75 150.25 C 62.75 139.305, 62.75 132.8375, 62.75 125.375"></path><path stroke="Black" stroke-width="0.9377974509992915" fill="None" d="M87.625 150.25 C 77.675 150.25, 71.705 150.25, 62.75 150.25"></path><path stroke="Black" stroke-width="0.9377974509992915" fill="None" d="M87.625 150.25 C 90.9085 141.3945, 91.804 134.32999999999998, 92.401 123.783"></path><path stroke="Black" stroke-width="0.9377974509992915" fill="None" d="M92.401 123.783 C 77.675 129.8525, 75.1875 129.8525, 62.75 125.375"></path><path stroke="Black" stroke-width="0.9377974509992915" fill="None" d="M92.401 123.783 C 101.8535 116.7185, 106.33099999999999 110.84800000000001, 112.5 100.5"></path><path stroke="Black" stroke-width="0.9377974509992915" fill="None" d="M112.5 100.5 C 104.2415 98.41050000000001, 99.0675 97.714, 90.809 98.90799999999999"></path><path stroke="Black" stroke-width="0.9377974509992915" fill="None" d="M90.809 98.90799999999999 C 76.7795 99.6045, 78.07300000000001 111.84299999999999, 62.75 112.7385"></path><path stroke="Black" stroke-width="0.9377974509992915" fill="None" d="M62.75 112.7385 C 60.262499999999996 112.9375, 55.2875 112.9375, 50.3125 112.9375"></path><path stroke="Black" stroke-width="0.9377974509992915" fill="None" d="M50.3125 112.9375 C 44.243 110.1515, 40.263 107.06700000000001, 34.691 102.09199999999998"></path><path stroke="Black" stroke-width="0.9377974509992915" fill="None" d="M34.691 102.09199999999998 C 26.432500000000005 103.286, 21.258499999999998 102.58949999999999, 13 100.5"></path><path stroke="Black" stroke-width="0.9377974509992915" fill="None" d="M90.809 98.90799999999999 C 85.237 93.93299999999999, 81.257 90.8485, 75.1875 88.0625"></path><path stroke="Black" stroke-width="0.9377974509992915" fill="None" d="M75.1875 88.0625 C 68.96875 94.28125, 66.48125 96.76875000000001, 62.75 100.5"></path><path stroke="Black" stroke-width="0.9377974509992915" fill="None" d="M62.75 100.5 C 62.75 104.47999999999999, 62.75 109.45500000000001, 62.75 112.7385"></path><path stroke="Black" stroke-width="0.9377974509992915" fill="None" d="M82.40125 99.25625 C 80.3615 95.0275, 77.675 92.93799999999999, 72.94875 91.59475"></path><path stroke="Black" stroke-width="0.9377974509992915" fill="None" d="M75.93375 103.23624999999998 C 74.7895 98.41050000000001, 73.297 96.4205, 69.56575000000001 94.77875"></path><path stroke="Black" stroke-width="0.9377974509992915" fill="None" d="M70.4115 107.9625 C 70.90899999999999 102.291, 70.0135 100.9975, 66.4315 97.91300000000001"></path><path stroke="Black" stroke-width="0.9377974509992915" fill="None" d="M61.10825 107.01724999999999 C 59.51625 107.21625, 58.02375 107.21625, 57.32725 106.91775"></path><path stroke="Black" stroke-width="0.9377974509992915" fill="None" d="M61.10825 110.00225 C 58.272499999999994 110.9475, 56.78 110.94749999999999, 54.44175 109.60425000000001"></path><path stroke="Black" stroke-width="0.9377974509992915" fill="None" d="M82.99825 146.91675 C 86.63 138.8075, 86.1325 133.335, 84.3415 128.4595"></path><path stroke="Black" stroke-width="0.9377974509992915" fill="None" d="M78.12275 146.91675 C 80.66 138.31, 80.66 135.325, 79.41625 129.60375"></path><path stroke="Black" stroke-width="0.9377974509992915" fill="None" d="M71.85425000000001 146.91674999999998 C 75.1875 138.8075, 75.1875 134.8275, 73.74475 129.30525"></path><path stroke="Black" stroke-width="0.9377974509992915" fill="None" d="M66.97875 148.21025 C 69.715 137.315, 69.715 133.335, 68.8195 128.2605"></path><path stroke="Black" stroke-width="0.9377974509992915" fill="None" d="M92.84875 114.87774999999999 C 92.6995 112.838, 92.6995 111.84299999999999, 92.6995 110.5495"></path><path stroke="Black" stroke-width="0.9377974509992915" fill="None" d="M92.84875 114.87774999999999 C 95.983 112.838, 98.4705 110.3505, 100.85849999999999 106.868"></path><path stroke="Black" stroke-width="0.9377974509992915" fill="None" d="M100.85849999999999 106.868 C 98.91825 105.62424999999999, 95.58500000000001 108.261, 92.6995 110.5495"></path><path stroke="Black" stroke-width="0.9377974509992915" fill="None" d="M92.003 108.062 C 91.605 106.47, 91.1075 104.48, 90.85875 103.53475"></path><path stroke="Black" stroke-width="0.9377974509992915" fill="None" d="M92.003 108.062 C 96.82875 105.22625, 97.575 104.48, 99.21674999999999 102.63925"></path><path stroke="Black" stroke-width="0.9377974509992915" fill="None" d="M99.21674999999999 102.63925 C 95.33625 102.73874999999998, 92.998 102.888, 90.85875 103.53475"></path><path stroke="Black" stroke-width="1.1152354011597732" fill="None" d="M124.042 130.151 C 138.37 170.6475, 145.335 174.329, 193.5925 192.239"></path><path stroke="Black" stroke-width="1.1152354011597732" fill="None" d="M168.618 196.816 C 185.135 194.428, 195.483 195.821, 212 200"></path><path stroke="Black" stroke-width="1.1152354011597732" fill="None" d="M137.375 175.125 C 149.514 180.697, 157.474 186.86599999999999, 168.618 196.816"></path><path stroke="Black" stroke-width="1.1152354011597732" fill="None" d="M112.5 200 C 123.445 189.055, 129.9125 182.5875, 137.375 175.125"></path><path stroke="Black" stroke-width="1.1152354011597732" fill="None" d="M87.625 175.125 C 97.575 185.075, 103.545 191.04500000000002, 112.5 200"></path><path stroke="Black" stroke-width="1.1152354011597732" fill="None" d="M87.625 175.125 C 93.197 162.986, 99.366 155.026, 109.316 143.882"></path><path stroke="Black" stroke-width="1.1152354011597732" fill="None" d="M109.316 143.882 C 117.9725 164.6775, 120.46 167.165, 137.375 175.125"></path><path stroke="Black" stroke-width="1.1152354011597732" fill="None" d="M109.316 143.882 C 106.928 127.365, 108.321 117.01700000000001, 112.5 100.5"></path><path stroke="Black" stroke-width="1.1152354011597732" fill="None" d="M112.5 100.5 C 122.848 106.66900000000001, 128.7185 111.1465, 135.78300000000002 120.59899999999999"></path><path stroke="Black" stroke-width="1.1152354011597732" fill="None" d="M135.78300000000002 120.59899999999999 C 149.11599999999999 135.325, 135.584 146.26999999999998, 150.0115 162.4885"></path><path stroke="Black" stroke-width="1.1152354011597732" fill="None" d="M150.0115 162.4885 C 152.3 165.175, 157.275 170.15, 162.25 175.125"></path><path stroke="Black" stroke-width="1.1152354011597732" fill="None" d="M162.25 175.125 C 171.1055 178.4085, 178.17000000000002 179.304, 188.71699999999998 179.901"></path><path stroke="Black" stroke-width="1.1152354011597732" fill="None" d="M188.71699999999998 179.901 C 195.7815 189.3535, 201.652 193.83100000000002, 212 200"></path><path stroke="Black" stroke-width="1.1152354011597732" fill="None" d="M135.78300000000002 120.59899999999999 C 146.33 121.196, 153.3945 122.0915, 162.25 125.375"></path><path stroke="Black" stroke-width="1.1152354011597732" fill="None" d="M162.25 125.375 C 162.25 137.8125, 162.25 142.7875, 162.25 150.25"></path><path stroke="Black" stroke-width="1.1152354011597732" fill="None" d="M162.25 150.25 C 158.27 154.23, 153.295 159.205, 150.0115 162.4885"></path><path stroke="Black" stroke-width="1.1152354011597732" fill="None" d="M143.8425 129.35500000000002 C 150.111 127.166, 154.887 127.763, 160.9565 131.14600000000002"></path><path stroke="Black" stroke-width="1.1152354011597732" fill="None" d="M146.33 139.8025 C 152.3 136.12099999999998, 155.7825 135.62349999999998, 161.1555 137.713"></path><path stroke="Black" stroke-width="1.1152354011597732" fill="None" d="M147.126 150.051 C 152.3 143.882, 154.489 143.484, 161.1555 143.9815"></path><path stroke="Black" stroke-width="1.1152354011597732" fill="None" d="M157.3745 158.409 C 158.7675 160.2, 160.26 161.6925, 161.255 162.0905"></path><path stroke="Black" stroke-width="1.1152354011597732" fill="None" d="M154.3895 161.394 C 156.28 165.175, 157.7725 166.6675, 161.454 167.6625"></path><path stroke="Black" stroke-width="1.1152354011597732" fill="None" d="M95.585 176.4185 C 100.0625 164.6775, 106.0325 159.7025, 112.699 156.618"></path><path stroke="Black" stroke-width="1.1152354011597732" fill="None" d="M100.4605 181.29399999999998 C 106.53 170.15, 109.515 167.165, 116.48 162.6875"></path><path stroke="Black" stroke-width="1.1152354011597732" fill="None" d="M106.729 187.5625 C 111.505 176.12, 115.485 172.14, 122.45 168.0605"></path><path stroke="Black" stroke-width="1.1152354011597732" fill="None" d="M110.311 193.73149999999998 C 118.47 180.1, 122.45 176.12, 128.42 171.941"></path><path stroke="Black" stroke-width="1.1152354011597732" fill="None" d="M117.7735 134.529 C 119.9625 132.6385, 120.9575 131.6435, 122.251 130.35000000000002"></path><path stroke="Black" stroke-width="1.1152354011597732" fill="None" d="M117.7735 134.529 C 116.679 129.35500000000002, 116.679 124.38, 117.7735 118.5095"></path><path stroke="Black" stroke-width="1.1152354011597732" fill="None" d="M117.7735 118.5095 C 120.9575 119.20599999999999, 121.654 125.176, 122.251 130.35000000000002"></path><path stroke="Black" stroke-width="1.1152354011597732" fill="None" d="M125.435 128.559 C 127.425 127.365, 129.9125 125.8725, 131.1065 125.176"></path><path stroke="Black" stroke-width="1.1152354011597732" fill="None" d="M125.435 128.559 C 123.445 120.8975, 123.445 119.405, 123.644 115.9225"></path><path stroke="Black" stroke-width="1.1152354011597732" fill="None" d="M123.644 115.9225 C 127.425 119.90249999999999, 129.614 122.39, 131.1065 125.176"></path><path stroke="Black" stroke-width="0.9377974509992915" fill="None" d="M191.4035 109.5545 C 163.99125 122.63875, 158.668 120.997, 125.58425 105.82325"></path><path stroke="Black" stroke-width="0.9377974509992915" fill="None" d="M135.78300000000002 120.599 C 128.7185 111.1465, 122.84800000000001 106.66900000000001, 112.5 100.5"></path><path stroke="Black" stroke-width="0.9377974509992915" fill="None" d="M162.25 125.375 C 153.3945 122.0915, 146.32999999999998 121.196, 135.78300000000002 120.599"></path><path stroke="Black" stroke-width="0.9377974509992915" fill="None" d="M162.25 150.25 C 162.25 139.305, 162.25 132.8375, 162.25 125.375"></path><path stroke="Black" stroke-width="0.9377974509992915" fill="None" d="M187.125 150.25 C 177.175 150.25, 171.205 150.25, 162.25 150.25"></path><path stroke="Black" stroke-width="0.9377974509992915" fill="None" d="M187.125 150.25 C 190.4085 141.3945, 191.304 134.32999999999998, 191.901 123.783"></path><path stroke="Black" stroke-width="0.9377974509992915" fill="None" d="M191.901 123.783 C 177.175 129.8525, 174.6875 129.8525, 162.25 125.375"></path><path stroke="Black" stroke-width="0.9377974509992915" fill="None" d="M191.901 123.783 C 201.3535 116.7185, 205.831 110.84800000000001, 212 100.5"></path><path stroke="Black" stroke-width="0.9377974509992915" fill="None" d="M212 100.5 C 203.7415 98.41050000000001, 198.5675 97.714, 190.309 98.90799999999999"></path><path stroke="Black" stroke-width="0.9377974509992915" fill="None" d="M190.309 98.90799999999999 C 176.27949999999998 99.6045, 177.573 111.84299999999999, 162.25 112.7385"></path><path stroke="Black" stroke-width="0.9377974509992915" fill="None" d="M162.25 112.7385 C 159.7625 112.9375, 154.7875 112.9375, 149.8125 112.9375"></path><path stroke="Black" stroke-width="0.9377974509992915" fill="None" d="M149.8125 112.9375 C 143.743 110.1515, 139.763 107.06700000000001, 134.191 102.09199999999998"></path><path stroke="Black" stroke-width="0.9377974509992915" fill="None" d="M134.191 102.09199999999998 C 125.9325 103.286, 120.7585 102.58949999999999, 112.5 100.5"></path><path stroke="Black" stroke-width="0.9377974509992915" fill="None" d="M190.309 98.90799999999999 C 184.737 93.93299999999999, 180.757 90.8485, 174.6875 88.0625"></path><path stroke="Black" stroke-width="0.9377974509992915" fill="None" d="M174.6875 88.0625 C 168.46875 94.28125, 165.98125 96.76875000000001, 162.25 100.5"></path><path stroke="Black" stroke-width="0.9377974509992915" fill="None" d="M162.25 100.5 C 162.25 104.47999999999999, 162.25 109.45500000000001, 162.25 112.7385"></path><path stroke="Black" stroke-width="0.9377974509992915" fill="None" d="M181.90125 99.25625 C 179.8615 95.0275, 177.175 92.93799999999999, 172.44875 91.59475"></path><path stroke="Black" stroke-width="0.9377974509992915" fill="None" d="M175.43375 103.23624999999998 C 174.2895 98.41050000000001, 172.797 96.4205, 169.06575 94.77875"></path><path stroke="Black" stroke-width="0.9377974509992915" fill="None" d="M169.9115 107.9625 C 170.409 102.291, 169.5135 100.9975, 165.9315 97.91300000000001"></path><path stroke="Black" stroke-width="0.9377974509992915" fill="None" d="M160.60825 107.01724999999999 C 159.01625 107.21625, 157.52375 107.21625, 156.82725 106.91775"></path><path stroke="Black" stroke-width="0.9377974509992915" fill="None" d="M160.60825 110.00225 C 157.7725 110.9475, 156.28 110.94749999999999, 153.94175 109.60425000000001"></path><path stroke="Black" stroke-width="0.9377974509992915" fill="None" d="M182.49824999999998 146.91675 C 186.13 138.8075, 185.6325 133.335, 183.8415 128.4595"></path><path stroke="Black" stroke-width="0.9377974509992915" fill="None" d="M177.62275 146.91675 C 180.16 138.31, 180.16 135.325, 178.91625 129.60375"></path><path stroke="Black" stroke-width="0.9377974509992915" fill="None" d="M171.35425 146.91674999999998 C 174.6875 138.8075, 174.6875 134.8275, 173.24475 129.30525"></path><path stroke="Black" stroke-width="0.9377974509992915" fill="None" d="M166.47875 148.21025 C 169.215 137.315, 169.215 133.335, 168.3195 128.2605"></path><path stroke="Black" stroke-width="0.9377974509992915" fill="None" d="M192.34875 114.87774999999999 C 192.1995 112.838, 192.1995 111.84299999999999, 192.1995 110.5495"></path><path stroke="Black" stroke-width="0.9377974509992915" fill="None" d="M192.34875 114.87774999999999 C 195.483 112.838, 197.97050000000002 110.3505, 200.3585 106.868"></path><path stroke="Black" stroke-width="0.9377974509992915" fill="None" d="M200.3585 106.868 C 198.41825 105.62424999999999, 195.085 108.261, 192.1995 110.5495"></path><path stroke="Black" stroke-width="0.9377974509992915" fill="None" d="M191.503 108.062 C 191.10500000000002 106.47, 190.60750000000002 104.48, 190.35875 103.53475"></path><path stroke="Black" stroke-width="0.9377974509992915" fill="None" d="M191.503 108.062 C 196.32875 105.22625, 197.075 104.48, 198.71675 102.63925"></path><path stroke="Black" stroke-width="0.9377974509992915" fill="None" d="M198.71675 102.63925 C 194.83625 102.73874999999998, 192.498 102.888, 190.35875 103.53475"></path><path stroke="Black" stroke-width="0.9377974509992915" fill="None" d="M202.94549999999998 179.4035 C 189.86124999999998 151.99124999999998, 191.503 146.668, 206.67675 113.58425"></path><path stroke="Black" stroke-width="0.9377974509992915" fill="None" d="M191.901 123.783 C 201.3535 116.7185, 205.831 110.84800000000001, 212 100.5"></path><path stroke="Black" stroke-width="0.9377974509992915" fill="None" d="M187.125 150.25 C 190.4085 141.3945, 191.304 134.32999999999998, 191.901 123.783"></path><path stroke="Black" stroke-width="0.9377974509992915" fill="None" d="M162.25 150.25 C 173.195 150.25, 179.6625 150.25, 187.125 150.25"></path><path stroke="Black" stroke-width="0.9377974509992915" fill="None" d="M162.25 175.125 C 162.25 165.175, 162.25 159.20499999999998, 162.25 150.25"></path><path stroke="Black" stroke-width="0.9377974509992915" fill="None" d="M162.25 175.125 C 171.1055 178.4085, 178.17000000000002 179.304, 188.71699999999998 179.901"></path><path stroke="Black" stroke-width="0.9377974509992915" fill="None" d="M188.71699999999998 179.901 C 182.6475 165.175, 182.6475 162.6875, 187.125 150.25"></path><path stroke="Black" stroke-width="0.9377974509992915" fill="None" d="M188.71699999999998 179.901 C 195.7815 189.3535, 201.652 193.831, 212 200"></path><path stroke="Black" stroke-width="0.9377974509992915" fill="None" d="M212 200 C 214.0895 191.7415, 214.786 186.5675, 213.592 178.309"></path><path stroke="Black" stroke-width="0.9377974509992915" fill="None" d="M213.592 178.309 C 212.8955 164.27949999999998, 200.657 165.573, 199.7615 150.25"></path><path stroke="Black" stroke-width="0.9377974509992915" fill="None" d="M199.7615 150.25 C 199.5625 147.7625, 199.5625 142.7875, 199.5625 137.8125"></path><path stroke="Black" stroke-width="0.9377974509992915" fill="None" d="M199.5625 137.8125 C 202.3485 131.743, 205.433 127.763, 210.40800000000002 122.191"></path><path stroke="Black" stroke-width="0.9377974509992915" fill="None" d="M210.40800000000002 122.191 C 209.214 113.9325, 209.9105 108.7585, 212 100.5"></path><path stroke="Black" stroke-width="0.9377974509992915" fill="None" d="M213.592 178.309 C 218.567 172.737, 221.6515 168.757, 224.4375 162.6875"></path><path stroke="Black" stroke-width="0.9377974509992915" fill="None" d="M224.4375 162.6875 C 218.21875 156.46875, 215.73125 153.98125, 212 150.25"></path><path stroke="Black" stroke-width="0.9377974509992915" fill="None" d="M212 150.25 C 208.02 150.25, 203.045 150.25, 199.7615 150.25"></path><path stroke="Black" stroke-width="0.9377974509992915" fill="None" d="M213.24375 169.90125 C 217.4725 167.8615, 219.562 165.175, 220.90525 160.44875000000002"></path><path stroke="Black" stroke-width="0.9377974509992915" fill="None" d="M209.26375000000002 163.43375 C 214.0895 162.2895, 216.0795 160.797, 217.72125 157.06575"></path><path stroke="Black" stroke-width="0.9377974509992915" fill="None" d="M204.5375 157.9115 C 210.209 158.409, 211.5025 157.5135, 214.587 153.9315"></path><path stroke="Black" stroke-width="0.9377974509992915" fill="None" d="M205.48275 148.60825 C 205.28375 147.01625, 205.28375 145.52375, 205.58225 144.82725"></path><path stroke="Black" stroke-width="0.9377974509992915" fill="None" d="M202.49775 148.60825 C 201.5525 145.77249999999998, 201.5525 144.28, 202.89575 141.94175"></path><path stroke="Black" stroke-width="0.9377974509992915" fill="None" d="M165.58325 170.49824999999998 C 173.6925 174.13, 179.165 173.6325, 184.0405 171.8415"></path><path stroke="Black" stroke-width="0.9377974509992915" fill="None" d="M165.58325 165.62275 C 174.19 168.16, 177.175 168.16, 182.89625 166.91625"></path><path stroke="Black" stroke-width="0.9377974509992915" fill="None" d="M165.58325 159.35425 C 173.6925 162.6875, 177.6725 162.6875, 183.19475 161.24475"></path><path stroke="Black" stroke-width="0.9377974509992915" fill="None" d="M164.28975 154.47875 C 175.185 157.215, 179.165 157.215, 184.2395 156.3195"></path><path stroke="Black" stroke-width="0.9377974509992915" fill="None" d="M197.62225 180.34875 C 199.662 180.1995, 200.657 180.1995, 201.9505 180.1995"></path><path stroke="Black" stroke-width="0.9377974509992915" fill="None" d="M197.62225 180.34875 C 199.662 183.483, 202.1495 185.97050000000002, 205.632 188.3585"></path><path stroke="Black" stroke-width="0.9377974509992915" fill="None" d="M205.632 188.3585 C 206.87575 186.41825, 204.239 183.085, 201.9505 180.1995"></path><path stroke="Black" stroke-width="0.9377974509992915" fill="None" d="M204.438 179.503 C 206.03 179.10500000000002, 208.01999999999998 178.60750000000002, 208.96525 178.35875"></path><path stroke="Black" stroke-width="0.9377974509992915" fill="None" d="M204.438 179.503 C 207.27375 184.32875, 208.01999999999998 185.075, 209.86075 186.71675"></path><path stroke="Black" stroke-width="0.9377974509992915" fill="None" d="M209.86075 186.71675 C 209.76125000000002 182.83625, 209.612 180.498, 208.96525 178.35875"></path><polyline stroke="Grey" stroke-width="1" stroke-dasharray="2,2" fill="None" points="13,50.75 62.75,50.75 62.75,1 13,1 13,50.75"></polyline><polyline stroke="Grey" stroke-width="1" stroke-dasharray="2,2" fill="None" points="62.75,50.75 112.5,50.75 112.5,1 62.75,1 62.75,50.75"></polyline><polyline stroke="Grey" stroke-width="1" stroke-dasharray="2,2" fill="None" points="13,100.5 62.75,100.5 62.75,50.75 13,50.75 13,100.5"></polyline><polyline stroke="Grey" stroke-width="1" stroke-dasharray="2,2" fill="None" points="62.75,100.5 112.5,100.5 112.5,50.75 62.75,50.75 62.75,100.5"></polyline><polyline stroke="Grey" stroke-width="1" stroke-dasharray="2,2" fill="None" points="112.5,50.75 162.25,50.75 162.25,1 112.5,1 112.5,50.75"></polyline><polyline stroke="Grey" stroke-width="1" stroke-dasharray="2,2" fill="None" points="162.25,50.75 212,50.75 212,1 162.25,1 162.25,50.75"></polyline><polyline stroke="Grey" stroke-width="1" stroke-dasharray="2,2" fill="None" points="112.5,100.5 162.25,100.5 162.25,50.75 112.5,50.75 112.5,100.5"></polyline><polyline stroke="Grey" stroke-width="1" stroke-dasharray="2,2" fill="None" points="162.25,100.5 212,100.5 212,50.75 162.25,50.75 162.25,100.5"></polyline><polyline stroke="Grey" stroke-width="1" stroke-dasharray="2,2" fill="None" points="13,200 112.5,200 112.5,100.5 13,100.5 13,200"></polyline><polyline stroke="Grey" stroke-width="1" stroke-dasharray="2,2" fill="None" points="112.5,200 212,200 212,100.5 112.5,100.5 112.5,200"></polyline></svg>