<?xml version="1.0" encoding="UTF-8" standalone="no"?>
<svg version="1.1" x="0" y="0" width="352" height="300" style="background-color: white" xmlns="http://www.w3.org/2000/svg"><defs><marker id="a-arrow" markerWidth="10" markerHeight="10" refX="9" refY="3" orient="auto" markerUnits="strokeWidth"><path d="M0,0 L0,6 L9,3 z" fill="#f00"></path></marker><marker id="b-arrow" markerWidth="10" markerHeight="10" refX="9" refY="3" orient="auto" markerUnits="strokeWidth"><path d="M0,0 L0,6 L9,3 z" fill="#FF8C00"></path></marker><marker id="c-arrow" markerWidth="10" markerHeight="10" refX="9" refY="3" orient="auto" markerUnits="strokeWidth"><path d="M0,0 L0,6 L9,3 z" fill="#9932CC"></path></marker></defs><path stroke="Black" stroke-width="1.5811388300841898" fill="None" d="M74.2 159.60000000000002 C 103 241, 117 248.4, 214 284.4"></path><path stroke="Black" stroke-width="1.5811388300841898" fill="None" d="M163.79999999999998 293.6 C 197 288.8, 217.79999999999998 291.6, 251 300"></path><path stroke="Black" stroke-width="1.5811388300841898" fill="None" d="M101 250 C 125.4 261.2, 141.4 273.6, 163.79999999999998 293.6"></path><path stroke="Black" stroke-width="1.5811388300841898" fill="None" d="M51 300 C 73 278, 86 265, 101 250"></path><path stroke="Black" stroke-width="1.5811388300841898" fill="None" d="M1 250 C 21 270, 33 282, 51 300"></path><path stroke="Black" stroke-width="1.5811388300841898" fill="None" d="M1 250 C 12.199999999999996 225.6, 24.599999999999998 209.6, 44.6 187.20000000000002"></path><path stroke="Black" stroke-width="1.5811388300841898" fill="None" d="M44.6 187.20000000000002 C 62 229, 67 234, 101 250"></path><path stroke="Black" stroke-width="1.5811388300841898" fill="None" d="M44.6 187.20000000000002 C 39.8 154, 42.6 133.20000000000002, 51 100"></path><path stroke="Black" stroke-width="1.5811388300841898" fill="None" d="M51 100 C 71.8 112.4, 83.6 121.4, 97.80000000000001 140.39999999999998"></path><path stroke="Black" stroke-width="1.5811388300841898" fill="None" d="M97.80000000000001 140.39999999999998 C 124.6 170, 97.4 192, 126.4 224.6"></path><path stroke="Black" stroke-width="1.5811388300841898" fill="None" d="M126.4 224.6 C 131 230, 141 240, 151 250"></path><path stroke="Black" stroke-width="1.5811388300841898" fill="None" d="M151 250 C 168.8 256.6, 183 258.4, 204.2 259.6"></path><path stroke="Black" stroke-width="1.5811388300841898" fill="None" d="M204.2 259.6 C 218.4 278.6, 230.20000000000002 287.6, 251 300"></path><path stroke="Black" stroke-width="1.5811388300841898" fill="None" d="M97.80000000000001 140.39999999999998 C 119 141.6, 133.2 143.4, 151 150"></path><path stroke="Black" stroke-width="1.5811388300841898" fill="None" d="M151 150 C 151 175, 151 185, 151 200"></path><path stroke="Black" stroke-width="1.5811388300841898" fill="None" d="M151 200 C 143 208, 133 218, 126.4 224.6"></path><path stroke="Black" stroke-width="1.5811388300841898" fill="None" d="M114 158 C 126.6 153.6, 136.2 154.8, 148.39999999999998 161.60000000000002"></path><path stroke="Black" stroke-width="1.5811388300841898" fill="None" d="M119 179 C 131 171.6, 138 170.6, 148.8 174.8"></path><path stroke="Black" stroke-width="1.5811388300841898" fill="None" d="M120.6 199.6 C 131 187.20000000000002, 135.39999999999998 186.4, 148.8 187.4"></path><path stroke="Black" stroke-width="1.5811388300841898" fill="None" d="M141.2 216.4 C 144 220, 147 223, 149 223.8"></path><path stroke="Black" stroke-width="1.5811388300841898" fill="None" d="M135.2 222.39999999999998 C 139 230, 142 233, 149.4 235"></path><path stroke="Black" stroke-width="1.5811388300841898" fill="None" d="M17 252.6 C 26 229, 38 219, 51.4 212.8"></path><path stroke="Black" stroke-width="1.5811388300841898" fill="None" d="M26.8 262.4 C 39 240, 45 234, 59 225"></path><path stroke="Black" stroke-width="1.5811388300841898" fill="None" d="M39.4 275 C 49 252, 57 244, 71 235.8"></path><path stroke="Black" stroke-width="1.5811388300841898" fill="None" d="M46.6 287.4 C 63 260, 71 252, 83 243.60000000000002"></path><path stroke="Black" stroke-width="1.5811388300841898" fill="None" d="M61.6 168.4 C 66 164.6, 68 162.6, 70.6 160"></path><path stroke="Black" stroke-width="1.5811388300841898" fill="None" d="M61.6 168.4 C 59.4 158, 59.4 148, 61.6 136.20000000000002"></path><path stroke="Black" stroke-width="1.5811388300841898" fill="None" d="M61.6 136.20000000000002 C 68 137.6, 69.4 149.6, 70.6 160"></path><path stroke="Black" stroke-width="1.5811388300841898" fill="None" d="M77 156.4 C 81 154, 86 151, 88.4 149.6"></path><path stroke="Black" stroke-width="1.5811388300841898" fill="None" d="M77 156.4 C 73 141, 73 138, 73.4 131"></path><path stroke="Black" stroke-width="1.5811388300841898" fill="None" d="M73.4 131 C 81 139, 85.4 144, 88.4 149.6"></path><path stroke="Black" stroke-width="1.3295739742362471" fill="None" d="M209.6 118.20000000000002 C 154.5 144.5, 143.8 141.2, 77.3 110.69999999999999"></path><path stroke="Black" stroke-width="1.3295739742362471" fill="None" d="M97.80000000000001 140.4 C 83.6 121.4, 71.80000000000001 112.4, 51 100"></path><path stroke="Black" stroke-width="1.3295739742362471" fill="None" d="M151 150 C 133.2 143.39999999999998, 119 141.6, 97.80000000000001 140.4"></path><path stroke="Black" stroke-width="1.3295739742362471" fill="None" d="M151 200 C 151 178, 151 165, 151 150"></path><path stroke="Black" stroke-width="1.3295739742362471" fill="None" d="M201 200 C 181 200, 169 200, 151 200"></path><path stroke="Black" stroke-width="1.3295739742362471" fill="None" d="M201 200 C 207.60000000000002 182.2, 209.4 168, 210.6 146.8"></path><path stroke="Black" stroke-width="1.3295739742362471" fill="None" d="M210.6 146.8 C 181 159, 176 159, 151 150"></path><path stroke="Black" stroke-width="1.3295739742362471" fill="None" d="M210.6 146.8 C 229.6 132.6, 238.6 120.80000000000001, 251 100"></path><path stroke="Black" stroke-width="1.3295739742362471" fill="None" d="M251 100 C 234.39999999999998 95.80000000000001, 224 94.4, 207.4 96.79999999999998"></path><path stroke="Black" stroke-width="1.3295739742362471" fill="None" d="M207.4 96.79999999999998 C 179.2 98.19999999999999, 181.8 122.80000000000001, 151 124.6"></path><path stroke="Black" stroke-width="1.3295739742362471" fill="None" d="M151 124.6 C 146 125, 136 125, 126 125"></path><path stroke="Black" stroke-width="1.3295739742362471" fill="None" d="M126 125 C 113.8 119.4, 105.8 113.19999999999999, 94.60000000000001 103.19999999999999"></path><path stroke="Black" stroke-width="1.3295739742362471" fill="None" d="M94.60000000000001 103.19999999999999 C 78 105.6, 67.6 104.19999999999999, 51 100"></path><path stroke="Black" stroke-width="1.3295739742362471" fill="None" d="M207.4 96.79999999999998 C 196.2 86.80000000000001, 188.2 80.60000000000002, 176 75"></path><path stroke="Black" stroke-width="1.3295739742362471" fill="None" d="M176 75 C 163.5 87.5, 158.5 92.5, 151 100"></path><path stroke="Black" stroke-width="1.3295739742362471" fill="None" d="M151 100 C 151 108, 151 118, 151 124.6"></path><path stroke="Black" stroke-width="1.3295739742362471" fill="None" d="M190.5 97.5 C 186.4 89, 181 84.80000000000001, 171.5 82.10000000000002"></path><path stroke="Black" stroke-width="1.3295739742362471" fill="None" d="M177.5 105.5 C 175.2 95.80000000000001, 172.2 91.80000000000001, 164.7 88.5"></path><path stroke="Black" stroke-width="1.3295739742362471" fill="None" d="M166.4 115 C 167.39999999999998 103.60000000000002, 165.6 101, 158.4 94.80000000000001"></path><path stroke="Black" stroke-width="1.3295739742362471" fill="None" d="M147.7 113.1 C 144.5 113.5, 141.5 113.5, 140.1 112.9"></path><path stroke="Black" stroke-width="1.3295739742362471" fill="None" d="M147.7 119.1 C 142 121, 139 121, 134.3 118.30000000000001"></path><path stroke="Black" stroke-width="1.3295739742362471" fill="None" d="M191.7 193.3 C 199 177, 198 166, 194.4 156.2"></path><path stroke="Black" stroke-width="1.3295739742362471" fill="None" d="M181.9 193.3 C 187 176, 187 170, 184.5 158.5"></path><path stroke="Black" stroke-width="1.3295739742362471" fill="None" d="M169.3 193.3 C 176 177, 176 169, 173.1 157.9"></path><path stroke="Black" stroke-width="1.3295739742362471" fill="None" d="M159.5 195.9 C 165 174, 165 166, 163.2 155.8"></path><path stroke="Black" stroke-width="1.3295739742362471" fill="None" d="M211.5 128.9 C 211.2 124.80000000000001, 211.2 122.80000000000001, 211.2 120.19999999999999"></path><path stroke="Black" stroke-width="1.3295739742362471" fill="None" d="M211.5 128.9 C 217.8 124.80000000000001, 222.8 119.80000000000001, 227.6 112.80000000000001"></path><path stroke="Black" stroke-width="1.3295739742362471" fill="None" d="M227.6 112.80000000000001 C 223.7 110.30000000000001, 217 115.6, 211.2 120.19999999999999"></path><path stroke="Black" stroke-width="1.3295739742362471" fill="None" d="M209.8 115.19999999999999 C 209 112, 208 108, 207.5 106.1"></path><path stroke="Black" stroke-width="1.3295739742362471" fill="None" d="M209.8 115.19999999999999 C 219.5 109.5, 221 108, 224.3 104.30000000000001"></path><path stroke="Black" stroke-width="1.3295739742362471" fill="None" d="M224.3 104.30000000000001 C 216.5 104.5, 211.8 104.80000000000001, 207.5 106.1"></path><path stroke="Black" stroke-width="1.3295739742362471" fill="None" d="M232.79999999999998 258.59999999999997 C 206.5 203.5, 209.8 192.8, 240.3 126.30000000000001"></path><path stroke="Black" stroke-width="1.3295739742362471" fill="None" d="M210.6 146.8 C 229.6 132.6, 238.6 120.80000000000001, 251 100"></path><path stroke="Black" stroke-width="1.3295739742362471" fill="None" d="M201 200 C 207.60000000000002 182.2, 209.4 168, 210.6 146.8"></path><path stroke="Black" stroke-width="1.3295739742362471" fill="None" d="M151 200 C 173 200, 186 200, 201 200"></path><path stroke="Black" stroke-width="1.3295739742362471" fill="None" d="M151 250 C 151 230, 151 218, 151 200"></path><path stroke="Black" stroke-width="1.3295739742362471" fill="None" d="M151 250 C 168.8 256.6, 183 258.4, 204.2 259.6"></path><path stroke="Black" stroke-width="1.3295739742362471" fill="None" d="M204.2 259.6 C 192 230, 192 225, 201 200"></path><path stroke="Black" stroke-width="1.3295739742362471" fill="None" d="M204.2 259.6 C 218.4 278.6, 230.2 287.6, 251 300"></path><path stroke="Black" stroke-width="1.3295739742362471" fill="None" d="M251 300 C 255.2 283.4, 256.6 273, 254.20000000000002 256.4"></path><path stroke="Black" stroke-width="1.3295739742362471" fill="None" d="M254.20000000000002 256.4 C 252.8 228.2, 228.2 230.8, 226.4 200"></path><path stroke="Black" stroke-width="1.3295739742362471" fill="None" d="M226.4 200 C 226 195, 226 185, 226 175"></path><path stroke="Black" stroke-width="1.3295739742362471" fill="None" d="M226 175 C 231.6 162.8, 237.8 154.8, 247.8 143.60000000000002"></path><path stroke="Black" stroke-width="1.3295739742362471" fill="None" d="M247.8 143.60000000000002 C 245.4 127, 246.8 116.6, 251 100"></path><path stroke="Black" stroke-width="1.3295739742362471" fill="None" d="M254.20000000000002 256.4 C 264.2 245.2, 270.4 237.2, 276 225"></path><path stroke="Black" stroke-width="1.3295739742362471" fill="None" d="M276 225 C 263.5 212.5, 258.5 207.5, 251 200"></path><path stroke="Black" stroke-width="1.3295739742362471" fill="None" d="M251 200 C 243 200, 233 200, 226.4 200"></path><path stroke="Black" stroke-width="1.3295739742362471" fill="None" d="M253.5 239.5 C 262 235.4, 266.2 230, 268.9 220.5"></path><path stroke="Black" stroke-width="1.3295739742362471" fill="None" d="M245.5 226.5 C 255.2 224.2, 259.2 221.2, 262.5 213.7"></path><path stroke="Black" stroke-width="1.3295739742362471" fill="None" d="M236 215.4 C 247.39999999999998 216.39999999999998, 250 214.6, 256.2 207.4"></path><path stroke="Black" stroke-width="1.3295739742362471" fill="None" d="M237.9 196.7 C 237.5 193.5, 237.5 190.5, 238.1 189.1"></path><path stroke="Black" stroke-width="1.3295739742362471" fill="None" d="M231.9 196.7 C 230 191, 230 188, 232.7 183.3"></path><path stroke="Black" stroke-width="1.3295739742362471" fill="None" d="M157.7 240.7 C 174 248, 185 247, 194.8 243.4"></path><path stroke="Black" stroke-width="1.3295739742362471" fill="None" d="M157.7 230.9 C 175 236, 181 236, 192.5 233.5"></path><path stroke="Black" stroke-width="1.3295739742362471" fill="None" d="M157.7 218.3 C 174 225, 182 225, 193.1 222.1"></path><path stroke="Black" stroke-width="1.3295739742362471" fill="None" d="M155.1 208.5 C 177 214, 185 214, 195.2 212.2"></path><path stroke="Black" stroke-width="1.3295739742362471" fill="None" d="M222.1 260.5 C 226.2 260.2, 228.2 260.2, 230.8 260.2"></path><path stroke="Black" stroke-width="1.3295739742362471" fill="None" d="M222.1 260.5 C 226.2 266.8, 231.2 271.8, 238.2 276.6"></path><path stroke="Black" stroke-width="1.3295739742362471" fill="None" d="M238.2 276.6 C 240.7 272.7, 235.4 266, 230.8 260.2"></path><path stroke="Black" stroke-width="1.3295739742362471" fill="None" d="M235.8 258.8 C 239 258, 243 257, 244.9 256.5"></path><path stroke="Black" stroke-width="1.3295739742362471" fill="None" d="M235.8 258.8 C 241.5 268.5, 243 270, 246.7 273.3"></path><path stroke="Black" stroke-width="1.3295739742362471" fill="None" d="M246.7 273.3 C 246.5 265.5, 246.2 260.8, 244.9 256.5"></path><polyline stroke="Grey" stroke-width="1" stroke-dasharray="2,2" fill="None" points="51,300 251,300 251,100 51,100 51,300"></polyline><polyline stroke="Grey" stroke-width="1" stroke-dasharray="2,2" fill="None" points="151,200 51,100 151,0 251,100 151,200"></polyline><polyline stroke="Grey" stroke-width="1" stroke-dasharray="2,2" fill="None" points="151,200 251,100 351,200 251,300 151,200"></polyline></svg>