<?xml version="1.0" encoding="UTF-8" standalone="no"?>
<svg version="1.1" x="0" y="0" width="402" height="402" style="background-color: white" xmlns="http://www.w3.org/2000/svg"><defs><marker id="a-arrow" markerWidth="10" markerHeight="10" refX="9" refY="3" orient="auto" markerUnits="strokeWidth"><path d="M0,0 L0,6 L9,3 z" fill="#f00"></path></marker><marker id="b-arrow" markerWidth="10" markerHeight="10" refX="9" refY="3" orient="auto" markerUnits="strokeWidth"><path d="M0,0 L0,6 L9,3 z" fill="#FF8C00"></path></marker><marker id="c-arrow" markerWidth="10" markerHeight="10" refX="9" refY="3" orient="auto" markerUnits="strokeWidth"><path d="M0,0 L0,6 L9,3 z" fill="#9932CC"></path></marker></defs><path stroke="Black" stroke-width="1.3295739742362471" fill="None" d="M258.59999999999997 120.20000000000005 C 203.5 146.5, 192.8 143.2, 126.3 112.69999999999999"></path><path stroke="Black" stroke-width="1.3295739742362471" fill="None" d="M146.8 142.39999999999998 C 132.6 123.39999999999998, 120.80000000000001 114.39999999999998, 100 102"></path><path stroke="Black" stroke-width="1.3295739742362471" fill="None" d="M200 152 C 182.2 145.39999999999998, 168 143.60000000000002, 146.8 142.39999999999998"></path><path stroke="Black" stroke-width="1.3295739742362471" fill="None" d="M200 202 C 200 180, 200 167, 200 152"></path><path stroke="Black" stroke-width="1.3295739742362471" fill="None" d="M250 202 C 230 202, 218 202, 200 202"></path><path stroke="Black" stroke-width="1.3295739742362471" fill="None" d="M250 202 C 256.6 184.2, 258.4 170, 259.6 148.8"></path><path stroke="Black" stroke-width="1.3295739742362471" fill="None" d="M259.6 148.8 C 230 161, 225 161, 200 152"></path><path stroke="Black" stroke-width="1.3295739742362471" fill="None" d="M259.6 148.8 C 278.6 134.60000000000002, 287.6 122.80000000000001, 300 102"></path><path stroke="Black" stroke-width="1.3295739742362471" fill="None" d="M300 102 C 283.4 97.80000000000001, 273 96.39999999999998, 256.4 98.79999999999995"></path><path stroke="Black" stroke-width="1.3295739742362471" fill="None" d="M256.4 98.79999999999995 C 228.2 100.19999999999999, 230.8 124.80000000000001, 200 126.60000000000002"></path><path stroke="Black" stroke-width="1.3295739742362471" fill="None" d="M200 126.60000000000002 C 195 127, 185 127, 175 127"></path><path stroke="Black" stroke-width="1.3295739742362471" fill="None" d="M175 127 C 162.8 121.39999999999998, 154.8 115.19999999999999, 143.60000000000002 105.19999999999999"></path><path stroke="Black" stroke-width="1.3295739742362471" fill="None" d="M143.60000000000002 105.19999999999999 C 127 107.60000000000002, 116.6 106.19999999999999, 100 102"></path><path stroke="Black" stroke-width="1.3295739742362471" fill="None" d="M256.4 98.79999999999995 C 245.2 88.80000000000001, 237.2 82.60000000000002, 225 77"></path><path stroke="Black" stroke-width="1.3295739742362471" fill="None" d="M225 77 C 212.5 89.5, 207.5 94.5, 200 102"></path><path stroke="Black" stroke-width="1.3295739742362471" fill="None" d="M200 102 C 200 110, 200 120, 200 126.60000000000002"></path><path stroke="Black" stroke-width="1.3295739742362471" fill="None" d="M239.5 99.5 C 235.4 91, 230 86.80000000000001, 220.5 84.10000000000002"></path><path stroke="Black" stroke-width="1.3295739742362471" fill="None" d="M226.5 107.5 C 224.2 97.80000000000001, 221.2 93.80000000000001, 213.7 90.5"></path><path stroke="Black" stroke-width="1.3295739742362471" fill="None" d="M215.4 117 C 216.39999999999998 105.60000000000002, 214.6 103, 207.4 96.80000000000001"></path><path stroke="Black" stroke-width="1.3295739742362471" fill="None" d="M196.7 115.10000000000002 C 193.5 115.5, 190.5 115.5, 189.1 114.89999999999998"></path><path stroke="Black" stroke-width="1.3295739742362471" fill="None" d="M196.7 121.10000000000002 C 191 123, 188 123, 183.3 120.30000000000001"></path><path stroke="Black" stroke-width="1.3295739742362471" fill="None" d="M240.7 195.3 C 248 179, 247 168, 243.4 158.2"></path><path stroke="Black" stroke-width="1.3295739742362471" fill="None" d="M230.9 195.3 C 236 178, 236 172, 233.5 160.5"></path><path stroke="Black" stroke-width="1.3295739742362471" fill="None" d="M218.3 195.3 C 225 179, 225 171, 222.1 159.9"></path><path stroke="Black" stroke-width="1.3295739742362471" fill="None" d="M208.5 197.9 C 214 176, 214 168, 212.2 157.8"></path><path stroke="Black" stroke-width="1.3295739742362471" fill="None" d="M260.5 130.89999999999998 C 260.2 126.80000000000001, 260.2 124.80000000000001, 260.2 122.19999999999999"></path><path stroke="Black" stroke-width="1.3295739742362471" fill="None" d="M260.5 130.89999999999998 C 266.8 126.80000000000001, 271.8 121.80000000000001, 276.6 114.80000000000001"></path><path stroke="Black" stroke-width="1.3295739742362471" fill="None" d="M276.6 114.80000000000001 C 272.7 112.30000000000001, 266 117.60000000000002, 260.2 122.19999999999999"></path><path stroke="Black" stroke-width="1.3295739742362471" fill="None" d="M258.8 117.19999999999999 C 258 114, 257 110, 256.5 108.10000000000002"></path><path stroke="Black" stroke-width="1.3295739742362471" fill="None" d="M258.8 117.19999999999999 C 268.5 111.5, 270 110, 273.3 106.30000000000001"></path><path stroke="Black" stroke-width="1.3295739742362471" fill="None" d="M273.3 106.30000000000001 C 265.5 106.5, 260.8 106.80000000000001, 256.5 108.10000000000002"></path><path stroke="Black" stroke-width="1.3295739742362471" fill="None" d="M141.4 283.79999999999995 C 196.5 257.5, 207.2 260.8, 273.7 291.3"></path><path stroke="Black" stroke-width="1.3295739742362471" fill="None" d="M253.2 261.6 C 267.4 280.6, 279.2 289.6, 300 302"></path><path stroke="Black" stroke-width="1.3295739742362471" fill="None" d="M200 252 C 217.8 258.6, 232 260.4, 253.2 261.6"></path><path stroke="Black" stroke-width="1.3295739742362471" fill="None" d="M200 202 C 200 224, 200 237, 200 252"></path><path stroke="Black" stroke-width="1.3295739742362471" fill="None" d="M150 202 C 170 202, 182 202, 200 202"></path><path stroke="Black" stroke-width="1.3295739742362471" fill="None" d="M150 202 C 143.39999999999998 219.8, 141.6 234, 140.4 255.2"></path><path stroke="Black" stroke-width="1.3295739742362471" fill="None" d="M140.4 255.2 C 170 243, 175 243, 200 252"></path><path stroke="Black" stroke-width="1.3295739742362471" fill="None" d="M140.4 255.2 C 121.4 269.4, 112.4 281.2, 100 302"></path><path stroke="Black" stroke-width="1.3295739742362471" fill="None" d="M100 302 C 116.60000000000001 306.2, 127 307.6, 143.6 305.20000000000005"></path><path stroke="Black" stroke-width="1.3295739742362471" fill="None" d="M143.6 305.20000000000005 C 171.8 303.8, 169.2 279.2, 200 277.4"></path><path stroke="Black" stroke-width="1.3295739742362471" fill="None" d="M200 277.4 C 205 277, 215 277, 225 277"></path><path stroke="Black" stroke-width="1.3295739742362471" fill="None" d="M225 277 C 237.2 282.6, 245.2 288.8, 256.4 298.8"></path><path stroke="Black" stroke-width="1.3295739742362471" fill="None" d="M256.4 298.8 C 273 296.4, 283.4 297.8, 300 302"></path><path stroke="Black" stroke-width="1.3295739742362471" fill="None" d="M143.6 305.20000000000005 C 154.8 315.2, 162.8 321.4, 175 327"></path><path stroke="Black" stroke-width="1.3295739742362471" fill="None" d="M175 327 C 187.5 314.5, 192.5 309.5, 200 302"></path><path stroke="Black" stroke-width="1.3295739742362471" fill="None" d="M200 302 C 200 294, 200 284, 200 277.4"></path><path stroke="Black" stroke-width="1.3295739742362471" fill="None" d="M160.5 304.5 C 164.6 313, 170 317.2, 179.5 319.9"></path><path stroke="Black" stroke-width="1.3295739742362471" fill="None" d="M173.5 296.5 C 175.8 306.2, 178.8 310.2, 186.3 313.5"></path><path stroke="Black" stroke-width="1.3295739742362471" fill="None" d="M184.6 287 C 183.60000000000002 298.4, 185.4 301, 192.6 307.2"></path><path stroke="Black" stroke-width="1.3295739742362471" fill="None" d="M203.3 288.9 C 206.5 288.5, 209.5 288.5, 210.9 289.1"></path><path stroke="Black" stroke-width="1.3295739742362471" fill="None" d="M203.3 282.9 C 209 281, 212 281, 216.7 283.7"></path><path stroke="Black" stroke-width="1.3295739742362471" fill="None" d="M159.3 208.7 C 152 225, 153 236, 156.6 245.8"></path><path stroke="Black" stroke-width="1.3295739742362471" fill="None" d="M169.1 208.7 C 164 226, 164 232, 166.5 243.5"></path><path stroke="Black" stroke-width="1.3295739742362471" fill="None" d="M181.7 208.7 C 175 225, 175 233, 177.9 244.1"></path><path stroke="Black" stroke-width="1.3295739742362471" fill="None" d="M191.5 206.1 C 186 228, 186 236, 187.8 246.2"></path><path stroke="Black" stroke-width="1.3295739742362471" fill="None" d="M139.5 273.1 C 139.8 277.2, 139.8 279.2, 139.8 281.8"></path><path stroke="Black" stroke-width="1.3295739742362471" fill="None" d="M139.5 273.1 C 133.2 277.2, 128.2 282.2, 123.4 289.2"></path><path stroke="Black" stroke-width="1.3295739742362471" fill="None" d="M123.4 289.2 C 127.3 291.7, 134 286.4, 139.8 281.8"></path><path stroke="Black" stroke-width="1.3295739742362471" fill="None" d="M141.2 286.8 C 142 290, 143 294, 143.5 295.9"></path><path stroke="Black" stroke-width="1.3295739742362471" fill="None" d="M141.2 286.8 C 131.5 292.5, 130 294, 126.7 297.7"></path><path stroke="Black" stroke-width="1.3295739742362471" fill="None" d="M126.7 297.7 C 134.5 297.5, 139.2 297.2, 143.5 295.9"></path><path stroke="Black" stroke-width="1.3295739742362471" fill="None" d="M118.20000000000002 143.40000000000003 C 144.5 198.5, 141.2 209.2, 110.7 275.7"></path><path stroke="Black" stroke-width="1.3295739742362471" fill="None" d="M140.4 255.2 C 121.4 269.4, 112.4 281.2, 100 302"></path><path stroke="Black" stroke-width="1.3295739742362471" fill="None" d="M150 202 C 143.39999999999998 219.8, 141.6 234, 140.4 255.2"></path><path stroke="Black" stroke-width="1.3295739742362471" fill="None" d="M200 202 C 178 202, 165 202, 150 202"></path><path stroke="Black" stroke-width="1.3295739742362471" fill="None" d="M200 152 C 200 172, 200 184, 200 202"></path><path stroke="Black" stroke-width="1.3295739742362471" fill="None" d="M200 152 C 182.2 145.39999999999998, 168 143.60000000000002, 146.8 142.39999999999998"></path><path stroke="Black" stroke-width="1.3295739742362471" fill="None" d="M146.8 142.39999999999998 C 159 172, 159 177, 150 202"></path><path stroke="Black" stroke-width="1.3295739742362471" fill="None" d="M146.8 142.39999999999998 C 132.6 123.39999999999998, 120.80000000000001 114.39999999999998, 100 102"></path><path stroke="Black" stroke-width="1.3295739742362471" fill="None" d="M100 102 C 95.8 118.60000000000002, 94.4 129, 96.79999999999998 145.60000000000002"></path><path stroke="Black" stroke-width="1.3295739742362471" fill="None" d="M96.79999999999998 145.60000000000002 C 98.2 173.8, 122.8 171.2, 124.6 202"></path><path stroke="Black" stroke-width="1.3295739742362471" fill="None" d="M124.6 202 C 125 207, 125 217, 125 227"></path><path stroke="Black" stroke-width="1.3295739742362471" fill="None" d="M125 227 C 119.4 239.2, 113.2 247.2, 103.2 258.4"></path><path stroke="Black" stroke-width="1.3295739742362471" fill="None" d="M103.2 258.4 C 105.6 275, 104.19999999999999 285.4, 100 302"></path><path stroke="Black" stroke-width="1.3295739742362471" fill="None" d="M96.79999999999998 145.60000000000002 C 86.8 156.8, 80.60000000000001 164.8, 75 177"></path><path stroke="Black" stroke-width="1.3295739742362471" fill="None" d="M75 177 C 87.5 189.5, 92.5 194.5, 100 202"></path><path stroke="Black" stroke-width="1.3295739742362471" fill="None" d="M100 202 C 108 202, 118 202, 124.6 202"></path><path stroke="Black" stroke-width="1.3295739742362471" fill="None" d="M97.5 162.5 C 89 166.6, 84.80000000000001 172, 82.10000000000002 181.5"></path><path stroke="Black" stroke-width="1.3295739742362471" fill="None" d="M105.5 175.5 C 95.8 177.8, 91.8 180.8, 88.5 188.3"></path><path stroke="Black" stroke-width="1.3295739742362471" fill="None" d="M115 186.6 C 103.60000000000001 185.60000000000002, 101 187.4, 94.80000000000001 194.6"></path><path stroke="Black" stroke-width="1.3295739742362471" fill="None" d="M113.1 205.3 C 113.5 208.5, 113.5 211.5, 112.9 212.9"></path><path stroke="Black" stroke-width="1.3295739742362471" fill="None" d="M119.1 205.3 C 121 211, 121 214, 118.3 218.7"></path><path stroke="Black" stroke-width="1.3295739742362471" fill="None" d="M193.3 161.3 C 177 154, 166 155, 156.2 158.6"></path><path stroke="Black" stroke-width="1.3295739742362471" fill="None" d="M193.3 171.1 C 176 166, 170 166, 158.5 168.5"></path><path stroke="Black" stroke-width="1.3295739742362471" fill="None" d="M193.3 183.7 C 177 177, 169 177, 157.9 179.9"></path><path stroke="Black" stroke-width="1.3295739742362471" fill="None" d="M195.9 193.5 C 174 188, 166 188, 155.8 189.8"></path><path stroke="Black" stroke-width="1.3295739742362471" fill="None" d="M128.9 141.5 C 124.8 141.8, 122.8 141.8, 120.2 141.8"></path><path stroke="Black" stroke-width="1.3295739742362471" fill="None" d="M128.9 141.5 C 124.8 135.2, 119.8 130.2, 112.80000000000001 125.39999999999998"></path><path stroke="Black" stroke-width="1.3295739742362471" fill="None" d="M112.80000000000001 125.39999999999998 C 110.3 129.3, 115.6 136, 120.2 141.8"></path><path stroke="Black" stroke-width="1.3295739742362471" fill="None" d="M115.2 143.2 C 112 144, 108 145, 106.1 145.5"></path><path stroke="Black" stroke-width="1.3295739742362471" fill="None" d="M115.2 143.2 C 109.5 133.5, 108 132, 104.3 128.7"></path><path stroke="Black" stroke-width="1.3295739742362471" fill="None" d="M104.3 128.7 C 104.5 136.5, 104.8 141.2, 106.1 145.5"></path><path stroke="Black" stroke-width="1.3295739742362471" fill="None" d="M281.79999999999995 260.6 C 255.5 205.5, 258.8 194.8, 289.3 128.3"></path><path stroke="Black" stroke-width="1.3295739742362471" fill="None" d="M259.6 148.8 C 278.6 134.60000000000002, 287.6 122.80000000000001, 300 102"></path><path stroke="Black" stroke-width="1.3295739742362471" fill="None" d="M250 202 C 256.6 184.2, 258.4 170, 259.6 148.8"></path><path stroke="Black" stroke-width="1.3295739742362471" fill="None" d="M200 202 C 222 202, 235 202, 250 202"></path><path stroke="Black" stroke-width="1.3295739742362471" fill="None" d="M200 252 C 200 232, 200 220, 200 202"></path><path stroke="Black" stroke-width="1.3295739742362471" fill="None" d="M200 252 C 217.8 258.6, 232 260.4, 253.2 261.6"></path><path stroke="Black" stroke-width="1.3295739742362471" fill="None" d="M253.2 261.6 C 241 232, 241 227, 250 202"></path><path stroke="Black" stroke-width="1.3295739742362471" fill="None" d="M253.2 261.6 C 267.4 280.6, 279.2 289.6, 300 302"></path><path stroke="Black" stroke-width="1.3295739742362471" fill="None" d="M300 302 C 304.2 285.4, 305.6 275, 303.20000000000005 258.4"></path><path stroke="Black" stroke-width="1.3295739742362471" fill="None" d="M303.20000000000005 258.4 C 301.8 230.2, 277.2 232.8, 275.4 202"></path><path stroke="Black" stroke-width="1.3295739742362471" fill="None" d="M275.4 202 C 275 197, 275 187, 275 177"></path><path stroke="Black" stroke-width="1.3295739742362471" fill="None" d="M275 177 C 280.6 164.8, 286.8 156.8, 296.8 145.60000000000002"></path><path stroke="Black" stroke-width="1.3295739742362471" fill="None" d="M296.8 145.60000000000002 C 294.4 129, 295.8 118.60000000000002, 300 102"></path><path stroke="Black" stroke-width="1.3295739742362471" fill="None" d="M303.20000000000005 258.4 C 313.2 247.2, 319.4 239.2, 325 227"></path><path stroke="Black" stroke-width="1.3295739742362471" fill="None" d="M325 227 C 312.5 214.5, 307.5 209.5, 300 202"></path><path stroke="Black" stroke-width="1.3295739742362471" fill="None" d="M300 202 C 292 202, 282 202, 275.4 202"></path><path stroke="Black" stroke-width="1.3295739742362471" fill="None" d="M302.5 241.5 C 311 237.4, 315.2 232, 317.9 222.5"></path><path stroke="Black" stroke-width="1.3295739742362471" fill="None" d="M294.5 228.5 C 304.2 226.2, 308.2 223.2, 311.5 215.7"></path><path stroke="Black" stroke-width="1.3295739742362471" fill="None" d="M285 217.4 C 296.4 218.39999999999998, 299 216.6, 305.2 209.4"></path><path stroke="Black" stroke-width="1.3295739742362471" fill="None" d="M286.9 198.7 C 286.5 195.5, 286.5 192.5, 287.1 191.1"></path><path stroke="Black" stroke-width="1.3295739742362471" fill="None" d="M280.9 198.7 C 279 193, 279 190, 281.7 185.3"></path><path stroke="Black" stroke-width="1.3295739742362471" fill="None" d="M206.7 242.7 C 223 250, 234 249, 243.8 245.4"></path><path stroke="Black" stroke-width="1.3295739742362471" fill="None" d="M206.7 232.9 C 224 238, 230 238, 241.5 235.5"></path><path stroke="Black" stroke-width="1.3295739742362471" fill="None" d="M206.7 220.3 C 223 227, 231 227, 242.1 224.1"></path><path stroke="Black" stroke-width="1.3295739742362471" fill="None" d="M204.1 210.5 C 226 216, 234 216, 244.2 214.2"></path><path stroke="Black" stroke-width="1.3295739742362471" fill="None" d="M271.1 262.5 C 275.2 262.2, 277.2 262.2, 279.8 262.2"></path><path stroke="Black" stroke-width="1.3295739742362471" fill="None" d="M271.1 262.5 C 275.2 268.8, 280.2 273.8, 287.2 278.6"></path><path stroke="Black" stroke-width="1.3295739742362471" fill="None" d="M287.2 278.6 C 289.7 274.7, 284.4 268, 279.8 262.2"></path><path stroke="Black" stroke-width="1.3295739742362471" fill="None" d="M284.8 260.8 C 288 260, 292 259, 293.9 258.5"></path><path stroke="Black" stroke-width="1.3295739742362471" fill="None" d="M284.8 260.8 C 290.5 270.5, 292 272, 295.7 275.3"></path><path stroke="Black" stroke-width="1.3295739742362471" fill="None" d="M295.7 275.3 C 295.5 267.5, 295.2 262.8, 293.9 258.5"></path><polyline stroke="Grey" stroke-width="1" stroke-dasharray="2,2" fill="None" points="100,302 300,302 300,102 100,102 100,302"></polyline><polyline stroke="Grey" stroke-width="1" stroke-dasharray="2,2" fill="None" points="200,202 100,102 200,2 300,102 200,202"></polyline><polyline stroke="Grey" stroke-width="1" stroke-dasharray="2,2" fill="None" points="200,202 100,302 0,202 100,102 200,202"></polyline><polyline stroke="Grey" stroke-width="1" stroke-dasharray="2,2" fill="None" points="200,202 300,302 200,402 100,302 200,202"></polyline><polyline stroke="Grey" stroke-width="1" stroke-dasharray="2,2" fill="None" points="200,202 300,102 400,202 300,302 200,202"></polyline></svg>